SplineFontDB: 3.1
FontName: Anton
FullName: Anton
FamilyName: Antonio
Weight: Normal
Copyright: Copyright (c) 2011-12 by vernon adams. All rights reserved.
Version: 1.002
ItalicAngle: 0
UnderlinePosition: -358
UnderlineWidth: 102
Ascent: 1638
Descent: 410
UFOAscent: 2408
UFODescent: -647
LayerCount: 2
Layer: 0 0 "Back"  1 0
Layer: 1 0 "Fore"  0 0
FSType: 2
OS2Version: 0
OS2_WeightWidthSlopeOnly: 0
OS2_UseTypoMetrics: 0
CreationTime: 1351634170
ModificationTime: 1351634270
PfmFamily: 0
TTFWeight: 400
TTFWidth: 1
LineGap: 0
VLineGap: 0
Panose: 2 0 5 3 0 0 0 0 0 0
OS2TypoAscent: 2408
OS2TypoAOffset: 0
OS2TypoDescent: -647
OS2TypoDOffset: 0
OS2TypoLinegap: 0
OS2WinAscent: 2408
OS2WinAOffset: 0
OS2WinDescent: 674
OS2WinDOffset: 0
HheadAscent: 2408
HheadAOffset: 0
HheadDescent: -647
HheadDOffset: 0
OS2SubXSize: 1331
OS2SubYSize: 1433
OS2SubXOff: 0
OS2SubYOff: 286
OS2SupXSize: 1331
OS2SupYSize: 1433
OS2SupXOff: 0
OS2SupYOff: 983
OS2StrikeYSize: 102
OS2StrikeYPos: 530
OS2Vendor: 'newt'
OS2CodePages: 00000093.00000001
OS2UnicodeRanges: 000000ef.8000404f.00000002.00000000
Lookup: 258 0 0 "'kern' Horizontal Kerning in Latin lookup 0"  {"'kern' Horizontal Kerning in Latin lookup 0 subtable"  } ['kern' ('latn' <'dflt' > ) ]
DEI: 91125
LangName: 1033 "" "" "" "vernonadams: Anton: 2011-12" "" "Version 1.002" "" "Antonio is a trademark of vernon adams." "Vernon Adams" "http://code.newtypography.co.uk" "Copyright (c) 2011-12 by vernon adams. All rights reserved." "" "http://code.newtypography.co.uk" 
PickledData: "(dp1
S'com.typemytype.robofont.compileSettings.autohint'
p2
I0
sS'com.typemytype.robofont.compileSettings.decompose'
p3
I1
sS'com.typemytype.robofont.foreground.layerStrokeColor'
p4
(F0.5
F0
F0.5
F0.69999999999999996
tp5
sS'com.typemytype.robofont.guides'
p6
((dp7
S'angle'
p8
I0
sS'name'
p9
NsS'magnetic'
p10
I5
sS'isGlobal'
p11
I1
sS'y'
I1768
sS'x'
I538
s(dp12
g8
I0
sg9
Nsg10
I5
sg11
I1
sS'y'
I1374
sS'x'
I420
s(dp13
g8
I0
sg9
Nsg10
I5
sg11
I1
sS'y'
I119
sS'x'
I558
stp14

StartChar: .notdef
Encoding: 65536 -1 0
Width: 1024
VWidth: 0
Flags: W
PickledData: "(dp1
S'com.typemytype.robofont.layerData'
p2
(dp3
S'b'
(dp4
S'name'
p5
S'.notdef'
p6
sS'lib'
p7
(dp8
sS'unicodes'
p9
(tsS'width'
p10
I1024
sS'contours'
p11
(tsS'components'
p12
(tsS'anchors'
p13
(tsss."
LayerCount: 2
Fore
SplineSet
102 0 m 1
 922 0 l 1
 922 1092 l 1
 102 1092 l 1
 102 0 l 1
204 102 m 1
 204 990 l 1
 820 990 l 1
 820 102 l 1
 204 102 l 1
EndSplineSet
EndChar

StartChar: A
Encoding: 65 65 1
Width: 864
VWidth: 0
Flags: W
PickledData: "(dp1
S'com.typemytype.robofont.layerData'
p2
(dp3
S'b'
(dp4
S'name'
p5
S'A'
sS'lib'
p6
(dp7
sS'unicodes'
p8
(tsS'width'
p9
I864
sS'contours'
p10
((dp11
S'points'
p12
((dp13
S'segmentType'
p14
S'line'
p15
sS'x'
F80
sS'smooth'
p16
I00
sS'y'
F0
s(dp17
g14
S'line'
p18
sS'x'
F442
sg16
I00
sS'y'
F0
s(dp19
g14
S'line'
p20
sS'x'
F464
sg16
I00
sS'y'
F281
s(dp21
g14
S'line'
p22
sS'x'
F676
sg16
I00
sS'y'
F281
s(dp23
g14
S'line'
p24
sS'x'
F701
sg16
I00
sS'y'
F0
s(dp25
g14
S'line'
p26
sS'x'
F1047
sg16
I00
sS'y'
F0
s(dp27
g14
S'line'
p28
sS'x'
F837
sg16
I00
sS'y'
F1761
s(dp29
g14
S'line'
p30
sS'x'
F286
sg16
I00
sS'y'
F1761
stp31
s(dp32
g12
((dp33
g14
S'line'
p34
sS'x'
F489
sg16
I00
sS'y'
F565
s(dp35
g14
S'line'
p36
sS'x'
F562
sg16
I00
sS'y'
F1481
s(dp37
g14
S'line'
p38
sS'x'
F569
sg16
I00
sS'y'
F1481
s(dp39
g14
S'line'
p40
sS'x'
F649
sg16
I00
sS'y'
F565
stp41
stp42
sS'components'
p43
(tsS'anchors'
p44
(tsss."
LayerCount: 2
Fore
SplineSet
230 488 m 1
 631 488 l 1
 631 350 l 1
 230 350 l 1
 230 488 l 1
422 1447 m 1
 208 0 l 1
 48 0 l 1
 326 1761 l 1
 510 1761 l 1
 816 0 l 1
 655 0 l 1
 422 1447 l 1
EndSplineSet
EndChar

StartChar: AE
Encoding: 198 198 2
Width: 1370
VWidth: 0
Flags: W
PickledData: "(dp1
S'com.typemytype.robofont.layerData'
p2
(dp3
S'b'
(dp4
S'name'
p5
S'AE'
p6
sS'lib'
p7
(dp8
sS'unicodes'
p9
(tsS'width'
p10
I1370
sS'contours'
p11
(tsS'components'
p12
(tsS'anchors'
p13
(tsss."
LayerCount: 2
Fore
SplineSet
458 281 m 1
 657 281 l 1
 657 0 l 1
 1282 0 l 1
 1282 318 l 1
 1017 318 l 1
 1017 746 l 1
 1245 746 l 1
 1245 1065 l 1
 1017 1065 l 1
 1017 1440 l 1
 1259 1440 l 1
 1259 1761 l 1
 324 1761 l 1
 68 0 l 1
 420 0 l 1
 458 281 l 1
657 535 m 1
 488 535 l 1
 610 1440 l 1
 657 1440 l 1
 657 535 l 1
EndSplineSet
EndChar

StartChar: Aacute
Encoding: 193 193 3
Width: 1103
VWidth: 0
Flags: W
PickledData: "(dp1
S'com.typemytype.robofont.layerData'
p2
(dp3
S'b'
(dp4
S'name'
p5
S'Aacute'
p6
sS'lib'
p7
(dp8
sS'unicodes'
p9
(tsS'width'
p10
I1103
sS'contours'
p11
(tsS'components'
p12
(tsS'anchors'
p13
(tsss."
LayerCount: 2
Fore
SplineSet
314 1944 m 1
 789 2038 l 1
 789 2385 l 1
 314 2167 l 1
 314 1944 l 1
477 565 m 1
 550 1481 l 1
 557 1481 l 1
 637 565 l 1
 477 565 l 1
68 0 m 1
 430 0 l 1
 452 281 l 1
 664 281 l 1
 689 0 l 1
 1035 0 l 1
 825 1761 l 1
 274 1761 l 1
 68 0 l 1
EndSplineSet
EndChar

StartChar: Abreve
Encoding: 258 258 4
Width: 1103
VWidth: 0
Flags: W
PickledData: "(dp1
S'com.typemytype.robofont.layerData'
p2
(dp3
S'b'
(dp4
S'name'
p5
S'Abreve'
p6
sS'lib'
p7
(dp8
sS'unicodes'
p9
(tsS'width'
p10
I1103
sS'contours'
p11
(tsS'components'
p12
(tsS'anchors'
p13
(tsss."
LayerCount: 2
Fore
SplineSet
551.5 2134 m 0
 468.5 2134 416.5 2152 416.5 2277 c 1
 198.5 2277 l 1
 198.5 2262 l 2
 198.5 2045 315.5 1944 549.5 1944 c 0
 789.5 1944 904.5 2041 904.5 2264 c 2
 904.5 2277 l 1
 686.5 2277 l 1
 686.5 2152 634.5 2134 551.5 2134 c 0
477 565 m 1
 550 1481 l 1
 557 1481 l 1
 637 565 l 1
 477 565 l 1
68 0 m 1
 430 0 l 1
 452 281 l 1
 664 281 l 1
 689 0 l 1
 1035 0 l 1
 825 1761 l 1
 274 1761 l 1
 68 0 l 1
EndSplineSet
EndChar

StartChar: Acircumflex
Encoding: 194 194 5
Width: 1103
VWidth: 0
Flags: W
PickledData: "(dp1
S'com.typemytype.robofont.layerData'
p2
(dp3
S'b'
(dp4
S'name'
p5
S'Acircumflex'
p6
sS'lib'
p7
(dp8
sS'unicodes'
p9
(tsS'width'
p10
I1103
sS'contours'
p11
(tsS'components'
p12
(tsS'anchors'
p13
(tsss."
LayerCount: 2
Fore
SplineSet
755.5 2347 m 1
 347.5 2347 l 1
 106.5 1944 l 1
 465.5 1944 l 1
 551.5 2229 l 1
 637.5 1944 l 1
 996.5 1944 l 1
 755.5 2347 l 1
477 565 m 1
 550 1481 l 1
 557 1481 l 1
 637 565 l 1
 477 565 l 1
68 0 m 1
 430 0 l 1
 452 281 l 1
 664 281 l 1
 689 0 l 1
 1035 0 l 1
 825 1761 l 1
 274 1761 l 1
 68 0 l 1
EndSplineSet
EndChar

StartChar: Adieresis
Encoding: 196 196 6
Width: 1103
VWidth: 0
Flags: W
PickledData: "(dp1
S'com.typemytype.robofont.layerData'
p2
(dp3
S'b'
(dp4
S'name'
p5
S'Adieresis'
p6
sS'lib'
p7
(dp8
sS'unicodes'
p9
(tsS'width'
p10
I1103
sS'contours'
p11
(tsS'components'
p12
(tsS'anchors'
p13
(tsss."
LayerCount: 2
Fore
SplineSet
614.5 1944 m 1
 972.5 1944 l 1
 972.5 2242 l 1
 614.5 2242 l 1
 614.5 1944 l 1
130.5 1944 m 1
 488.5 1944 l 1
 488.5 2242 l 1
 130.5 2242 l 1
 130.5 1944 l 1
477 565 m 1
 550 1481 l 1
 557 1481 l 1
 637 565 l 1
 477 565 l 1
68 0 m 1
 430 0 l 1
 452 281 l 1
 664 281 l 1
 689 0 l 1
 1035 0 l 1
 825 1761 l 1
 274 1761 l 1
 68 0 l 1
EndSplineSet
EndChar

StartChar: Agrave
Encoding: 192 192 7
Width: 1103
VWidth: 0
Flags: W
PickledData: "(dp1
S'com.typemytype.robofont.layerData'
p2
(dp3
S'b'
(dp4
S'name'
p5
S'Agrave'
p6
sS'lib'
p7
(dp8
sS'unicodes'
p9
(tsS'width'
p10
I1103
sS'contours'
p11
(tsS'components'
p12
(tsS'anchors'
p13
(tsss."
LayerCount: 2
Fore
SplineSet
789 1944 m 1
 789 2167 l 1
 314 2385 l 1
 314 2038 l 1
 789 1944 l 1
477 565 m 1
 550 1481 l 1
 557 1481 l 1
 637 565 l 1
 477 565 l 1
68 0 m 1
 430 0 l 1
 452 281 l 1
 664 281 l 1
 689 0 l 1
 1035 0 l 1
 825 1761 l 1
 274 1761 l 1
 68 0 l 1
EndSplineSet
EndChar

StartChar: Amacron
Encoding: 256 256 8
Width: 1103
VWidth: 0
Flags: W
PickledData: "(dp1
S'com.typemytype.robofont.layerData'
p2
(dp3
S'b'
(dp4
S'name'
p5
S'Amacron'
p6
sS'lib'
p7
(dp8
sS'unicodes'
p9
(tsS'width'
p10
I1103
sS'contours'
p11
(tsS'components'
p12
(tsS'anchors'
p13
(tsss."
LayerCount: 2
Fore
SplineSet
809.5 2176 m 1
 293.5 2176 l 1
 293.5 1944 l 1
 809.5 1944 l 1
 809.5 2176 l 1
477 565 m 1
 550 1481 l 1
 557 1481 l 1
 637 565 l 1
 477 565 l 1
68 0 m 1
 430 0 l 1
 452 281 l 1
 664 281 l 1
 689 0 l 1
 1035 0 l 1
 825 1761 l 1
 274 1761 l 1
 68 0 l 1
EndSplineSet
EndChar

StartChar: Aogonek
Encoding: 260 260 9
Width: 1103
VWidth: 0
Flags: W
PickledData: "(dp1
S'com.typemytype.robofont.layerData'
p2
(dp3
S'b'
(dp4
S'name'
p5
S'Aogonek'
p6
sS'lib'
p7
(dp8
sS'unicodes'
p9
(tsS'width'
p10
I1103
sS'contours'
p11
(tsS'components'
p12
(tsS'anchors'
p13
(tsss."
LayerCount: 2
Fore
SplineSet
822.5 -278.1328125 m 0
 822.5 -168.1328125 898.5 -69.1328125 972.5 20.8671875 c 1
 831.5 20.8671875 l 1
 655.5 -78.1328125 577.5 -218.1328125 577.5 -339.1328125 c 0
 577.5 -513.1328125 694.5 -605.1328125 884.5 -605.1328125 c 0
 952.5 -605.1328125 1030.5 -583.1328125 1053.5 -570.1328125 c 1
 1053.5 -397.1328125 l 1
 1029.5 -402.1328125 1003.5 -405.1328125 978.5 -405.1328125 c 0
 898.5 -405.1328125 822.5 -375.1328125 822.5 -278.1328125 c 0
477 565 m 1
 550 1481 l 1
 557 1481 l 1
 637 565 l 1
 477 565 l 1
68 0 m 1
 430 0 l 1
 452 281 l 1
 664 281 l 1
 689 0 l 1
 1035 0 l 1
 825 1761 l 1
 274 1761 l 1
 68 0 l 1
EndSplineSet
EndChar

StartChar: Aring
Encoding: 197 197 10
Width: 1103
VWidth: 0
Flags: W
PickledData: "(dp1
S'com.typemytype.robofont.layerData'
p2
(dp3
S'b'
(dp4
S'name'
p5
S'Aring'
p6
sS'lib'
p7
(dp8
sS'unicodes'
p9
(tsS'width'
p10
I1103
sS'contours'
p11
(tsS'components'
p12
(tsS'anchors'
p13
(tsss."
LayerCount: 2
Fore
SplineSet
551 1880.33007812 m 0
 722 1880.33007812 834 1991.33007812 834 2160.33007812 c 0
 834 2329.33007812 722 2440.33007812 551 2440.33007812 c 0
 380 2440.33007812 269 2329.33007812 269 2160.33007812 c 0
 269 1990.33007812 380 1880.33007812 551 1880.33007812 c 0
552.26953125 2008.23730469 m 0
 461.666015625 2008.23730469 416.57421875 2084.19824219 416.57421875 2160.203125 c 0
 416.57421875 2236.29199219 461.766601562 2312.42285156 551.73046875 2312.42285156 c 0
 642.333984375 2312.42285156 687.42578125 2236.4609375 687.42578125 2160.45703125 c 0
 687.42578125 2084.36816406 642.233398438 2008.23730469 552.26953125 2008.23730469 c 0
477 565 m 1
 550 1481 l 1
 557 1481 l 1
 637 565 l 1
 477 565 l 1
68 0 m 1
 430 0 l 1
 452 281 l 1
 664 281 l 1
 689 0 l 1
 1035 0 l 1
 825 1761 l 1
 274 1761 l 1
 68 0 l 1
EndSplineSet
EndChar

StartChar: Atilde
Encoding: 195 195 11
Width: 1103
VWidth: 0
Flags: W
PickledData: "(dp1
S'com.typemytype.robofont.layerData'
p2
(dp3
S'b'
(dp4
S'name'
p5
S'Atilde'
p6
sS'lib'
p7
(dp8
sS'unicodes'
p9
(tsS'width'
p10
I1103
sS'contours'
p11
(tsS'components'
p12
(tsS'anchors'
p13
(tsss."
LayerCount: 2
Fore
SplineSet
715 1944 m 0
 823 1944 891 2001 911 2144 c 2
 920 2209 l 1
 749 2237 l 1
 728 2177 712 2169 693 2166 c 1
 689 2166 l 2
 639 2166 476 2240 395 2240 c 0
 287 2240 222 2157 183 2022 c 1
 342 1965 l 1
 360 2000 371 2019 393 2024 c 0
 400 2026 408 2026 416 2026 c 0
 499 2026 627 1944 715 1944 c 0
477 565 m 1
 550 1481 l 1
 557 1481 l 1
 637 565 l 1
 477 565 l 1
68 0 m 1
 430 0 l 1
 452 281 l 1
 664 281 l 1
 689 0 l 1
 1035 0 l 1
 825 1761 l 1
 274 1761 l 1
 68 0 l 1
EndSplineSet
EndChar

StartChar: B
Encoding: 66 66 12
Width: 867
VWidth: 0
Flags: W
PickledData: "(dp1
S'com.typemytype.robofont.layerData'
p2
(dp3
S'b'
(dp4
S'name'
p5
S'B'
sS'lib'
p6
(dp7
sS'unicodes'
p8
(tsS'width'
p9
F867
sS'contours'
p10
(tsS'components'
p11
(tsS'anchors'
p12
(tsss."
LayerCount: 2
Fore
SplineSet
448 0 m 2
 705 0 768 161 768 522 c 0
 768 718 740 895 623 949 c 1
 723 1010 743 1134 743 1337 c 0
 743 1640 691 1761 409 1761 c 2
 132 1761 l 1
 132 0 l 1
 448 0 l 2
300 1011 m 1
 300 1616 l 1
 409 1616 l 2
 531 1616 575 1584 575 1337 c 0
 575 1036 552 1011 429 1011 c 2
 300 1011 l 1
300 141 m 1
 300 878 l 1
 454 878 l 2
 576 878 600 780 600 533 c 2
 600 524 l 2
 600 223 571 141 448 141 c 2
 300 141 l 1
EndSplineSet
EndChar

StartChar: C
Encoding: 67 67 13
Width: 841
VWidth: 0
Flags: W
PickledData: "(dp1
S'com.typemytype.robofont.layerData'
p2
(dp3
S'b'
(dp4
S'name'
p5
S'C'
sS'lib'
p6
(dp7
sS'unicodes'
p8
(tsS'width'
p9
I841
sS'contours'
p10
((dp11
S'points'
p12
((dp13
S'segmentType'
p14
S'curve'
p15
sS'x'
F544
sS'smooth'
p16
I01
sS'y'
F294
s(dp17
S'y'
F294
sS'x'
F490
sg16
I00
s(dp18
S'y'
F339
sS'x'
F465
sg16
I00
s(dp19
g14
S'curve'
p20
sS'x'
F465
sg16
I01
sS'y'
F414
s(dp21
g14
S'line'
p22
sS'x'
F465
sg16
I01
sS'y'
F1326
s(dp23
S'y'
F1404
sS'x'
F465
sg16
I00
s(dp24
S'y'
F1466
sS'x'
F481
sg16
I00
s(dp25
g14
S'curve'
p26
sS'x'
F551
sg16
I01
sS'y'
F1466
s(dp27
S'y'
F1466
sS'x'
F607
sg16
I00
s(dp28
S'y'
F1429
sS'x'
F631
sg16
I00
s(dp29
g14
S'curve'
p30
sS'x'
F631
sg16
I01
sS'y'
F1324
s(dp31
g14
S'line'
p32
sS'x'
F631
sg16
I00
sS'y'
F1058
s(dp33
g14
S'line'
p34
sS'x'
F979
sg16
I00
sS'y'
F1058
s(dp35
g14
S'line'
p36
sS'x'
F979
sg16
I01
sS'y'
F1368
s(dp37
S'y'
F1645
sS'x'
F979
sg16
I00
s(dp38
S'y'
F1781
sS'x'
F797
sg16
I00
s(dp39
g14
S'curve'
p40
sS'x'
F547
sg16
I01
sS'y'
F1781
s(dp41
S'y'
F1781
sS'x'
F242
sg16
I00
s(dp42
S'y'
F1595
sS'x'
F105
sg16
I00
s(dp43
g14
S'curve'
p44
sS'x'
F105
sg16
I01
sS'y'
F1254
s(dp45
g14
S'line'
p46
sS'x'
F105
sg16
I01
sS'y'
F436
s(dp47
S'y'
F151
sS'x'
F105
sg16
I00
s(dp48
S'y'
F-21
sS'x'
F284
sg16
I00
s(dp49
g14
S'curve'
p50
sS'x'
F539
sg16
I01
sS'y'
F-21
s(dp51
S'y'
F-21
sS'x'
F819
sg16
I00
s(dp52
S'y'
F116
sS'x'
F987
sg16
I00
s(dp53
g14
S'curve'
p54
sS'x'
F987
sg16
I01
sS'y'
F425
s(dp55
g14
S'line'
p56
sS'x'
F987
sg16
I00
sS'y'
F758
s(dp57
g14
S'line'
p58
sS'x'
F631
sg16
I00
sS'y'
F758
s(dp59
g14
S'line'
p60
sS'x'
F631
sg16
I01
sS'y'
F420
s(dp61
S'y'
F341
sS'x'
F631
sg16
I00
s(dp62
S'y'
F294
sS'x'
F604
sg16
I00
stp63
stp64
sS'components'
p65
(tsS'anchors'
p66
(tsss."
LayerCount: 2
Fore
SplineSet
580 1084 m 1
 748 1084 l 1
 748 1251 l 2
 748 1554 721 1781 439 1781 c 0
 157 1781 110 1554 110 1251 c 2
 110 540 l 2
 110 177 175 -21 433 -21 c 0
 691 -21 748 177 748 540 c 2
 748 698 l 1
 580 698 l 1
 580 539 l 2
 580 238 556 120 433 120 c 0
 304 120 278 237 278 539 c 2
 278 1264 l 2
 278 1509 311 1636 439 1636 c 0
 561 1636 580 1510 580 1263 c 2
 580 1084 l 1
EndSplineSet
EndChar

StartChar: Cacute
Encoding: 262 262 14
Width: 1076
VWidth: 0
Flags: W
PickledData: "(dp1
S'com.typemytype.robofont.layerData'
p2
(dp3
S'b'
(dp4
S'name'
p5
S'Cacute'
p6
sS'lib'
p7
(dp8
sS'unicodes'
p9
(tsS'width'
p10
I1076
sS'contours'
p11
(tsS'components'
p12
(tsS'anchors'
p13
(tsss."
LayerCount: 2
Fore
SplineSet
308.5 1944 m 1
 783.5 2038 l 1
 783.5 2385 l 1
 308.5 2167 l 1
 308.5 1944 l 1
544 294 m 0
 490 294 465 339 465 414 c 2
 465 1326 l 2
 465 1404 481 1466 551 1466 c 0
 607 1466 631 1429 631 1324 c 2
 631 1058 l 1
 979 1058 l 1
 979 1368 l 2
 979 1645 797 1781 547 1781 c 0
 242 1781 105 1595 105 1254 c 2
 105 436 l 2
 105 151 284 -21 539 -21 c 0
 819 -21 987 116 987 425 c 2
 987 758 l 1
 631 758 l 1
 631 420 l 2
 631 341 604 294 544 294 c 0
EndSplineSet
EndChar

StartChar: Ccaron
Encoding: 268 268 15
Width: 1076
VWidth: 0
Flags: W
PickledData: "(dp1
S'com.typemytype.robofont.layerData'
p2
(dp3
S'b'
(dp4
S'name'
p5
S'Ccaron'
p6
sS'lib'
p7
(dp8
sS'unicodes'
p9
(tsS'width'
p10
I1076
sS'contours'
p11
(tsS'components'
p12
(tsS'anchors'
p13
(tsss."
LayerCount: 2
Fore
SplineSet
750 1944 m 1
 991 2347 l 1
 632 2347 l 1
 546 2062 l 1
 460 2347 l 1
 101 2347 l 1
 342 1944 l 1
 750 1944 l 1
544 294 m 0
 490 294 465 339 465 414 c 2
 465 1326 l 2
 465 1404 481 1466 551 1466 c 0
 607 1466 631 1429 631 1324 c 2
 631 1058 l 1
 979 1058 l 1
 979 1368 l 2
 979 1645 797 1781 547 1781 c 0
 242 1781 105 1595 105 1254 c 2
 105 436 l 2
 105 151 284 -21 539 -21 c 0
 819 -21 987 116 987 425 c 2
 987 758 l 1
 631 758 l 1
 631 420 l 2
 631 341 604 294 544 294 c 0
EndSplineSet
EndChar

StartChar: Ccedilla
Encoding: 199 199 16
Width: 1076
VWidth: 0
Flags: W
PickledData: "(dp1
S'com.typemytype.robofont.layerData'
p2
(dp3
S'b'
(dp4
S'name'
p5
S'Ccedilla'
p6
sS'lib'
p7
(dp8
sS'unicodes'
p9
(tsS'width'
p10
I1076
sS'contours'
p11
(tsS'components'
p12
(tsS'anchors'
p13
(tsss."
LayerCount: 2
Fore
SplineSet
582.5 -669.633789062 m 0
 784.967773438 -669.633789062 882.13671875 -544.073242188 882.13671875 -409.908203125 c 0
 882.13671875 -282.572265625 784.608398438 -177.485351562 616.5 -134.633789062 c 1
 596.5 1.3662109375 l 1
 495.5 1.3662109375 l 1
 455.5 -194.633789062 l 1
 537.5 -212.633789062 615.5 -267.633789062 615.5 -357.633789062 c 0
 615.5 -432.633789062 573.5 -499.633789062 384.5 -499.633789062 c 1
 384.5 -629.633789062 l 1
 448.5 -656.633789062 514.5 -669.633789062 582.5 -669.633789062 c 0
544 294 m 0
 490 294 465 339 465 414 c 2
 465 1326 l 2
 465 1404 481 1466 551 1466 c 0
 607 1466 631 1429 631 1324 c 2
 631 1058 l 1
 979 1058 l 1
 979 1368 l 2
 979 1645 797 1781 547 1781 c 0
 242 1781 105 1595 105 1254 c 2
 105 436 l 2
 105 151 284 -21 539 -21 c 0
 819 -21 987 116 987 425 c 2
 987 758 l 1
 631 758 l 1
 631 420 l 2
 631 341 604 294 544 294 c 0
EndSplineSet
EndChar

StartChar: Ccircumflex
Encoding: 264 264 17
Width: 1076
VWidth: 0
Flags: W
PickledData: "(dp1
S'com.typemytype.robofont.layerData'
p2
(dp3
S'b'
(dp4
S'name'
p5
S'Ccircumflex'
p6
sS'lib'
p7
(dp8
sS'unicodes'
p9
(tsS'width'
p10
I1076
sS'contours'
p11
(tsS'components'
p12
(tsS'anchors'
p13
(tsss."
LayerCount: 2
Fore
SplineSet
750 2347 m 1
 342 2347 l 1
 101 1944 l 1
 460 1944 l 1
 546 2229 l 1
 632 1944 l 1
 991 1944 l 1
 750 2347 l 1
544 294 m 0
 490 294 465 339 465 414 c 2
 465 1326 l 2
 465 1404 481 1466 551 1466 c 0
 607 1466 631 1429 631 1324 c 2
 631 1058 l 1
 979 1058 l 1
 979 1368 l 2
 979 1645 797 1781 547 1781 c 0
 242 1781 105 1595 105 1254 c 2
 105 436 l 2
 105 151 284 -21 539 -21 c 0
 819 -21 987 116 987 425 c 2
 987 758 l 1
 631 758 l 1
 631 420 l 2
 631 341 604 294 544 294 c 0
EndSplineSet
EndChar

StartChar: Cdotaccent
Encoding: 266 266 18
Width: 1076
VWidth: 0
Flags: W
PickledData: "(dp1
S'com.typemytype.robofont.layerData'
p2
(dp3
S'b'
(dp4
S'name'
p5
S'Cdotaccent'
p6
sS'lib'
p7
(dp8
sS'unicodes'
p9
(tsS'width'
p10
I1076
sS'contours'
p11
(tsS'components'
p12
(tsS'anchors'
p13
(tsss."
LayerCount: 2
Fore
SplineSet
367 1944 m 1
 725 1944 l 1
 725 2242 l 1
 367 2242 l 1
 367 1944 l 1
544 294 m 0
 490 294 465 339 465 414 c 2
 465 1326 l 2
 465 1404 481 1466 551 1466 c 0
 607 1466 631 1429 631 1324 c 2
 631 1058 l 1
 979 1058 l 1
 979 1368 l 2
 979 1645 797 1781 547 1781 c 0
 242 1781 105 1595 105 1254 c 2
 105 436 l 2
 105 151 284 -21 539 -21 c 0
 819 -21 987 116 987 425 c 2
 987 758 l 1
 631 758 l 1
 631 420 l 2
 631 341 604 294 544 294 c 0
EndSplineSet
EndChar

StartChar: D
Encoding: 68 68 19
Width: 878
VWidth: 0
Flags: W
PickledData: "(dp1
S'com.typemytype.robofont.layerData'
p2
(dp3
S'b'
(dp4
S'name'
p5
S'D'
sS'lib'
p6
(dp7
sS'unicodes'
p8
(tsS'width'
p9
I878
sS'contours'
p10
(tsS'components'
p11
(tsS'anchors'
p12
(tsss."
LayerCount: 2
Fore
SplineSet
300 141 m 1
 300 1623 l 1
 454 1623 l 2
 576 1623 600 1510 600 1263 c 2
 600 539 l 2
 600 238 571 141 448 141 c 2
 300 141 l 1
448 0 m 2
 706 0 768 177 768 540 c 2
 768 1251 l 2
 768 1554 736 1768 454 1768 c 2
 132 1768 l 1
 132 0 l 1
 448 0 l 2
EndSplineSet
EndChar

StartChar: Dcaron
Encoding: 270 270 20
Width: 1109
VWidth: 0
Flags: W
PickledData: "(dp1
S'com.typemytype.robofont.layerData'
p2
(dp3
S'b'
(dp4
S'name'
p5
S'Dcaron'
p6
sS'lib'
p7
(dp8
sS'unicodes'
p9
(tsS'width'
p10
I1109
sS'contours'
p11
(tsS'components'
p12
(tsS'anchors'
p13
(tsss."
LayerCount: 2
Fore
SplineSet
767 1944 m 1
 1008 2347 l 1
 649 2347 l 1
 563 2062 l 1
 477 2347 l 1
 118 2347 l 1
 359 1944 l 1
 767 1944 l 1
644 364 m 2
 644 301 610 270 543 270 c 2
 482 270 l 1
 482 1490 l 1
 521 1490 l 2
 621 1490 644 1440 644 1323 c 2
 644 364 l 2
1004 1347 m 2
 1004 1617 866 1761 613 1761 c 2
 122 1761 l 1
 122 0 l 1
 601 0 l 2
 893 0 1004 189 1004 522 c 2
 1004 1347 l 2
EndSplineSet
EndChar

StartChar: Dcroat
Encoding: 272 272 21
Width: 1109
VWidth: 0
Flags: W
PickledData: "(dp1
S'com.typemytype.robofont.layerData'
p2
(dp3
S'b'
(dp4
S'name'
p5
S'Dcroat'
p6
sS'lib'
p7
(dp8
sS'unicodes'
p9
(tsS'width'
p10
I1109
sS'contours'
p11
(tsS'components'
p12
(tsS'anchors'
p13
(tsss."
LayerCount: 2
Fore
SplineSet
122 0 m 1
 601 0 l 2
 893 0 1004 189 1004 522 c 2
 1004 1347 l 2
 1004 1617 866 1761 613 1761 c 2
 122 1761 l 1
 122 1018 l 1
 25 1018 l 1
 25 815 l 1
 122 815 l 1
 122 0 l 1
543 270 m 2
 482 270 l 1
 482 815 l 1
 573 815 l 1
 573 1018 l 1
 482 1018 l 1
 482 1490 l 1
 521 1490 l 2
 621 1490 644 1440 644 1323 c 2
 644 364 l 2
 644 301 610 270 543 270 c 2
EndSplineSet
EndChar

StartChar: Delta
Encoding: 8710 8710 22
Width: 921
VWidth: 0
Flags: W
PickledData: "(dp1
S'com.typemytype.robofont.layerData'
p2
(dp3
S'b'
(dp4
S'name'
p5
S'Delta'
p6
sS'lib'
p7
(dp8
sS'unicodes'
p9
(tsS'width'
p10
I921
sS'contours'
p11
(tsS'components'
p12
(tsS'anchors'
p13
(tsss."
LayerCount: 2
Fore
SplineSet
376 230 m 1
 443 1044 l 1
 475 1044 l 1
 542 230 l 1
 376 230 l 1
34 0 m 1
 887 0 l 1
 708 1353 l 1
 217 1353 l 1
 34 0 l 1
EndSplineSet
EndChar

StartChar: E
Encoding: 69 69 23
Width: 686
VWidth: 0
Flags: W
PickledData: "(dp1
S'com.typemytype.robofont.layerData'
p2
(dp3
S'b'
(dp4
S'name'
p5
S'E'
sS'lib'
p6
(dp7
sS'unicodes'
p8
(tsS'width'
p9
I686
sS'contours'
p10
((dp11
S'points'
p12
((dp13
S'segmentType'
p14
S'line'
p15
sS'x'
F726
sS'smooth'
p16
I00
sS'y'
F318
s(dp17
g14
S'line'
p18
sS'x'
F402
sg16
I00
sS'y'
F318
s(dp19
g14
S'line'
p20
sS'x'
F402
sg16
I00
sS'y'
F746
s(dp21
g14
S'line'
p22
sS'x'
F689
sg16
I00
sS'y'
F746
s(dp23
g14
S'line'
p24
sS'x'
F689
sg16
I00
sS'y'
F1065
s(dp25
g14
S'line'
p26
sS'x'
F402
sg16
I00
sS'y'
F1065
s(dp27
g14
S'line'
p28
sS'x'
F402
sg16
I00
sS'y'
F1440
s(dp29
g14
S'line'
p30
sS'x'
F703
sg16
I00
sS'y'
F1440
s(dp31
g14
S'line'
p32
sS'x'
F703
sg16
I00
sS'y'
F1761
s(dp33
g14
S'line'
p34
sS'x'
F42
sg16
I00
sS'y'
F1761
s(dp35
g14
S'line'
p36
sS'x'
F42
sg16
I00
sS'y'
F0
s(dp37
g14
S'line'
p38
sS'x'
F726
sg16
I00
sS'y'
F0
stp39
stp40
sS'components'
p41
(tsS'anchors'
p42
(tsss."
LayerCount: 2
Fore
SplineSet
198 961 m 1
 599 961 l 1
 599 823 l 1
 198 823 l 1
 198 961 l 1
204 136 m 1
 617 136 l 1
 617 0 l 1
 204 0 l 1
 204 136 l 1
300 1761 m 1
 300 0 l 1
 132 0 l 1
 132 1761 l 1
 300 1761 l 1
204 1761 m 1
 617 1761 l 1
 617 1625 l 1
 204 1625 l 1
 204 1761 l 1
EndSplineSet
EndChar

StartChar: Eacute
Encoding: 201 201 24
Width: 894
VWidth: 0
Flags: W
PickledData: "(dp1
S'com.typemytype.robofont.layerData'
p2
(dp3
S'b'
(dp4
S'name'
p5
S'Eacute'
p6
sS'lib'
p7
(dp8
sS'unicodes'
p9
(tsS'width'
p10
I894
sS'contours'
p11
(tsS'components'
p12
(tsS'anchors'
p13
(tsss."
LayerCount: 2
Fore
SplineSet
226.5 1944 m 1
 701.5 2038 l 1
 701.5 2385 l 1
 226.5 2167 l 1
 226.5 1944 l 1
806 318 m 1
 482 318 l 1
 482 746 l 1
 769 746 l 1
 769 1065 l 1
 482 1065 l 1
 482 1440 l 1
 783 1440 l 1
 783 1761 l 1
 122 1761 l 1
 122 0 l 1
 806 0 l 1
 806 318 l 1
EndSplineSet
EndChar

StartChar: Ebreve
Encoding: 276 276 25
Width: 894
VWidth: 0
Flags: W
PickledData: "(dp1
S'com.typemytype.robofont.layerData'
p2
(dp3
S'b'
(dp4
S'name'
p5
S'Ebreve'
p6
sS'lib'
p7
(dp8
sS'unicodes'
p9
(tsS'width'
p10
I894
sS'contours'
p11
(tsS'components'
p12
(tsS'anchors'
p13
(tsss."
LayerCount: 2
Fore
SplineSet
464 2134 m 0
 381 2134 329 2152 329 2277 c 1
 111 2277 l 1
 111 2262 l 2
 111 2045 228 1944 462 1944 c 0
 702 1944 817 2041 817 2264 c 2
 817 2277 l 1
 599 2277 l 1
 599 2152 547 2134 464 2134 c 0
806 318 m 1
 482 318 l 1
 482 746 l 1
 769 746 l 1
 769 1065 l 1
 482 1065 l 1
 482 1440 l 1
 783 1440 l 1
 783 1761 l 1
 122 1761 l 1
 122 0 l 1
 806 0 l 1
 806 318 l 1
EndSplineSet
EndChar

StartChar: Ecaron
Encoding: 282 282 26
Width: 894
VWidth: 0
Flags: W
PickledData: "(dp1
S'com.typemytype.robofont.layerData'
p2
(dp3
S'b'
(dp4
S'name'
p5
S'Ecaron'
p6
sS'lib'
p7
(dp8
sS'unicodes'
p9
(tsS'width'
p10
I894
sS'contours'
p11
(tsS'components'
p12
(tsS'anchors'
p13
(tsss."
LayerCount: 2
Fore
SplineSet
668 1944 m 1
 909 2347 l 1
 550 2347 l 1
 464 2062 l 1
 378 2347 l 1
 19 2347 l 1
 260 1944 l 1
 668 1944 l 1
806 318 m 1
 482 318 l 1
 482 746 l 1
 769 746 l 1
 769 1065 l 1
 482 1065 l 1
 482 1440 l 1
 783 1440 l 1
 783 1761 l 1
 122 1761 l 1
 122 0 l 1
 806 0 l 1
 806 318 l 1
EndSplineSet
EndChar

StartChar: Ecircumflex
Encoding: 202 202 27
Width: 894
VWidth: 0
Flags: W
PickledData: "(dp1
S'com.typemytype.robofont.layerData'
p2
(dp3
S'b'
(dp4
S'name'
p5
S'Ecircumflex'
p6
sS'lib'
p7
(dp8
sS'unicodes'
p9
(tsS'width'
p10
I894
sS'contours'
p11
(tsS'components'
p12
(tsS'anchors'
p13
(tsss."
LayerCount: 2
Fore
SplineSet
668 2347 m 1
 260 2347 l 1
 19 1944 l 1
 378 1944 l 1
 464 2229 l 1
 550 1944 l 1
 909 1944 l 1
 668 2347 l 1
806 318 m 1
 482 318 l 1
 482 746 l 1
 769 746 l 1
 769 1065 l 1
 482 1065 l 1
 482 1440 l 1
 783 1440 l 1
 783 1761 l 1
 122 1761 l 1
 122 0 l 1
 806 0 l 1
 806 318 l 1
EndSplineSet
EndChar

StartChar: Edieresis
Encoding: 203 203 28
Width: 894
VWidth: 0
Flags: W
PickledData: "(dp1
S'com.typemytype.robofont.layerData'
p2
(dp3
S'b'
(dp4
S'name'
p5
S'Edieresis'
p6
sS'lib'
p7
(dp8
sS'unicodes'
p9
(tsS'width'
p10
I894
sS'contours'
p11
(tsS'components'
p12
(tsS'anchors'
p13
(tsss."
LayerCount: 2
Fore
SplineSet
527 1944 m 1
 885 1944 l 1
 885 2242 l 1
 527 2242 l 1
 527 1944 l 1
43 1944 m 1
 401 1944 l 1
 401 2242 l 1
 43 2242 l 1
 43 1944 l 1
806 318 m 1
 482 318 l 1
 482 746 l 1
 769 746 l 1
 769 1065 l 1
 482 1065 l 1
 482 1440 l 1
 783 1440 l 1
 783 1761 l 1
 122 1761 l 1
 122 0 l 1
 806 0 l 1
 806 318 l 1
EndSplineSet
EndChar

StartChar: Edotaccent
Encoding: 278 278 29
Width: 894
VWidth: 0
Flags: W
PickledData: "(dp1
S'com.typemytype.robofont.layerData'
p2
(dp3
S'b'
(dp4
S'name'
p5
S'Edotaccent'
p6
sS'lib'
p7
(dp8
sS'unicodes'
p9
(tsS'width'
p10
I894
sS'contours'
p11
(tsS'components'
p12
(tsS'anchors'
p13
(tsss."
LayerCount: 2
Fore
SplineSet
285 1944 m 1
 643 1944 l 1
 643 2242 l 1
 285 2242 l 1
 285 1944 l 1
806 318 m 1
 482 318 l 1
 482 746 l 1
 769 746 l 1
 769 1065 l 1
 482 1065 l 1
 482 1440 l 1
 783 1440 l 1
 783 1761 l 1
 122 1761 l 1
 122 0 l 1
 806 0 l 1
 806 318 l 1
EndSplineSet
EndChar

StartChar: Egrave
Encoding: 200 200 30
Width: 894
VWidth: 0
Flags: W
PickledData: "(dp1
S'com.typemytype.robofont.layerData'
p2
(dp3
S'b'
(dp4
S'name'
p5
S'Egrave'
p6
sS'lib'
p7
(dp8
sS'unicodes'
p9
(tsS'width'
p10
I894
sS'contours'
p11
(tsS'components'
p12
(tsS'anchors'
p13
(tsss."
LayerCount: 2
Fore
SplineSet
701.5 1944 m 1
 701.5 2167 l 1
 226.5 2385 l 1
 226.5 2038 l 1
 701.5 1944 l 1
806 318 m 1
 482 318 l 1
 482 746 l 1
 769 746 l 1
 769 1065 l 1
 482 1065 l 1
 482 1440 l 1
 783 1440 l 1
 783 1761 l 1
 122 1761 l 1
 122 0 l 1
 806 0 l 1
 806 318 l 1
EndSplineSet
EndChar

StartChar: Emacron
Encoding: 274 274 31
Width: 894
VWidth: 0
Flags: W
PickledData: "(dp1
S'com.typemytype.robofont.layerData'
p2
(dp3
S'b'
(dp4
S'name'
p5
S'Emacron'
p6
sS'lib'
p7
(dp8
sS'unicodes'
p9
(tsS'width'
p10
I894
sS'contours'
p11
(tsS'components'
p12
(tsS'anchors'
p13
(tsss."
LayerCount: 2
Fore
SplineSet
722 2176 m 1
 206 2176 l 1
 206 1944 l 1
 722 1944 l 1
 722 2176 l 1
806 318 m 1
 482 318 l 1
 482 746 l 1
 769 746 l 1
 769 1065 l 1
 482 1065 l 1
 482 1440 l 1
 783 1440 l 1
 783 1761 l 1
 122 1761 l 1
 122 0 l 1
 806 0 l 1
 806 318 l 1
EndSplineSet
EndChar

StartChar: Eogonek
Encoding: 280 280 32
Width: 894
VWidth: 0
Flags: W
PickledData: "(dp1
S'com.typemytype.robofont.layerData'
p2
(dp3
S'b'
(dp4
S'name'
p5
S'Eogonek'
p6
sS'lib'
p7
(dp8
sS'unicodes'
p9
(tsS'width'
p10
I894
sS'contours'
p11
(tsS'components'
p12
(tsS'anchors'
p13
(tsss."
LayerCount: 2
Fore
SplineSet
455 -278.1328125 m 0
 455 -168.1328125 531 -69.1328125 605 20.8671875 c 1
 464 20.8671875 l 1
 288 -78.1328125 210 -218.1328125 210 -339.1328125 c 0
 210 -513.1328125 327 -605.1328125 517 -605.1328125 c 0
 585 -605.1328125 663 -583.1328125 686 -570.1328125 c 1
 686 -397.1328125 l 1
 662 -402.1328125 636 -405.1328125 611 -405.1328125 c 0
 531 -405.1328125 455 -375.1328125 455 -278.1328125 c 0
806 318 m 1
 482 318 l 1
 482 746 l 1
 769 746 l 1
 769 1065 l 1
 482 1065 l 1
 482 1440 l 1
 783 1440 l 1
 783 1761 l 1
 122 1761 l 1
 122 0 l 1
 806 0 l 1
 806 318 l 1
EndSplineSet
EndChar

StartChar: Eth
Encoding: 208 208 33
Width: 1109
VWidth: 0
Flags: W
PickledData: "(dp1
S'com.typemytype.robofont.layerData'
p2
(dp3
S'b'
(dp4
S'name'
p5
S'Eth'
p6
sS'lib'
p7
(dp8
sS'unicodes'
p9
(tsS'width'
p10
I1109
sS'contours'
p11
(tsS'components'
p12
(tsS'anchors'
p13
(tsss."
LayerCount: 2
Fore
SplineSet
122 0 m 1
 601 0 l 2
 893 0 1004 189 1004 522 c 2
 1004 1347 l 2
 1004 1617 866 1761 613 1761 c 2
 122 1761 l 1
 122 1018 l 1
 25 1018 l 1
 25 815 l 1
 122 815 l 1
 122 0 l 1
543 270 m 2
 482 270 l 1
 482 815 l 1
 573 815 l 1
 573 1018 l 1
 482 1018 l 1
 482 1490 l 1
 521 1490 l 2
 621 1490 644 1440 644 1323 c 2
 644 364 l 2
 644 301 610 270 543 270 c 2
EndSplineSet
EndChar

StartChar: Euro
Encoding: 8364 8364 34
Width: 1076
VWidth: 0
Flags: W
PickledData: "(dp1
S'com.typemytype.robofont.layerData'
p2
(dp3
S'b'
(dp4
S'name'
p5
S'Euro'
p6
sS'lib'
p7
(dp8
sS'unicodes'
p9
(tsS'width'
p10
I1076
sS'contours'
p11
(tsS'components'
p12
(tsS'anchors'
p13
(tsss."
LayerCount: 2
Fore
SplineSet
544 294 m 0
 490 294 474 339 474 414 c 2
 474 721 l 1
 838 721 l 1
 838 869 l 1
 474 869 l 1
 474 966 l 1
 838 966 l 1
 838 1106 l 1
 474 1106 l 1
 474 1326 l 2
 474 1404 482 1466 551 1466 c 0
 607 1466 631 1429 631 1324 c 2
 631 1231 l 1
 979 1231 l 1
 979 1368 l 2
 979 1645 797 1781 547 1781 c 0
 242 1781 114 1595 114 1254 c 2
 114 1106 l 1
 23 1106 l 1
 23 966 l 1
 114 966 l 1
 114 869 l 1
 23 869 l 1
 23 721 l 1
 114 721 l 1
 114 436 l 2
 114 151 284 -21 539 -21 c 0
 819 -21 987 116 987 425 c 2
 987 548 l 1
 631 548 l 1
 631 420 l 2
 631 341 604 294 544 294 c 0
EndSplineSet
EndChar

StartChar: F
Encoding: 70 70 35
Width: 686
VWidth: 0
Flags: W
PickledData: "(dp1
S'com.typemytype.robofont.layerData'
p2
(dp3
S'b'
(dp4
S'name'
p5
S'E'
sS'lib'
p6
(dp7
sS'unicodes'
p8
(tsS'width'
p9
I686
sS'contours'
p10
((dp11
S'points'
p12
((dp13
S'segmentType'
p14
S'line'
p15
sS'x'
F726
sS'smooth'
p16
I00
sS'y'
F318
s(dp17
g14
S'line'
p18
sS'x'
F402
sg16
I00
sS'y'
F318
s(dp19
g14
S'line'
p20
sS'x'
F402
sg16
I00
sS'y'
F746
s(dp21
g14
S'line'
p22
sS'x'
F689
sg16
I00
sS'y'
F746
s(dp23
g14
S'line'
p24
sS'x'
F689
sg16
I00
sS'y'
F1065
s(dp25
g14
S'line'
p26
sS'x'
F402
sg16
I00
sS'y'
F1065
s(dp27
g14
S'line'
p28
sS'x'
F402
sg16
I00
sS'y'
F1440
s(dp29
g14
S'line'
p30
sS'x'
F703
sg16
I00
sS'y'
F1440
s(dp31
g14
S'line'
p32
sS'x'
F703
sg16
I00
sS'y'
F1761
s(dp33
g14
S'line'
p34
sS'x'
F42
sg16
I00
sS'y'
F1761
s(dp35
g14
S'line'
p36
sS'x'
F42
sg16
I00
sS'y'
F0
s(dp37
g14
S'line'
p38
sS'x'
F726
sg16
I00
sS'y'
F0
stp39
stp40
sS'components'
p41
(tsS'anchors'
p42
(tsss."
LayerCount: 2
Fore
SplineSet
198 953 m 1
 599 953 l 1
 599 815 l 1
 198 815 l 1
 198 953 l 1
300 1761 m 1
 300 0 l 1
 132 0 l 1
 132 1761 l 1
 300 1761 l 1
204 1761 m 1
 617 1761 l 1
 617 1625 l 1
 204 1625 l 1
 204 1761 l 1
EndSplineSet
EndChar

StartChar: G
Encoding: 71 71 36
Width: 845
VWidth: 0
Flags: W
PickledData: "(dp1
S'com.typemytype.robofont.layerData'
p2
(dp3
S'b'
(dp4
S'name'
p5
S'G'
sS'lib'
p6
(dp7
sS'unicodes'
p8
(tsS'width'
p9
F845.88888888899999
sS'contours'
p10
((dp11
S'points'
p12
((dp13
S'segmentType'
p14
S'curve'
p15
sS'x'
F544
sS'smooth'
p16
I01
sS'y'
F294
s(dp17
S'y'
F294
sS'x'
F490
sg16
I00
s(dp18
S'y'
F339
sS'x'
F465
sg16
I00
s(dp19
g14
S'curve'
p20
sS'x'
F465
sg16
I01
sS'y'
F414
s(dp21
g14
S'line'
p22
sS'x'
F465
sg16
I01
sS'y'
F1326
s(dp23
S'y'
F1404
sS'x'
F465
sg16
I00
s(dp24
S'y'
F1466
sS'x'
F481
sg16
I00
s(dp25
g14
S'curve'
p26
sS'x'
F551
sg16
I01
sS'y'
F1466
s(dp27
S'y'
F1466
sS'x'
F607
sg16
I00
s(dp28
S'y'
F1429
sS'x'
F631
sg16
I00
s(dp29
g14
S'curve'
p30
sS'x'
F631
sg16
I01
sS'y'
F1324
s(dp31
g14
S'line'
p32
sS'x'
F631
sg16
I00
sS'y'
F1058
s(dp33
g14
S'line'
p34
sS'x'
F979
sg16
I00
sS'y'
F1058
s(dp35
g14
S'line'
p36
sS'x'
F979
sg16
I01
sS'y'
F1368
s(dp37
S'y'
F1645
sS'x'
F979
sg16
I00
s(dp38
S'y'
F1781
sS'x'
F797
sg16
I00
s(dp39
g14
S'curve'
p40
sS'x'
F547
sg16
I01
sS'y'
F1781
s(dp41
S'y'
F1781
sS'x'
F242
sg16
I00
s(dp42
S'y'
F1595
sS'x'
F105
sg16
I00
s(dp43
g14
S'curve'
p44
sS'x'
F105
sg16
I01
sS'y'
F1254
s(dp45
g14
S'line'
p46
sS'x'
F105
sg16
I01
sS'y'
F436
s(dp47
S'y'
F151
sS'x'
F105
sg16
I00
s(dp48
S'y'
F-21
sS'x'
F284
sg16
I00
s(dp49
g14
S'curve'
p50
sS'x'
F539
sg16
I01
sS'y'
F-21
s(dp51
S'y'
F-21
sS'x'
F819
sg16
I00
s(dp52
S'y'
F116
sS'x'
F987
sg16
I00
s(dp53
g14
S'curve'
p54
sS'x'
F987
sg16
I01
sS'y'
F425
s(dp55
g14
S'line'
p56
sS'x'
F987
sg16
I00
sS'y'
F758
s(dp57
g14
S'line'
p58
sS'x'
F631
sg16
I00
sS'y'
F758
s(dp59
g14
S'line'
p60
sS'x'
F631
sg16
I01
sS'y'
F420
s(dp61
S'y'
F341
sS'x'
F631
sg16
I00
s(dp62
S'y'
F294
sS'x'
F604
sg16
I00
stp63
stp64
sS'components'
p65
(tsS'anchors'
p66
(tsss."
LayerCount: 2
Fore
SplineSet
438 901 m 1
 438 763 l 1
 748 763 l 1
 748 901 l 1
 438 901 l 1
580 1107 m 1
 748 1107 l 1
 748 1251 l 2
 748 1554 724 1781 442 1781 c 0
 160 1781 110 1554 110 1251 c 2
 110 529 l 2
 110 139 205 -16 404 -16 c 0
 670 -16 678 235 748 697 c 0
 750 711 748 723 748 730 c 2
 748 818 l 1
 586 818 l 1
 586 539 l 2
 586 238 556 120 433 120 c 0
 304 120 278 237 278 539 c 2
 278 1264 l 2
 278 1509 311 1636 439 1636 c 0
 561 1636 580 1510 580 1263 c 2
 580 1107 l 1
748 750 m 1
 616 170 l 1
 646 0 l 1
 748 0 l 1
 748 750 l 1
EndSplineSet
EndChar

StartChar: Gbreve
Encoding: 286 286 37
Width: 1108
VWidth: 0
Flags: W
PickledData: "(dp1
S'com.typemytype.robofont.layerData'
p2
(dp3
S'b'
(dp4
S'name'
p5
S'Gbreve'
p6
sS'lib'
p7
(dp8
sS'unicodes'
p9
(tsS'width'
p10
I1108
sS'contours'
p11
(tsS'components'
p12
(tsS'anchors'
p13
(tsss."
LayerCount: 2
Fore
SplineSet
551.5 2134 m 0
 468.5 2134 416.5 2152 416.5 2277 c 1
 198.5 2277 l 1
 198.5 2262 l 2
 198.5 2045 315.5 1944 549.5 1944 c 0
 789.5 1944 904.5 2041 904.5 2264 c 2
 904.5 2277 l 1
 686.5 2277 l 1
 686.5 2152 634.5 2134 551.5 2134 c 0
564 294 m 0
 482 294 465 355 465 501 c 2
 465 1288 l 2
 465 1416 496 1466 576 1466 c 0
 641 1466 672 1434 672 1295 c 2
 672 1181 l 1
 998 1181 l 1
 998 1288 l 2
 998 1625 899 1781 566 1781 c 0
 278 1781 105 1621 105 1296 c 2
 105 502 l 2
 105 139 248 -21 502 -21 c 0
 633 -21 755 34 801 198 c 1
 861 0 l 1
 998 0 l 1
 998 1039 l 1
 566 1039 l 1
 566 741 l 1
 676 741 l 1
 676 505 l 2
 676 341 645 294 564 294 c 0
EndSplineSet
EndChar

StartChar: Gcircumflex
Encoding: 284 284 38
Width: 1108
VWidth: 0
Flags: W
PickledData: "(dp1
S'com.typemytype.robofont.layerData'
p2
(dp3
S'b'
(dp4
S'name'
p5
S'Gcircumflex'
p6
sS'lib'
p7
(dp8
sS'unicodes'
p9
(tsS'width'
p10
I1108
sS'contours'
p11
(tsS'components'
p12
(tsS'anchors'
p13
(tsss."
LayerCount: 2
Fore
SplineSet
755.5 2347 m 1
 347.5 2347 l 1
 106.5 1944 l 1
 465.5 1944 l 1
 551.5 2229 l 1
 637.5 1944 l 1
 996.5 1944 l 1
 755.5 2347 l 1
564 294 m 0
 482 294 465 355 465 501 c 2
 465 1288 l 2
 465 1416 496 1466 576 1466 c 0
 641 1466 672 1434 672 1295 c 2
 672 1181 l 1
 998 1181 l 1
 998 1288 l 2
 998 1625 899 1781 566 1781 c 0
 278 1781 105 1621 105 1296 c 2
 105 502 l 2
 105 139 248 -21 502 -21 c 0
 633 -21 755 34 801 198 c 1
 861 0 l 1
 998 0 l 1
 998 1039 l 1
 566 1039 l 1
 566 741 l 1
 676 741 l 1
 676 505 l 2
 676 341 645 294 564 294 c 0
EndSplineSet
EndChar

StartChar: Gcommaaccent
Encoding: 290 290 39
Width: 1108
VWidth: 0
Flags: W
PickledData: "(dp1
S'com.typemytype.robofont.layerData'
p2
(dp3
S'b'
(dp4
S'name'
p5
S'Gcommaaccent'
p6
sS'lib'
p7
(dp8
sS'unicodes'
p9
(tsS'width'
p10
I1108
sS'contours'
p11
(tsS'components'
p12
(tsS'anchors'
p13
(tsss."
LayerCount: 2
Fore
SplineSet
447 -830 m 1
 615 -830 l 1
 717 -493 l 1
 717 -184 l 1
 386 -184 l 1
 386 -502 l 1
 513 -502 l 1
 447 -830 l 1
564 294 m 0
 482 294 465 355 465 501 c 2
 465 1288 l 2
 465 1416 496 1466 576 1466 c 0
 641 1466 672 1434 672 1295 c 2
 672 1181 l 1
 998 1181 l 1
 998 1288 l 2
 998 1625 899 1781 566 1781 c 0
 278 1781 105 1621 105 1296 c 2
 105 502 l 2
 105 139 248 -21 502 -21 c 0
 633 -21 755 34 801 198 c 1
 861 0 l 1
 998 0 l 1
 998 1039 l 1
 566 1039 l 1
 566 741 l 1
 676 741 l 1
 676 505 l 2
 676 341 645 294 564 294 c 0
EndSplineSet
EndChar

StartChar: Gdotaccent
Encoding: 288 288 40
Width: 1108
VWidth: 0
Flags: W
PickledData: "(dp1
S'com.typemytype.robofont.layerData'
p2
(dp3
S'b'
(dp4
S'name'
p5
S'Gdotaccent'
p6
sS'lib'
p7
(dp8
sS'unicodes'
p9
(tsS'width'
p10
I1108
sS'contours'
p11
(tsS'components'
p12
(tsS'anchors'
p13
(tsss."
LayerCount: 2
Fore
SplineSet
372.5 1944 m 1
 730.5 1944 l 1
 730.5 2242 l 1
 372.5 2242 l 1
 372.5 1944 l 1
564 294 m 0
 482 294 465 355 465 501 c 2
 465 1288 l 2
 465 1416 496 1466 576 1466 c 0
 641 1466 672 1434 672 1295 c 2
 672 1181 l 1
 998 1181 l 1
 998 1288 l 2
 998 1625 899 1781 566 1781 c 0
 278 1781 105 1621 105 1296 c 2
 105 502 l 2
 105 139 248 -21 502 -21 c 0
 633 -21 755 34 801 198 c 1
 861 0 l 1
 998 0 l 1
 998 1039 l 1
 566 1039 l 1
 566 741 l 1
 676 741 l 1
 676 505 l 2
 676 341 645 294 564 294 c 0
EndSplineSet
EndChar

StartChar: H
Encoding: 72 72 41
Width: 909
VWidth: 0
Flags: W
PickledData: "(dp1
S'com.typemytype.robofont.layerData'
p2
(dp3
S'b'
(dp4
S'name'
p5
S'H'
sS'lib'
p6
(dp7
sS'unicodes'
p8
(tsS'width'
p9
I909
sS'contours'
p10
(tsS'components'
p11
(tsS'anchors'
p12
(tsss."
LayerCount: 2
Fore
SplineSet
609 0 m 1
 777 0 l 1
 777 1761 l 1
 609 1761 l 1
 609 938 l 1
 300 938 l 1
 300 1761 l 1
 132 1761 l 1
 132 0 l 1
 300 0 l 1
 300 807 l 1
 609 807 l 1
 609 0 l 1
EndSplineSet
EndChar

StartChar: Hbar
Encoding: 294 294 42
Width: 1130
VWidth: 0
Flags: W
PickledData: "(dp1
S'com.typemytype.robofont.layerData'
p2
(dp3
S'b'
(dp4
S'name'
p5
S'Hbar'
p6
sS'lib'
p7
(dp8
sS'unicodes'
p9
(tsS'width'
p10
I1130
sS'contours'
p11
(tsS'components'
p12
(tsS'anchors'
p13
(tsss."
LayerCount: 2
Fore
SplineSet
1087 1348 m 1
 1087 1518 l 1
 55 1518 l 1
 55 1348 l 1
 1087 1348 l 1
648 0 m 1
 1008 0 l 1
 1008 1761 l 1
 648 1761 l 1
 648 1083 l 1
 482 1083 l 1
 482 1761 l 1
 122 1761 l 1
 122 0 l 1
 482 0 l 1
 482 781 l 1
 648 781 l 1
 648 0 l 1
EndSplineSet
EndChar

StartChar: Hcircumflex
Encoding: 292 292 43
Width: 1130
VWidth: 0
Flags: W
PickledData: "(dp1
S'com.typemytype.robofont.layerData'
p2
(dp3
S'b'
(dp4
S'name'
p5
S'Hcircumflex'
p6
sS'lib'
p7
(dp8
sS'unicodes'
p9
(tsS'width'
p10
I1130
sS'contours'
p11
(tsS'components'
p12
(tsS'anchors'
p13
(tsss."
LayerCount: 2
Fore
SplineSet
769 2347 m 1
 361 2347 l 1
 120 1944 l 1
 479 1944 l 1
 565 2229 l 1
 651 1944 l 1
 1010 1944 l 1
 769 2347 l 1
648 0 m 1
 1008 0 l 1
 1008 1761 l 1
 648 1761 l 1
 648 1083 l 1
 482 1083 l 1
 482 1761 l 1
 122 1761 l 1
 122 0 l 1
 482 0 l 1
 482 781 l 1
 648 781 l 1
 648 0 l 1
EndSplineSet
EndChar

StartChar: I
Encoding: 73 73 44
Width: 432
VWidth: 0
Flags: W
PickledData: "(dp1
S'com.typemytype.robofont.layerData'
p2
(dp3
S'b'
(dp4
S'name'
p5
S'I'
sS'lib'
p6
(dp7
sS'unicodes'
p8
(tsS'width'
p9
F432
sS'contours'
p10
(tsS'components'
p11
(tsS'anchors'
p12
(tsss."
LayerCount: 2
Fore
SplineSet
300 1761 m 1
 132 1761 l 1
 132 0 l 1
 300 0 l 1
 300 1761 l 1
EndSplineSet
EndChar

StartChar: IJ
Encoding: 306 306 45
Width: 1665
VWidth: 0
Flags: W
PickledData: "(dp1
S'com.typemytype.robofont.layerData'
p2
(dp3
S'b'
(dp4
S'name'
p5
S'IJ'
p6
sS'lib'
p7
(dp8
sS'unicodes'
p9
(tsS'width'
p10
I1665
sS'contours'
p11
(tsS'components'
p12
(tsS'anchors'
p13
(tsss."
LayerCount: 2
Fore
SplineSet
1176 1761 m 1
 1176 418 l 2
 1176 333 1150 294 1097 294 c 0
 1042 294 1019 340 1019 402 c 2
 1019 830 l 1
 677 830 l 1
 677 389 l 2
 677 124 868 -21 1107 -21 c 0
 1358 -21 1537 160 1537 440 c 2
 1537 1761 l 1
 1176 1761 l 1
488 1761 m 1
 128 1761 l 1
 128 0 l 1
 488 0 l 1
 488 1761 l 1
EndSplineSet
EndChar

StartChar: Iacute
Encoding: 205 205 46
Width: 616
VWidth: 0
Flags: W
PickledData: "(dp1
S'com.typemytype.robofont.layerData'
p2
(dp3
S'b'
(dp4
S'name'
p5
S'Iacute'
p6
sS'lib'
p7
(dp8
sS'unicodes'
p9
(tsS'width'
p10
I616
sS'contours'
p11
(tsS'components'
p12
(tsS'anchors'
p13
(tsss."
LayerCount: 2
Fore
SplineSet
70.5 1944 m 1
 545.5 2038 l 1
 545.5 2385 l 1
 70.5 2167 l 1
 70.5 1944 l 1
488 1761 m 1
 128 1761 l 1
 128 0 l 1
 488 0 l 1
 488 1761 l 1
EndSplineSet
EndChar

StartChar: Ibreve
Encoding: 300 300 47
Width: 616
VWidth: 0
Flags: W
PickledData: "(dp1
S'com.typemytype.robofont.layerData'
p2
(dp3
S'b'
(dp4
S'name'
p5
S'Ibreve'
p6
sS'lib'
p7
(dp8
sS'unicodes'
p9
(tsS'width'
p10
I616
sS'contours'
p11
(tsS'components'
p12
(tsS'anchors'
p13
(tsss."
LayerCount: 2
Fore
SplineSet
308 2134 m 0
 225 2134 173 2152 173 2277 c 1
 -45 2277 l 1
 -45 2262 l 2
 -45 2045 72 1944 306 1944 c 0
 546 1944 661 2041 661 2264 c 2
 661 2277 l 1
 443 2277 l 1
 443 2152 391 2134 308 2134 c 0
488 1761 m 1
 128 1761 l 1
 128 0 l 1
 488 0 l 1
 488 1761 l 1
EndSplineSet
EndChar

StartChar: Icircumflex
Encoding: 206 206 48
Width: 616
VWidth: 0
Flags: W
PickledData: "(dp1
S'com.typemytype.robofont.layerData'
p2
(dp3
S'b'
(dp4
S'name'
p5
S'Icircumflex'
p6
sS'lib'
p7
(dp8
sS'unicodes'
p9
(tsS'width'
p10
I616
sS'contours'
p11
(tsS'components'
p12
(tsS'anchors'
p13
(tsss."
LayerCount: 2
Fore
SplineSet
512 2347 m 1
 104 2347 l 1
 -137 1944 l 1
 222 1944 l 1
 308 2229 l 1
 394 1944 l 1
 753 1944 l 1
 512 2347 l 1
488 1761 m 1
 128 1761 l 1
 128 0 l 1
 488 0 l 1
 488 1761 l 1
EndSplineSet
EndChar

StartChar: Idieresis
Encoding: 207 207 49
Width: 616
VWidth: 0
Flags: W
PickledData: "(dp1
S'com.typemytype.robofont.layerData'
p2
(dp3
S'b'
(dp4
S'name'
p5
S'Idieresis'
p6
sS'lib'
p7
(dp8
sS'unicodes'
p9
(tsS'width'
p10
I616
sS'contours'
p11
(tsS'components'
p12
(tsS'anchors'
p13
(tsss."
LayerCount: 2
Fore
SplineSet
371 1944 m 1
 729 1944 l 1
 729 2242 l 1
 371 2242 l 1
 371 1944 l 1
-113 1944 m 1
 245 1944 l 1
 245 2242 l 1
 -113 2242 l 1
 -113 1944 l 1
488 1761 m 1
 128 1761 l 1
 128 0 l 1
 488 0 l 1
 488 1761 l 1
EndSplineSet
EndChar

StartChar: Idotaccent
Encoding: 304 304 50
Width: 616
VWidth: 0
Flags: W
PickledData: "(dp1
S'com.typemytype.robofont.layerData'
p2
(dp3
S'b'
(dp4
S'name'
p5
S'Idotaccent'
p6
sS'lib'
p7
(dp8
sS'unicodes'
p9
(tsS'width'
p10
I616
sS'contours'
p11
(tsS'components'
p12
(tsS'anchors'
p13
(tsss."
LayerCount: 2
Fore
SplineSet
129 1944 m 1
 487 1944 l 1
 487 2242 l 1
 129 2242 l 1
 129 1944 l 1
488 1761 m 1
 128 1761 l 1
 128 0 l 1
 488 0 l 1
 488 1761 l 1
EndSplineSet
EndChar

StartChar: Igrave
Encoding: 204 204 51
Width: 616
VWidth: 0
Flags: W
PickledData: "(dp1
S'com.typemytype.robofont.layerData'
p2
(dp3
S'b'
(dp4
S'name'
p5
S'Igrave'
p6
sS'lib'
p7
(dp8
sS'unicodes'
p9
(tsS'width'
p10
I616
sS'contours'
p11
(tsS'components'
p12
(tsS'anchors'
p13
(tsss."
LayerCount: 2
Fore
SplineSet
545.5 1944 m 1
 545.5 2167 l 1
 70.5 2385 l 1
 70.5 2038 l 1
 545.5 1944 l 1
488 1761 m 1
 128 1761 l 1
 128 0 l 1
 488 0 l 1
 488 1761 l 1
EndSplineSet
EndChar

StartChar: Imacron
Encoding: 298 298 52
Width: 616
VWidth: 0
Flags: W
PickledData: "(dp1
S'com.typemytype.robofont.layerData'
p2
(dp3
S'b'
(dp4
S'name'
p5
S'Imacron'
p6
sS'lib'
p7
(dp8
sS'unicodes'
p9
(tsS'width'
p10
I616
sS'contours'
p11
(tsS'components'
p12
(tsS'anchors'
p13
(tsss."
LayerCount: 2
Fore
SplineSet
566 2176 m 1
 50 2176 l 1
 50 1944 l 1
 566 1944 l 1
 566 2176 l 1
488 1761 m 1
 128 1761 l 1
 128 0 l 1
 488 0 l 1
 488 1761 l 1
EndSplineSet
EndChar

StartChar: Iogonek
Encoding: 302 302 53
Width: 616
VWidth: 0
Flags: W
PickledData: "(dp1
S'com.typemytype.robofont.layerData'
p2
(dp3
S'b'
(dp4
S'name'
p5
S'Iogonek'
p6
sS'lib'
p7
(dp8
sS'unicodes'
p9
(tsS'width'
p10
I616
sS'contours'
p11
(tsS'components'
p12
(tsS'anchors'
p13
(tsss."
LayerCount: 2
Fore
SplineSet
228.5 -278.1328125 m 0
 228.5 -168.1328125 304.5 -69.1328125 378.5 20.8671875 c 1
 237.5 20.8671875 l 1
 61.5 -78.1328125 -16.5 -218.1328125 -16.5 -339.1328125 c 0
 -16.5 -513.1328125 100.5 -605.1328125 290.5 -605.1328125 c 0
 358.5 -605.1328125 436.5 -583.1328125 459.5 -570.1328125 c 1
 459.5 -397.1328125 l 1
 435.5 -402.1328125 409.5 -405.1328125 384.5 -405.1328125 c 0
 304.5 -405.1328125 228.5 -375.1328125 228.5 -278.1328125 c 0
488 1761 m 1
 128 1761 l 1
 128 0 l 1
 488 0 l 1
 488 1761 l 1
EndSplineSet
EndChar

StartChar: Itilde
Encoding: 296 296 54
Width: 616
VWidth: 0
Flags: W
PickledData: "(dp1
S'com.typemytype.robofont.layerData'
p2
(dp3
S'b'
(dp4
S'name'
p5
S'Itilde'
p6
sS'lib'
p7
(dp8
sS'unicodes'
p9
(tsS'width'
p10
I616
sS'contours'
p11
(tsS'components'
p12
(tsS'anchors'
p13
(tsss."
LayerCount: 2
Fore
SplineSet
471.5 1944 m 0
 579.5 1944 647.5 2001 667.5 2144 c 2
 676.5 2209 l 1
 505.5 2237 l 1
 484.5 2177 468.5 2169 449.5 2166 c 1
 445.5 2166 l 2
 395.5 2166 232.5 2240 151.5 2240 c 0
 43.5 2240 -21.5 2157 -60.5 2022 c 1
 98.5 1965 l 1
 116.5 2000 127.5 2019 149.5 2024 c 0
 156.5 2026 164.5 2026 172.5 2026 c 0
 255.5 2026 383.5 1944 471.5 1944 c 0
488 1761 m 1
 128 1761 l 1
 128 0 l 1
 488 0 l 1
 488 1761 l 1
EndSplineSet
EndChar

StartChar: J
Encoding: 74 74 55
Width: 758
VWidth: 0
Flags: W
PickledData: "(dp1
S'com.typemytype.robofont.layerData'
p2
(dp3
S'b'
(dp4
S'name'
p5
S'J'
sS'lib'
p6
(dp7
sS'unicodes'
p8
(tsS'width'
p9
I758
sS'contours'
p10
((dp11
S'points'
p12
((dp13
S'segmentType'
p14
S'curve'
p15
sS'x'
F199
sS'smooth'
p16
I01
sS'y'
F-21
s(dp17
S'y'
F-21
sS'x'
F457
sg16
I00
s(dp18
S'y'
F177
sS'x'
F519
sg16
I00
s(dp19
g14
S'curve'
p20
sS'x'
F519
sg16
I01
sS'y'
F540
s(dp21
g14
S'line'
p22
sS'x'
F519
sg16
I01
sS'y'
F1251
s(dp23
S'y'
F1554
sS'x'
F519
sg16
I00
s(dp24
S'y'
F1781
sS'x'
F487
sg16
I00
s(dp25
g14
S'curve'
p26
sS'x'
F205
sg16
I01
sS'y'
F1781
s(dp27
S'y'
F1781
sS'x'
F-77
sg16
I00
s(dp28
S'y'
F1554
sS'x'
F-125
sg16
I00
s(dp29
g14
S'curve'
p30
sS'x'
F-125
sg16
I01
sS'y'
F1251
s(dp31
g14
S'line'
p32
sS'x'
F-125
sg16
I01
sS'y'
F540
s(dp33
S'y'
F177
sS'x'
F-125
sg16
I00
s(dp34
S'y'
F-21
sS'x'
F-59
sg16
I00
stp35
s(dp36
g12
((dp37
g14
S'line'
p38
sS'x'
F43
sg16
I01
sS'y'
F1264
s(dp39
S'y'
F1509
sS'x'
F43
sg16
I00
s(dp40
S'y'
F1636
sS'x'
F77
sg16
I00
s(dp41
g14
S'curve'
p42
sS'x'
F205
sg16
I01
sS'y'
F1636
s(dp43
S'y'
F1636
sS'x'
F327
sg16
I00
s(dp44
S'y'
F1510
sS'x'
F351
sg16
I00
s(dp45
g14
S'curve'
p46
sS'x'
F351
sg16
I01
sS'y'
F1263
s(dp47
g14
S'line'
p48
sS'x'
F351
sg16
I01
sS'y'
F539
s(dp49
S'y'
F238
sS'x'
F351
sg16
I00
s(dp50
S'y'
F120
sS'x'
F322
sg16
I00
s(dp51
g14
S'curve'
p52
sS'x'
F199
sg16
I01
sS'y'
F120
s(dp53
S'y'
F120
sS'x'
F70
sg16
I00
s(dp54
S'y'
F237
sS'x'
F43
sg16
I00
s(dp55
g14
S'curve'
p56
sS'x'
F43
sg16
I01
sS'y'
F539
stp57
stp58
sS'components'
p59
(tsS'anchors'
p60
(tsss."
LayerCount: 2
Fore
SplineSet
458 1761 m 1
 458 418 l 2
 458 243 461 120 336 120 c 0
 213 120 214 250 214 402 c 2
 214 566 l 1
 46 566 l 1
 46 389 l 2
 46 113 123 -21 342 -21 c 0
 542 -21 626 122 626 422 c 2
 626 1761 l 1
 458 1761 l 1
EndSplineSet
EndChar

StartChar: Jcircumflex
Encoding: 308 308 56
Width: 1049
VWidth: 0
Flags: W
PickledData: "(dp1
S'com.typemytype.robofont.layerData'
p2
(dp3
S'b'
(dp4
S'name'
p5
S'Jcircumflex'
p6
sS'lib'
p7
(dp8
sS'unicodes'
p9
(tsS'width'
p10
I1049
sS'contours'
p11
(tsS'components'
p12
(tsS'anchors'
p13
(tsss."
LayerCount: 2
Fore
SplineSet
923 2347 m 1
 515 2347 l 1
 274 1944 l 1
 633 1944 l 1
 719 2229 l 1
 805 1944 l 1
 1164 1944 l 1
 923 2347 l 1
560 1761 m 1
 560 418 l 2
 560 333 534 294 481 294 c 0
 426 294 403 340 403 402 c 2
 403 830 l 1
 61 830 l 1
 61 389 l 2
 61 124 252 -21 491 -21 c 0
 742 -21 921 160 921 440 c 2
 921 1761 l 1
 560 1761 l 1
EndSplineSet
EndChar

StartChar: K
Encoding: 75 75 57
Width: 810
VWidth: 0
Flags: W
PickledData: "(dp1
S'com.typemytype.robofont.layerData'
p2
(dp3
S'b'
(dp4
S'name'
p5
S'K'
sS'lib'
p6
(dp7
sS'unicodes'
p8
(tsS'width'
p9
I810
sS'contours'
p10
(tsS'components'
p11
(tsS'anchors'
p12
(tsss."
LayerCount: 2
Fore
SplineSet
300 1761 m 1
 132 1761 l 1
 132 0 l 1
 302 0 l 1
 302 854 l 1
 655 0 l 1
 830 0 l 1
 456 891 l 1
 807 1761 l 1
 641 1761 l 1
 300 902 l 1
 300 1761 l 1
EndSplineSet
EndChar

StartChar: Kcommaaccent
Encoding: 310 310 58
Width: 1072
VWidth: 0
Flags: W
PickledData: "(dp1
S'com.typemytype.robofont.layerData'
p2
(dp3
S'b'
(dp4
S'name'
p5
S'Kcommaaccent'
p6
sS'lib'
p7
(dp8
sS'unicodes'
p9
(tsS'width'
p10
I1072
sS'contours'
p11
(tsS'components'
p12
(tsS'anchors'
p13
(tsss."
LayerCount: 2
Fore
SplineSet
476 -809 m 1
 644 -809 l 1
 746 -472 l 1
 746 -163 l 1
 415 -163 l 1
 415 -481 l 1
 542 -481 l 1
 476 -809 l 1
470 1761 m 1
 122 1761 l 1
 122 0 l 1
 472 0 l 1
 472 792 l 1
 674 0 l 1
 1039 0 l 1
 791 894 l 1
 999 1761 l 1
 645 1761 l 1
 470 995 l 1
 470 1761 l 1
EndSplineSet
EndChar

StartChar: L
Encoding: 76 76 59
Width: 622
VWidth: 0
Flags: W
PickledData: "(dp1
S'com.typemytype.robofont.layerData'
p2
(dp3
S'b'
(dp4
S'name'
p5
S'L'
sS'lib'
p6
(dp7
sS'unicodes'
p8
(tsS'width'
p9
F622
sS'contours'
p10
((dp11
S'points'
p12
((dp13
S'segmentType'
p14
S'line'
p15
sS'x'
F836
sS'smooth'
p16
I00
sS'y'
F318
s(dp17
g14
S'line'
p18
sS'x'
F474
sg16
I00
sS'y'
F318
s(dp19
g14
S'line'
p20
sS'x'
F474
sg16
I00
sS'y'
F1761
s(dp21
g14
S'line'
p22
sS'x'
F122
sg16
I00
sS'y'
F1761
s(dp23
g14
S'line'
p24
sS'x'
F122
sg16
I00
sS'y'
F0
s(dp25
g14
S'line'
p26
sS'x'
F836
sg16
I00
sS'y'
F0
stp27
stp28
sS'components'
p29
(tsS'anchors'
p30
(tsss."
LayerCount: 2
Fore
SplineSet
204 136 m 1
 617 136 l 1
 617 0 l 1
 204 0 l 1
 204 136 l 1
300 1761 m 1
 300 0 l 1
 132 0 l 1
 132 1761 l 1
 300 1761 l 1
EndSplineSet
EndChar

StartChar: Lacute
Encoding: 313 313 60
Width: 864
VWidth: 0
Flags: W
PickledData: "(dp1
S'com.typemytype.robofont.layerData'
p2
(dp3
S'b'
(dp4
S'name'
p5
S'Lacute'
p6
sS'lib'
p7
(dp8
sS'unicodes'
p9
(tsS'width'
p10
I864
sS'contours'
p11
(tsS'components'
p12
(tsS'anchors'
p13
(tsss."
LayerCount: 2
Fore
SplineSet
241.5 1944 m 1
 716.5 2038 l 1
 716.5 2385 l 1
 241.5 2167 l 1
 241.5 1944 l 1
836 318 m 1
 474 318 l 1
 474 1761 l 1
 122 1761 l 1
 122 0 l 1
 836 0 l 1
 836 318 l 1
EndSplineSet
EndChar

StartChar: Lcaron
Encoding: 317 317 61
Width: 864
VWidth: 0
Flags: W
PickledData: "(dp1
S'com.typemytype.robofont.layerData'
p2
(dp3
S'b'
(dp4
S'name'
p5
S'Lcaron'
p6
sS'lib'
p7
(dp8
sS'unicodes'
p9
(tsS'width'
p10
I864
sS'contours'
p11
(tsS'components'
p12
(tsS'anchors'
p13
(tsss."
LayerCount: 2
Fore
SplineSet
715.5 1135 m 1
 883.5 1135 l 1
 985.5 1472 l 1
 985.5 1781 l 1
 654.5 1781 l 1
 654.5 1463 l 1
 781.5 1463 l 1
 715.5 1135 l 1
836 318 m 1
 474 318 l 1
 474 1761 l 1
 122 1761 l 1
 122 0 l 1
 836 0 l 1
 836 318 l 1
EndSplineSet
EndChar

StartChar: Lcommaaccent
Encoding: 315 315 62
Width: 864
VWidth: 0
Flags: W
PickledData: "(dp1
S'com.typemytype.robofont.layerData'
p2
(dp3
S'b'
(dp4
S'name'
p5
S'Lcommaaccent'
p6
sS'lib'
p7
(dp8
sS'unicodes'
p9
(tsS'width'
p10
I864
sS'contours'
p11
(tsS'components'
p12
(tsS'anchors'
p13
(tsss."
LayerCount: 2
Fore
SplineSet
374.5 -809 m 1
 542.5 -809 l 1
 644.5 -472 l 1
 644.5 -163 l 1
 313.5 -163 l 1
 313.5 -481 l 1
 440.5 -481 l 1
 374.5 -809 l 1
836 318 m 1
 474 318 l 1
 474 1761 l 1
 122 1761 l 1
 122 0 l 1
 836 0 l 1
 836 318 l 1
EndSplineSet
EndChar

StartChar: Ldot
Encoding: 319 319 63
Width: 864
VWidth: 0
Flags: W
PickledData: "(dp1
S'com.typemytype.robofont.layerData'
p2
(dp3
S'b'
(dp4
S'name'
p5
S'Ldot'
p6
sS'lib'
p7
(dp8
sS'unicodes'
p9
(tsS'width'
p10
I864
sS'contours'
p11
(tsS'components'
p12
(tsS'anchors'
p13
(tsss."
LayerCount: 2
Fore
SplineSet
864 1039.5 m 1
 586 1039.5 l 1
 586 741.5 l 1
 864 741.5 l 1
 864 1039.5 l 1
836 318 m 1
 474 318 l 1
 474 1761 l 1
 122 1761 l 1
 122 0 l 1
 836 0 l 1
 836 318 l 1
EndSplineSet
EndChar

StartChar: Lslash
Encoding: 321 321 64
Width: 864
VWidth: 0
Flags: W
PickledData: "(dp1
S'com.typemytype.robofont.layerData'
p2
(dp3
S'b'
(dp4
S'name'
p5
S'Lslash'
p6
sS'lib'
p7
(dp8
sS'unicodes'
p9
(tsS'width'
p10
I864
sS'contours'
p11
(tsS'components'
p12
(tsS'anchors'
p13
(tsss."
LayerCount: 2
Fore
SplineSet
836 318 m 1
 474 318 l 1
 474 843 l 1
 706 923 l 1
 706 1155 l 1
 474 1075 l 1
 474 1761 l 1
 122 1761 l 1
 122 956 l 1
 -1 916 l 1
 -1 684 l 1
 122 724 l 1
 122 0 l 1
 836 0 l 1
 836 318 l 1
EndSplineSet
EndChar

StartChar: M
Encoding: 77 77 65
Width: 1180
VWidth: 0
Flags: W
PickledData: "(dp1
S'com.typemytype.robofont.layerData'
p2
(dp3
S'b'
(dp4
S'name'
p5
S'M'
sS'lib'
p6
(dp7
sS'unicodes'
p8
(tsS'width'
p9
I1180
sS'contours'
p10
((dp11
S'points'
p12
((dp13
S'segmentType'
p14
S'line'
p15
sS'x'
F1112
sS'smooth'
p16
I00
sS'y'
F0
s(dp17
g14
S'line'
p18
sS'x'
F1434
sg16
I00
sS'y'
F0
s(dp19
g14
S'line'
p20
sS'x'
F1434
sg16
I00
sS'y'
F1761
s(dp21
g14
S'line'
p22
sS'x'
F893
sg16
I00
sS'y'
F1761
s(dp23
g14
S'line'
p24
sS'x'
F746
sg16
I00
sS'y'
F687
s(dp25
g14
S'line'
p26
sS'x'
F598
sg16
I00
sS'y'
F1761
s(dp27
g14
S'line'
p28
sS'x'
F62
sg16
I00
sS'y'
F1761
s(dp29
g14
S'line'
p30
sS'x'
F62
sg16
I00
sS'y'
F0
s(dp31
g14
S'line'
p32
sS'x'
F380
sg16
I00
sS'y'
F0
s(dp33
g14
S'line'
p34
sS'x'
F380
sg16
I00
sS'y'
F1268
s(dp35
g14
S'line'
p36
sS'x'
F594
sg16
I00
sS'y'
F0
s(dp37
g14
S'line'
p38
sS'x'
F910
sg16
I00
sS'y'
F0
s(dp39
g14
S'line'
p40
sS'x'
F1112
sg16
I00
sS'y'
F1268
stp41
stp42
sS'components'
p43
(tsS'anchors'
p44
(tsss."
LayerCount: 2
Fore
SplineSet
281 738 m 1
 260 1430 l 1
 510 0 l 1
 680 0 l 1
 920 1430 l 1
 899 738 l 1
 899 0 l 1
 1048 0 l 1
 1048 1761 l 1
 837 1761 l 1
 595 212 l 1
 343 1761 l 1
 132 1761 l 1
 132 0 l 1
 281 0 l 1
 281 738 l 1
EndSplineSet
EndChar

StartChar: N
Encoding: 78 78 66
Width: 940
VWidth: 0
Flags: W
PickledData: "(dp1
S'com.typemytype.robofont.layerData'
p2
(dp3
S'b'
(dp4
S'name'
p5
S'N'
sS'lib'
p6
(dp7
sS'unicodes'
p8
(tsS'width'
p9
I940
sS'contours'
p10
((dp11
S'points'
p12
((dp13
S'segmentType'
p14
S'line'
p15
sS'x'
F663
sS'smooth'
p16
I00
sS'y'
F947
s(dp17
g14
S'line'
p18
sS'x'
F415
sg16
I00
sS'y'
F1761
s(dp19
g14
S'line'
p20
sS'x'
F93
sg16
I00
sS'y'
F1761
s(dp21
g14
S'line'
p22
sS'x'
F93
sg16
I00
sS'y'
F0
s(dp23
g14
S'line'
p24
sS'x'
F423
sg16
I00
sS'y'
F0
s(dp25
g14
S'line'
p26
sS'x'
F423
sg16
I00
sS'y'
F860
s(dp27
g14
S'line'
p28
sS'x'
F685
sg16
I00
sS'y'
F0
s(dp29
g14
S'line'
p30
sS'x'
F993
sg16
I00
sS'y'
F0
s(dp31
g14
S'line'
p32
sS'x'
F993
sg16
I00
sS'y'
F1761
s(dp33
g14
S'line'
p34
sS'x'
F663
sg16
I00
sS'y'
F1761
stp35
stp36
sS'components'
p37
(tsS'anchors'
p38
(tsss."
LayerCount: 2
Fore
SplineSet
289 868 m 1
 268 1320 l 1
 680 0 l 1
 808 0 l 1
 808 1761 l 1
 651 1761 l 1
 651 980 l 1
 683 433 l 1
 253 1761 l 1
 132 1761 l 1
 132 0 l 1
 289 0 l 1
 289 868 l 1
EndSplineSet
EndChar

StartChar: Nacute
Encoding: 323 323 67
Width: 1144
VWidth: 0
Flags: W
PickledData: "(dp1
S'com.typemytype.robofont.layerData'
p2
(dp3
S'b'
(dp4
S'name'
p5
S'Nacute'
p6
sS'lib'
p7
(dp8
sS'unicodes'
p9
(tsS'width'
p10
I1144
sS'contours'
p11
(tsS'components'
p12
(tsS'anchors'
p13
(tsss."
LayerCount: 2
Fore
SplineSet
334.5 1944 m 1
 809.5 2038 l 1
 809.5 2385 l 1
 334.5 2167 l 1
 334.5 1944 l 1
692 947 m 1
 444 1761 l 1
 122 1761 l 1
 122 0 l 1
 452 0 l 1
 452 860 l 1
 714 0 l 1
 1022 0 l 1
 1022 1761 l 1
 692 1761 l 1
 692 947 l 1
EndSplineSet
EndChar

StartChar: Ncaron
Encoding: 327 327 68
Width: 1144
VWidth: 0
Flags: W
PickledData: "(dp1
S'com.typemytype.robofont.layerData'
p2
(dp3
S'b'
(dp4
S'name'
p5
S'Ncaron'
p6
sS'lib'
p7
(dp8
sS'unicodes'
p9
(tsS'width'
p10
I1144
sS'contours'
p11
(tsS'components'
p12
(tsS'anchors'
p13
(tsss."
LayerCount: 2
Fore
SplineSet
776 1944 m 1
 1017 2347 l 1
 658 2347 l 1
 572 2062 l 1
 486 2347 l 1
 127 2347 l 1
 368 1944 l 1
 776 1944 l 1
692 947 m 1
 444 1761 l 1
 122 1761 l 1
 122 0 l 1
 452 0 l 1
 452 860 l 1
 714 0 l 1
 1022 0 l 1
 1022 1761 l 1
 692 1761 l 1
 692 947 l 1
EndSplineSet
EndChar

StartChar: Ncommaaccent
Encoding: 325 325 69
Width: 1144
VWidth: 0
Flags: W
PickledData: "(dp1
S'com.typemytype.robofont.layerData'
p2
(dp3
S'b'
(dp4
S'name'
p5
S'Ncommaaccent'
p6
sS'lib'
p7
(dp8
sS'unicodes'
p9
(tsS'width'
p10
I1144
sS'contours'
p11
(tsS'components'
p12
(tsS'anchors'
p13
(tsss."
LayerCount: 2
Fore
SplineSet
467.5 -809 m 1
 635.5 -809 l 1
 737.5 -472 l 1
 737.5 -163 l 1
 406.5 -163 l 1
 406.5 -481 l 1
 533.5 -481 l 1
 467.5 -809 l 1
692 947 m 1
 444 1761 l 1
 122 1761 l 1
 122 0 l 1
 452 0 l 1
 452 860 l 1
 714 0 l 1
 1022 0 l 1
 1022 1761 l 1
 692 1761 l 1
 692 947 l 1
EndSplineSet
EndChar

StartChar: Ntilde
Encoding: 209 209 70
Width: 1144
VWidth: 0
Flags: W
PickledData: "(dp1
S'com.typemytype.robofont.layerData'
p2
(dp3
S'b'
(dp4
S'name'
p5
S'Ntilde'
p6
sS'lib'
p7
(dp8
sS'unicodes'
p9
(tsS'width'
p10
I1144
sS'contours'
p11
(tsS'components'
p12
(tsS'anchors'
p13
(tsss."
LayerCount: 2
Fore
SplineSet
735.5 1944 m 0
 843.5 1944 911.5 2001 931.5 2144 c 2
 940.5 2209 l 1
 769.5 2237 l 1
 748.5 2177 732.5 2169 713.5 2166 c 1
 709.5 2166 l 2
 659.5 2166 496.5 2240 415.5 2240 c 0
 307.5 2240 242.5 2157 203.5 2022 c 1
 362.5 1965 l 1
 380.5 2000 391.5 2019 413.5 2024 c 0
 420.5 2026 428.5 2026 436.5 2026 c 0
 519.5 2026 647.5 1944 735.5 1944 c 0
692 947 m 1
 444 1761 l 1
 122 1761 l 1
 122 0 l 1
 452 0 l 1
 452 860 l 1
 714 0 l 1
 1022 0 l 1
 1022 1761 l 1
 692 1761 l 1
 692 947 l 1
EndSplineSet
EndChar

StartChar: O
Encoding: 79 79 71
Width: 864
VWidth: 0
Flags: W
PickledData: "(dp1
S'com.typemytype.robofont.layerData'
p2
(dp3
S'b'
(dp4
S'name'
p5
S'O'
sS'lib'
p6
(dp7
sS'unicodes'
p8
(tsS'width'
p9
I864
sS'contours'
p10
(tsS'components'
p11
(tsS'anchors'
p12
(tsss."
LayerCount: 2
Fore
SplineSet
278 1264 m 2
 278 1509 312 1636 440 1636 c 0
 562 1636 586 1510 586 1263 c 2
 586 539 l 2
 586 238 557 120 434 120 c 0
 305 120 278 237 278 539 c 2
 278 1264 l 2
434 -21 m 0
 692 -21 754 177 754 540 c 2
 754 1251 l 2
 754 1554 722 1781 440 1781 c 0
 158 1781 110 1554 110 1251 c 2
 110 540 l 2
 110 177 176 -21 434 -21 c 0
EndSplineSet
EndChar

StartChar: OE
Encoding: 338 338 72
Width: 1312
VWidth: 0
Flags: W
PickledData: "(dp1
S'com.typemytype.robofont.layerData'
p2
(dp3
S'b'
(dp4
S'name'
p5
S'OE'
p6
sS'lib'
p7
(dp8
sS'unicodes'
p9
(tsS'width'
p10
I1312
sS'contours'
p11
(tsS'components'
p12
(tsS'anchors'
p13
(tsss."
LayerCount: 2
Fore
SplineSet
551 317 m 2
 469 317 465 378 465 470 c 2
 465 1322 l 2
 465 1397 483 1440 551 1440 c 2
 624 1440 l 1
 624 317 l 1
 551 317 l 2
1224 0 m 1
 1224 318 l 1
 984 318 l 1
 984 746 l 1
 1187 746 l 1
 1187 1065 l 1
 984 1065 l 1
 984 1440 l 1
 1201 1440 l 1
 1201 1761 l 1
 551 1761 l 2
 269 1761 105 1619 105 1316 c 2
 105 475 l 2
 105 162 263 0 551 0 c 2
 1224 0 l 1
EndSplineSet
EndChar

StartChar: Oacute
Encoding: 211 211 73
Width: 1096
VWidth: 0
Flags: W
PickledData: "(dp1
S'com.typemytype.robofont.layerData'
p2
(dp3
S'b'
(dp4
S'name'
p5
S'Oacute'
p6
sS'lib'
p7
(dp8
sS'unicodes'
p9
(tsS'width'
p10
I1096
sS'contours'
p11
(tsS'components'
p12
(tsS'anchors'
p13
(tsss."
LayerCount: 2
Fore
SplineSet
310.5 1944 m 1
 785.5 2038 l 1
 785.5 2385 l 1
 310.5 2167 l 1
 310.5 1944 l 1
465 1328 m 2
 465 1403 483 1466 551 1466 c 0
 621 1466 631 1394 631 1327 c 2
 631 470 l 2
 631 385 628 294 551 294 c 0
 469 294 465 378 465 470 c 2
 465 1328 l 2
551 -21 m 0
 839 -21 991 162 991 475 c 2
 991 1316 l 2
 991 1619 833 1781 551 1781 c 0
 269 1781 105 1619 105 1316 c 2
 105 475 l 2
 105 162 263 -21 551 -21 c 0
EndSplineSet
EndChar

StartChar: Obreve
Encoding: 334 334 74
Width: 1096
VWidth: 0
Flags: W
PickledData: "(dp1
S'com.typemytype.robofont.layerData'
p2
(dp3
S'b'
(dp4
S'name'
p5
S'Obreve'
p6
sS'lib'
p7
(dp8
sS'unicodes'
p9
(tsS'width'
p10
I1096
sS'contours'
p11
(tsS'components'
p12
(tsS'anchors'
p13
(tsss."
LayerCount: 2
Fore
SplineSet
548 2134 m 0
 465 2134 413 2152 413 2277 c 1
 195 2277 l 1
 195 2262 l 2
 195 2045 312 1944 546 1944 c 0
 786 1944 901 2041 901 2264 c 2
 901 2277 l 1
 683 2277 l 1
 683 2152 631 2134 548 2134 c 0
465 1328 m 2
 465 1403 483 1466 551 1466 c 0
 621 1466 631 1394 631 1327 c 2
 631 470 l 2
 631 385 628 294 551 294 c 0
 469 294 465 378 465 470 c 2
 465 1328 l 2
551 -21 m 0
 839 -21 991 162 991 475 c 2
 991 1316 l 2
 991 1619 833 1781 551 1781 c 0
 269 1781 105 1619 105 1316 c 2
 105 475 l 2
 105 162 263 -21 551 -21 c 0
EndSplineSet
EndChar

StartChar: Ocircumflex
Encoding: 212 212 75
Width: 1096
VWidth: 0
Flags: W
PickledData: "(dp1
S'com.typemytype.robofont.layerData'
p2
(dp3
S'b'
(dp4
S'name'
p5
S'Ocircumflex'
p6
sS'lib'
p7
(dp8
sS'unicodes'
p9
(tsS'width'
p10
I1096
sS'contours'
p11
(tsS'components'
p12
(tsS'anchors'
p13
(tsss."
LayerCount: 2
Fore
SplineSet
752 2347 m 1
 344 2347 l 1
 103 1944 l 1
 462 1944 l 1
 548 2229 l 1
 634 1944 l 1
 993 1944 l 1
 752 2347 l 1
465 1328 m 2
 465 1403 483 1466 551 1466 c 0
 621 1466 631 1394 631 1327 c 2
 631 470 l 2
 631 385 628 294 551 294 c 0
 469 294 465 378 465 470 c 2
 465 1328 l 2
551 -21 m 0
 839 -21 991 162 991 475 c 2
 991 1316 l 2
 991 1619 833 1781 551 1781 c 0
 269 1781 105 1619 105 1316 c 2
 105 475 l 2
 105 162 263 -21 551 -21 c 0
EndSplineSet
EndChar

StartChar: Odieresis
Encoding: 214 214 76
Width: 1096
VWidth: 0
Flags: W
PickledData: "(dp1
S'com.typemytype.robofont.layerData'
p2
(dp3
S'b'
(dp4
S'name'
p5
S'Odieresis'
p6
sS'lib'
p7
(dp8
sS'unicodes'
p9
(tsS'width'
p10
I1096
sS'contours'
p11
(tsS'components'
p12
(tsS'anchors'
p13
(tsss."
LayerCount: 2
Fore
SplineSet
611 1944 m 1
 969 1944 l 1
 969 2242 l 1
 611 2242 l 1
 611 1944 l 1
127 1944 m 1
 485 1944 l 1
 485 2242 l 1
 127 2242 l 1
 127 1944 l 1
465 1328 m 2
 465 1403 483 1466 551 1466 c 0
 621 1466 631 1394 631 1327 c 2
 631 470 l 2
 631 385 628 294 551 294 c 0
 469 294 465 378 465 470 c 2
 465 1328 l 2
551 -21 m 0
 839 -21 991 162 991 475 c 2
 991 1316 l 2
 991 1619 833 1781 551 1781 c 0
 269 1781 105 1619 105 1316 c 2
 105 475 l 2
 105 162 263 -21 551 -21 c 0
EndSplineSet
EndChar

StartChar: Ograve
Encoding: 210 210 77
Width: 1096
VWidth: 0
Flags: W
PickledData: "(dp1
S'com.typemytype.robofont.layerData'
p2
(dp3
S'b'
(dp4
S'name'
p5
S'Ograve'
p6
sS'lib'
p7
(dp8
sS'unicodes'
p9
(tsS'width'
p10
I1096
sS'contours'
p11
(tsS'components'
p12
(tsS'anchors'
p13
(tsss."
LayerCount: 2
Fore
SplineSet
785.5 1944 m 1
 785.5 2167 l 1
 310.5 2385 l 1
 310.5 2038 l 1
 785.5 1944 l 1
465 1328 m 2
 465 1403 483 1466 551 1466 c 0
 621 1466 631 1394 631 1327 c 2
 631 470 l 2
 631 385 628 294 551 294 c 0
 469 294 465 378 465 470 c 2
 465 1328 l 2
551 -21 m 0
 839 -21 991 162 991 475 c 2
 991 1316 l 2
 991 1619 833 1781 551 1781 c 0
 269 1781 105 1619 105 1316 c 2
 105 475 l 2
 105 162 263 -21 551 -21 c 0
EndSplineSet
EndChar

StartChar: Ohungarumlaut
Encoding: 336 336 78
Width: 1096
VWidth: 0
Flags: W
PickledData: "(dp1
S'com.typemytype.robofont.layerData'
p2
(dp3
S'b'
(dp4
S'name'
p5
S'Ohungarumlaut'
p6
sS'lib'
p7
(dp8
sS'unicodes'
p9
(tsS'width'
p10
I1096
sS'contours'
p11
(tsS'components'
p12
(tsS'anchors'
p13
(tsss."
LayerCount: 2
Fore
SplineSet
749 1944 m 1
 1089 2374 l 1
 844 2485 l 1
 603 2006 l 1
 749 1944 l 1
347 1944 m 1
 626 2374 l 1
 385 2485 l 1
 201 2006 l 1
 347 1944 l 1
465 1328 m 2
 465 1403 483 1466 551 1466 c 0
 621 1466 631 1394 631 1327 c 2
 631 470 l 2
 631 385 628 294 551 294 c 0
 469 294 465 378 465 470 c 2
 465 1328 l 2
551 -21 m 0
 839 -21 991 162 991 475 c 2
 991 1316 l 2
 991 1619 833 1781 551 1781 c 0
 269 1781 105 1619 105 1316 c 2
 105 475 l 2
 105 162 263 -21 551 -21 c 0
EndSplineSet
EndChar

StartChar: Omacron
Encoding: 332 332 79
Width: 1096
VWidth: 0
Flags: W
PickledData: "(dp1
S'com.typemytype.robofont.layerData'
p2
(dp3
S'b'
(dp4
S'name'
p5
S'Omacron'
p6
sS'lib'
p7
(dp8
sS'unicodes'
p9
(tsS'width'
p10
I1096
sS'contours'
p11
(tsS'components'
p12
(tsS'anchors'
p13
(tsss."
LayerCount: 2
Fore
SplineSet
806 2176 m 1
 290 2176 l 1
 290 1944 l 1
 806 1944 l 1
 806 2176 l 1
465 1328 m 2
 465 1403 483 1466 551 1466 c 0
 621 1466 631 1394 631 1327 c 2
 631 470 l 2
 631 385 628 294 551 294 c 0
 469 294 465 378 465 470 c 2
 465 1328 l 2
551 -21 m 0
 839 -21 991 162 991 475 c 2
 991 1316 l 2
 991 1619 833 1781 551 1781 c 0
 269 1781 105 1619 105 1316 c 2
 105 475 l 2
 105 162 263 -21 551 -21 c 0
EndSplineSet
EndChar

StartChar: Oslash
Encoding: 216 216 80
Width: 1096
VWidth: 0
Flags: W
PickledData: "(dp1
S'com.typemytype.robofont.layerData'
p2
(dp3
S'b'
(dp4
S'name'
p5
S'Oslash'
p6
sS'lib'
p7
(dp8
sS'unicodes'
p9
(tsS'width'
p10
I1096
sS'contours'
p11
(tsS'components'
p12
(tsS'anchors'
p13
(tsss."
LayerCount: 2
Fore
SplineSet
978 1870 m 1
 871 1906 l 1
 143 -166 l 1
 242 -206 l 1
 978 1870 l 1
465 1328 m 2
 465 1403 483 1466 551 1466 c 0
 621 1466 631 1394 631 1327 c 2
 631 470 l 2
 631 385 628 294 551 294 c 0
 469 294 465 378 465 470 c 2
 465 1328 l 2
551 -21 m 0
 839 -21 991 162 991 475 c 2
 991 1316 l 2
 991 1619 833 1781 551 1781 c 0
 269 1781 105 1619 105 1316 c 2
 105 475 l 2
 105 162 263 -21 551 -21 c 0
EndSplineSet
EndChar

StartChar: Otilde
Encoding: 213 213 81
Width: 1096
VWidth: 0
Flags: W
PickledData: "(dp1
S'com.typemytype.robofont.layerData'
p2
(dp3
S'b'
(dp4
S'name'
p5
S'Otilde'
p6
sS'lib'
p7
(dp8
sS'unicodes'
p9
(tsS'width'
p10
I1096
sS'contours'
p11
(tsS'components'
p12
(tsS'anchors'
p13
(tsss."
LayerCount: 2
Fore
SplineSet
711.5 1944 m 0
 819.5 1944 887.5 2001 907.5 2144 c 2
 916.5 2209 l 1
 745.5 2237 l 1
 724.5 2177 708.5 2169 689.5 2166 c 1
 685.5 2166 l 2
 635.5 2166 472.5 2240 391.5 2240 c 0
 283.5 2240 218.5 2157 179.5 2022 c 1
 338.5 1965 l 1
 356.5 2000 367.5 2019 389.5 2024 c 0
 396.5 2026 404.5 2026 412.5 2026 c 0
 495.5 2026 623.5 1944 711.5 1944 c 0
465 1328 m 2
 465 1403 483 1466 551 1466 c 0
 621 1466 631 1394 631 1327 c 2
 631 470 l 2
 631 385 628 294 551 294 c 0
 469 294 465 378 465 470 c 2
 465 1328 l 2
551 -21 m 0
 839 -21 991 162 991 475 c 2
 991 1316 l 2
 991 1619 833 1781 551 1781 c 0
 269 1781 105 1619 105 1316 c 2
 105 475 l 2
 105 162 263 -21 551 -21 c 0
EndSplineSet
EndChar

StartChar: P
Encoding: 80 80 82
Width: 834
VWidth: 0
Flags: W
PickledData: "(dp1
S'com.typemytype.robofont.layerData'
p2
(dp3
S'b'
(dp4
S'name'
p5
S'P'
sS'lib'
p6
(dp7
sS'unicodes'
p8
(tsS'width'
p9
I834
sS'contours'
p10
((dp11
S'points'
p12
((dp13
S'segmentType'
p14
S'curve'
p15
sS'x'
F644
sS'smooth'
p16
I01
sS'y'
F1230
s(dp17
S'y'
F1061
sS'x'
F644
sg16
I00
s(dp18
S'y'
F993
sS'x'
F636
sg16
I00
s(dp19
g14
S'curve'
p20
sS'x'
F522
sg16
I01
sS'y'
F993
s(dp21
g14
S'line'
p22
sS'x'
F482
sg16
I00
sS'y'
F993
s(dp23
g14
S'line'
p24
sS'x'
F482
sg16
I00
sS'y'
F1490
s(dp25
g14
S'line'
p26
sS'x'
F521
sg16
I01
sS'y'
F1490
s(dp27
S'y'
F1490
sS'x'
F634
sg16
I00
s(dp28
S'y'
F1391
sS'x'
F644
sg16
I00
stp29
s(dp30
g12
((dp31
g14
S'curve'
p32
sS'x'
F1004
sg16
I01
sS'y'
F1224
s(dp33
S'y'
F1600
sS'x'
F1004
sg16
I00
s(dp34
S'y'
F1761
sS'x'
F893
sg16
I00
s(dp35
g14
S'curve'
p36
sS'x'
F601
sg16
I01
sS'y'
F1761
s(dp37
g14
S'line'
p38
sS'x'
F122
sg16
I00
sS'y'
F1761
s(dp39
g14
S'line'
p40
sS'x'
F122
sg16
I00
sS'y'
F0
s(dp41
g14
S'line'
p42
sS'x'
F482
sg16
I00
sS'y'
F0
s(dp43
g14
S'line'
p44
sS'x'
F482
sg16
I00
sS'y'
F697
s(dp45
g14
S'line'
p46
sS'x'
F625
sg16
I01
sS'y'
F697
s(dp47
S'y'
F697
sS'x'
F917
sg16
I00
s(dp48
S'y'
F903
sS'x'
F1004
sg16
I00
stp49
stp50
sS'components'
p51
(tsS'anchors'
p52
(tsss."
LayerCount: 2
Fore
SplineSet
300 1761 m 1
 132 1761 l 1
 132 0 l 1
 300 0 l 1
 300 1761 l 1
300 831 m 1
 300 1623 l 1
 454 1623 l 2
 576 1623 600 1510 600 1263 c 2
 600 1229 l 2
 600 928 571 831 448 831 c 2
 300 831 l 1
448 690 m 2
 706 690 768 867 768 1230 c 2
 768 1251 l 2
 768 1554 736 1768 454 1768 c 2
 132 1768 l 1
 132 690 l 1
 448 690 l 2
EndSplineSet
EndChar

StartChar: Q
Encoding: 81 81 83
Width: 864
VWidth: 0
Flags: W
PickledData: "(dp1
S'com.typemytype.robofont.layerData'
p2
(dp3
S'b'
(dp4
S'name'
p5
S'Q'
sS'lib'
p6
(dp7
sS'unicodes'
p8
(tsS'width'
p9
I864
sS'contours'
p10
(tsS'components'
p11
(tsS'anchors'
p12
(tsss."
LayerCount: 2
Fore
SplineSet
637 -254 m 1
 719 -176 l 1
 535 37 l 1
 416 -15 l 1
 637 -254 l 1
EndSplineSet
Refer: 71 79 N 1 0 0 1 0 0 2
EndChar

StartChar: R
Encoding: 82 82 84
Width: 876
VWidth: 0
Flags: W
PickledData: "(dp1
S'com.typemytype.robofont.layerData'
p2
(dp3
S'b'
(dp4
S'name'
p5
S'R'
sS'lib'
p6
(dp7
sS'unicodes'
p8
(tsS'width'
p9
I876
sS'contours'
p10
((dp11
S'points'
p12
((dp13
S'segmentType'
p14
S'curve'
p15
sS'x'
F836
sS'smooth'
p16
I00
sS'y'
F938
s(dp17
S'y'
F982
sS'x'
F970
sg16
I00
s(dp18
S'y'
F1077
sS'x'
F994
sg16
I00
s(dp19
g14
S'curve'
p20
sS'x'
F994
sg16
I01
sS'y'
F1269
s(dp21
S'y'
F1566
sS'x'
F994
sg16
I00
s(dp22
S'y'
F1761
sS'x'
F944
sg16
I00
s(dp23
g14
S'curve'
p24
sS'x'
F674
sg16
I01
sS'y'
F1761
s(dp25
g14
S'line'
p26
sS'x'
F122
sg16
I00
sS'y'
F1761
s(dp27
g14
S'line'
p28
sS'x'
F122
sg16
I00
sS'y'
F0
s(dp29
g14
S'line'
p30
sS'x'
F480
sg16
I00
sS'y'
F0
s(dp31
g14
S'line'
p32
sS'x'
F480
sg16
I00
sS'y'
F803
s(dp33
S'y'
F803
sS'x'
F573
sg16
I00
s(dp34
S'y'
F792
sS'x'
F640
sg16
I00
s(dp35
g14
S'curve'
p36
sS'x'
F640
sg16
I01
sS'y'
F689
s(dp37
g14
S'line'
p38
sS'x'
F640
sg16
I00
sS'y'
F0
s(dp39
g14
S'line'
p40
sS'x'
F1001
sg16
I00
sS'y'
F0
s(dp41
g14
S'line'
p42
sS'x'
F1002
sg16
I01
sS'y'
F666
s(dp43
S'y'
F805
sS'x'
F1002
sg16
I00
s(dp44
S'y'
F915
sS'x'
F946
sg16
I00
stp45
s(dp46
g12
((dp47
g14
S'curve'
p48
sS'x'
F640
sg16
I01
sS'y'
F1305
s(dp49
S'y'
F1154
sS'x'
F640
sg16
I00
s(dp50
S'y'
F1094
sS'x'
F626
sg16
I00
s(dp51
g14
S'curve'
p52
sS'x'
F550
sg16
I01
sS'y'
F1094
s(dp53
g14
S'line'
p54
sS'x'
F482
sg16
I00
sS'y'
F1094
s(dp55
g14
S'line'
p56
sS'x'
F482
sg16
I00
sS'y'
F1490
s(dp57
g14
S'line'
p58
sS'x'
F515
sg16
I01
sS'y'
F1490
s(dp59
S'y'
F1490
sS'x'
F633
sg16
I00
s(dp60
S'y'
F1442
sS'x'
F640
sg16
I00
stp61
stp62
sS'components'
p63
(tsS'anchors'
p64
(tsss."
LayerCount: 2
Fore
SplineSet
300 1761 m 1
 132 1761 l 1
 132 0 l 1
 300 0 l 1
 300 1761 l 1
788 0 m 1
 768 53 768 137 768 210 c 2
 768 572 l 2
 768 768 740 904 606 926 c 1
 730 961 768 1098 768 1321 c 0
 768 1624 736 1768 454 1768 c 2
 132 1768 l 1
 132 873 l 1
 447 853 l 1
 599 853 600 796 600 569 c 2
 600 220 l 2
 600 137 601 37 620 0 c 1
 788 0 l 1
300 979 m 1
 300 1623 l 1
 454 1623 l 2
 576 1623 600 1580 600 1333 c 2
 600 1320 l 2
 600 1019 571 979 448 979 c 2
 300 979 l 1
EndSplineSet
EndChar

StartChar: Racute
Encoding: 340 340 85
Width: 1109
VWidth: 0
Flags: W
PickledData: "(dp1
S'com.typemytype.robofont.layerData'
p2
(dp3
S'b'
(dp4
S'name'
p5
S'Racute'
p6
sS'lib'
p7
(dp8
sS'unicodes'
p9
(tsS'width'
p10
I1109
sS'contours'
p11
(tsS'components'
p12
(tsS'anchors'
p13
(tsss."
LayerCount: 2
Fore
SplineSet
324.5 1944 m 1
 799.5 2038 l 1
 799.5 2385 l 1
 324.5 2167 l 1
 324.5 1944 l 1
640 1305 m 0
 640 1154 626 1094 550 1094 c 2
 482 1094 l 1
 482 1490 l 1
 515 1490 l 2
 633 1490 640 1442 640 1305 c 0
836 938 m 1
 970 982 994 1077 994 1269 c 0
 994 1566 944 1761 674 1761 c 2
 122 1761 l 1
 122 0 l 1
 480 0 l 1
 480 803 l 1
 573 803 640 792 640 689 c 2
 640 0 l 1
 1001 0 l 1
 1002 666 l 2
 1002 805 946 915 836 938 c 1
EndSplineSet
EndChar

StartChar: Rcaron
Encoding: 344 344 86
Width: 1109
VWidth: 0
Flags: W
PickledData: "(dp1
S'com.typemytype.robofont.layerData'
p2
(dp3
S'b'
(dp4
S'name'
p5
S'Rcaron'
p6
sS'lib'
p7
(dp8
sS'unicodes'
p9
(tsS'width'
p10
I1109
sS'contours'
p11
(tsS'components'
p12
(tsS'anchors'
p13
(tsss."
LayerCount: 2
Fore
SplineSet
766 1944 m 1
 1007 2347 l 1
 648 2347 l 1
 562 2062 l 1
 476 2347 l 1
 117 2347 l 1
 358 1944 l 1
 766 1944 l 1
640 1305 m 0
 640 1154 626 1094 550 1094 c 2
 482 1094 l 1
 482 1490 l 1
 515 1490 l 2
 633 1490 640 1442 640 1305 c 0
836 938 m 1
 970 982 994 1077 994 1269 c 0
 994 1566 944 1761 674 1761 c 2
 122 1761 l 1
 122 0 l 1
 480 0 l 1
 480 803 l 1
 573 803 640 792 640 689 c 2
 640 0 l 1
 1001 0 l 1
 1002 666 l 2
 1002 805 946 915 836 938 c 1
EndSplineSet
EndChar

StartChar: Rcommaaccent
Encoding: 342 342 87
Width: 1109
VWidth: 0
Flags: W
PickledData: "(dp1
S'com.typemytype.robofont.layerData'
p2
(dp3
S'b'
(dp4
S'name'
p5
S'Rcommaaccent'
p6
sS'lib'
p7
(dp8
sS'unicodes'
p9
(tsS'width'
p10
I1109
sS'contours'
p11
(tsS'components'
p12
(tsS'anchors'
p13
(tsss."
LayerCount: 2
Fore
SplineSet
457.5 -809 m 1
 625.5 -809 l 1
 727.5 -472 l 1
 727.5 -163 l 1
 396.5 -163 l 1
 396.5 -481 l 1
 523.5 -481 l 1
 457.5 -809 l 1
640 1305 m 0
 640 1154 626 1094 550 1094 c 2
 482 1094 l 1
 482 1490 l 1
 515 1490 l 2
 633 1490 640 1442 640 1305 c 0
836 938 m 1
 970 982 994 1077 994 1269 c 0
 994 1566 944 1761 674 1761 c 2
 122 1761 l 1
 122 0 l 1
 480 0 l 1
 480 803 l 1
 573 803 640 792 640 689 c 2
 640 0 l 1
 1001 0 l 1
 1002 666 l 2
 1002 805 946 915 836 938 c 1
EndSplineSet
EndChar

StartChar: S
Encoding: 83 83 88
Width: 844
VWidth: 0
Flags: W
PickledData: "(dp1
S'com.typemytype.robofont.guides'
p2
((dp3
S'angle'
p4
F90
sS'name'
p5
NsS'magnetic'
p6
I5
sS'isGlobal'
p7
I00
sS'y'
I1429
sS'x'
I498
stp8
sS'com.typemytype.robofont.layerData'
p9
(dp10
S'b'
(dp11
g5
S'S'
sS'lib'
p12
(dp13
sS'unicodes'
p14
(tsS'width'
p15
I844
sS'contours'
p16
((dp17
S'points'
p18
((dp19
S'segmentType'
p20
S'curve'
p21
sS'x'
F450
sS'smooth'
p22
I01
sS'y'
F-21
s(dp23
S'y'
F-21
sS'x'
F766
sg22
I00
s(dp24
S'y'
F153
sS'x'
F857
sg22
I00
s(dp25
g20
S'curve'
p26
sS'x'
F857
sg22
I01
sS'y'
F484
s(dp27
S'y'
F723
sS'x'
F857
sg22
I00
s(dp28
S'y'
F841
sS'x'
F757
sg22
I00
s(dp29
g20
S'curve'
p30
sS'x'
F631
sg22
I01
sS'y'
F981
s(dp31
g20
S'line'
p32
sS'x'
F448
sg22
I01
sS'y'
F1185
s(dp33
S'y'
F1275
sS'x'
F368
sg22
I00
s(dp34
S'y'
F1334
sS'x'
F356
sg22
I00
s(dp35
g20
S'curve'
p36
sS'x'
F356
sg22
I01
sS'y'
F1383
s(dp37
S'y'
F1452
sS'x'
F356
sg22
I00
s(dp38
S'y'
F1474
sS'x'
F391
sg22
I00
s(dp39
g20
S'curve'
p40
sS'x'
F436
sg22
I01
sS'y'
F1474
s(dp41
S'y'
F1474
sS'x'
F470
sg22
I00
s(dp42
S'y'
F1453
sS'x'
F519
sg22
I00
s(dp43
g20
S'curve'
p44
sS'x'
F519
sg22
I01
sS'y'
F1361
s(dp45
g20
S'line'
p46
sS'x'
F519
sg22
I00
sS'y'
F1224
s(dp47
g20
S'line'
p48
sS'x'
F838
sg22
I00
sS'y'
F1224
s(dp49
g20
S'line'
p50
sS'x'
F838
sg22
I01
sS'y'
F1339
s(dp51
S'y'
F1693
sS'x'
F838
sg22
I00
s(dp52
S'y'
F1781
sS'x'
F718
sg22
I00
s(dp53
g20
S'curve'
p54
sS'x'
F441
sg22
I01
sS'y'
F1781
s(dp55
S'y'
F1781
sS'x'
F176
sg22
I00
s(dp56
S'y'
F1668
sS'x'
F23
sg22
I00
s(dp57
g20
S'curve'
p58
sS'x'
F23
sg22
I01
sS'y'
F1355
s(dp59
S'y'
F1182
sS'x'
F23
sg22
I00
s(dp60
S'y'
F1038
sS'x'
F72
sg22
I00
s(dp61
g20
S'curve'
p62
sS'x'
F191
sg22
I01
sS'y'
F909
s(dp63
g20
S'line'
p64
sS'x'
F342
sg22
I01
sS'y'
F746
s(dp65
S'y'
F608
sS'x'
F469
sg22
I00
s(dp66
S'y'
F551
sS'x'
F519
sg22
I00
s(dp67
g20
S'curve'
p68
sS'x'
F519
sg22
I01
sS'y'
F419
s(dp69
S'y'
F333
sS'x'
F519
sg22
I00
s(dp70
S'y'
F294
sS'x'
F494
sg22
I00
s(dp71
g20
S'curve'
p72
sS'x'
F441
sg22
I01
sS'y'
F294
s(dp73
S'y'
F294
sS'x'
F387
sg22
I00
s(dp74
S'y'
F327
sS'x'
F359
sg22
I00
s(dp75
g20
S'curve'
p76
sS'x'
F359
sg22
I01
sS'y'
F440
s(dp77
g20
S'line'
p78
sS'x'
F359
sg22
I00
sS'y'
F610
s(dp79
g20
S'line'
p80
sS'x'
F27
sg22
I00
sS'y'
F610
s(dp81
g20
S'line'
p82
sS'x'
F27
sg22
I01
sS'y'
F473
s(dp83
S'y'
F123
sS'x'
F27
sg22
I00
s(dp84
S'y'
F-21
sS'x'
F144
sg22
I00
stp85
stp86
sS'components'
p87
(tsS'anchors'
p88
(tsss."
LayerCount: 2
Fore
SplineSet
597 488 m 0
 604 243 579 123 451 123 c 0
 329 123 295 249 295 496 c 2
 295 697 l 1
 127 697 l 1
 127 508 l 2
 127 205 162 -22 444 -22 c 0
 726 -22 771 185 765 488 c 0
 756 922 300 983 283 1286 c 0
 269 1531 308 1636 436 1636 c 0
 558 1636 570 1510 570 1263 c 2
 570 1097 l 1
 738 1097 l 1
 738 1251 l 2
 738 1554 722 1781 440 1781 c 0
 158 1781 109 1588 115 1285 c 0
 123 871 588 814 597 488 c 0
EndSplineSet
EndChar

StartChar: Sacute
Encoding: 346 346 89
Width: 973
VWidth: 0
Flags: W
PickledData: "(dp1
S'com.typemytype.robofont.layerData'
p2
(dp3
S'b'
(dp4
S'name'
p5
S'Sacute'
p6
sS'lib'
p7
(dp8
sS'unicodes'
p9
(tsS'width'
p10
I973
sS'contours'
p11
(tsS'components'
p12
(tsS'anchors'
p13
(tsss."
LayerCount: 2
Fore
SplineSet
264.5 1944 m 1
 739.5 2038 l 1
 739.5 2385 l 1
 264.5 2167 l 1
 264.5 1944 l 1
512 -21 m 0
 828 -21 919 153 919 484 c 0
 919 723 819 841 693 981 c 2
 510 1185 l 2
 430 1275 418 1334 418 1383 c 0
 418 1452 453 1474 498 1474 c 0
 532 1474 581 1453 581 1361 c 2
 581 1224 l 1
 900 1224 l 1
 900 1339 l 2
 900 1693 780 1781 503 1781 c 0
 238 1781 85 1668 85 1355 c 0
 85 1182 134 1038 253 909 c 2
 404 746 l 2
 531 608 581 551 581 419 c 0
 581 333 556 294 503 294 c 0
 449 294 421 327 421 440 c 2
 421 610 l 1
 89 610 l 1
 89 473 l 2
 89 123 206 -21 512 -21 c 0
EndSplineSet
EndChar

StartChar: Scaron
Encoding: 352 352 90
Width: 973
VWidth: 0
Flags: W
PickledData: "(dp1
S'com.typemytype.robofont.layerData'
p2
(dp3
S'b'
(dp4
S'name'
p5
S'Scaron'
p6
sS'lib'
p7
(dp8
sS'unicodes'
p9
(tsS'width'
p10
I973
sS'contours'
p11
(tsS'components'
p12
(tsS'anchors'
p13
(tsss."
LayerCount: 2
Fore
SplineSet
706 1944 m 1
 947 2347 l 1
 588 2347 l 1
 502 2062 l 1
 416 2347 l 1
 57 2347 l 1
 298 1944 l 1
 706 1944 l 1
512 -21 m 0
 828 -21 919 153 919 484 c 0
 919 723 819 841 693 981 c 2
 510 1185 l 2
 430 1275 418 1334 418 1383 c 0
 418 1452 453 1474 498 1474 c 0
 532 1474 581 1453 581 1361 c 2
 581 1224 l 1
 900 1224 l 1
 900 1339 l 2
 900 1693 780 1781 503 1781 c 0
 238 1781 85 1668 85 1355 c 0
 85 1182 134 1038 253 909 c 2
 404 746 l 2
 531 608 581 551 581 419 c 0
 581 333 556 294 503 294 c 0
 449 294 421 327 421 440 c 2
 421 610 l 1
 89 610 l 1
 89 473 l 2
 89 123 206 -21 512 -21 c 0
EndSplineSet
EndChar

StartChar: Scedilla
Encoding: 350 350 91
Width: 973
VWidth: 0
Flags: W
PickledData: "(dp1
S'com.typemytype.robofont.layerData'
p2
(dp3
S'b'
(dp4
S'name'
p5
S'Scedilla'
p6
sS'lib'
p7
(dp8
sS'unicodes'
p9
(tsS'width'
p10
I973
sS'contours'
p11
(tsS'components'
p12
(tsS'anchors'
p13
(tsss."
LayerCount: 2
Fore
SplineSet
538.5 -669.633789062 m 0
 740.967773438 -669.633789062 838.13671875 -544.073242188 838.13671875 -409.908203125 c 0
 838.13671875 -282.572265625 740.608398438 -177.485351562 572.5 -134.633789062 c 1
 552.5 1.3662109375 l 1
 451.5 1.3662109375 l 1
 411.5 -194.633789062 l 1
 493.5 -212.633789062 571.5 -267.633789062 571.5 -357.633789062 c 0
 571.5 -432.633789062 529.5 -499.633789062 340.5 -499.633789062 c 1
 340.5 -629.633789062 l 1
 404.5 -656.633789062 470.5 -669.633789062 538.5 -669.633789062 c 0
512 -21 m 0
 828 -21 919 153 919 484 c 0
 919 723 819 841 693 981 c 2
 510 1185 l 2
 430 1275 418 1334 418 1383 c 0
 418 1452 453 1474 498 1474 c 0
 532 1474 581 1453 581 1361 c 2
 581 1224 l 1
 900 1224 l 1
 900 1339 l 2
 900 1693 780 1781 503 1781 c 0
 238 1781 85 1668 85 1355 c 0
 85 1182 134 1038 253 909 c 2
 404 746 l 2
 531 608 581 551 581 419 c 0
 581 333 556 294 503 294 c 0
 449 294 421 327 421 440 c 2
 421 610 l 1
 89 610 l 1
 89 473 l 2
 89 123 206 -21 512 -21 c 0
EndSplineSet
EndChar

StartChar: Scircumflex
Encoding: 348 348 92
Width: 973
VWidth: 0
Flags: W
PickledData: "(dp1
S'com.typemytype.robofont.layerData'
p2
(dp3
S'b'
(dp4
S'name'
p5
S'Scircumflex'
p6
sS'lib'
p7
(dp8
sS'unicodes'
p9
(tsS'width'
p10
I973
sS'contours'
p11
(tsS'components'
p12
(tsS'anchors'
p13
(tsss."
LayerCount: 2
Fore
SplineSet
706 2347 m 1
 298 2347 l 1
 57 1944 l 1
 416 1944 l 1
 502 2229 l 1
 588 1944 l 1
 947 1944 l 1
 706 2347 l 1
512 -21 m 0
 828 -21 919 153 919 484 c 0
 919 723 819 841 693 981 c 2
 510 1185 l 2
 430 1275 418 1334 418 1383 c 0
 418 1452 453 1474 498 1474 c 0
 532 1474 581 1453 581 1361 c 2
 581 1224 l 1
 900 1224 l 1
 900 1339 l 2
 900 1693 780 1781 503 1781 c 0
 238 1781 85 1668 85 1355 c 0
 85 1182 134 1038 253 909 c 2
 404 746 l 2
 531 608 581 551 581 419 c 0
 581 333 556 294 503 294 c 0
 449 294 421 327 421 440 c 2
 421 610 l 1
 89 610 l 1
 89 473 l 2
 89 123 206 -21 512 -21 c 0
EndSplineSet
EndChar

StartChar: Scommaaccent
Encoding: 536 536 93
Width: 973
VWidth: 0
Flags: W
PickledData: "(dp1
S'com.typemytype.robofont.layerData'
p2
(dp3
S'b'
(dp4
S'name'
p5
S'Scommaaccent'
p6
sS'lib'
p7
(dp8
sS'unicodes'
p9
(tsS'width'
p10
I973
sS'contours'
p11
(tsS'components'
p12
(tsS'anchors'
p13
(tsss."
LayerCount: 2
Fore
SplineSet
397.5 -830 m 1
 565.5 -830 l 1
 667.5 -493 l 1
 667.5 -184 l 1
 336.5 -184 l 1
 336.5 -502 l 1
 463.5 -502 l 1
 397.5 -830 l 1
512 -21 m 0
 828 -21 919 153 919 484 c 0
 919 723 819 841 693 981 c 2
 510 1185 l 2
 430 1275 418 1334 418 1383 c 0
 418 1452 453 1474 498 1474 c 0
 532 1474 581 1453 581 1361 c 2
 581 1224 l 1
 900 1224 l 1
 900 1339 l 2
 900 1693 780 1781 503 1781 c 0
 238 1781 85 1668 85 1355 c 0
 85 1182 134 1038 253 909 c 2
 404 746 l 2
 531 608 581 551 581 419 c 0
 581 333 556 294 503 294 c 0
 449 294 421 327 421 440 c 2
 421 610 l 1
 89 610 l 1
 89 473 l 2
 89 123 206 -21 512 -21 c 0
EndSplineSet
EndChar

StartChar: T
Encoding: 84 84 94
Width: 515
VWidth: 0
Flags: W
PickledData: "(dp1
S'com.typemytype.robofont.layerData'
p2
(dp3
S'b'
(dp4
S'name'
p5
S'L'
sS'lib'
p6
(dp7
sS'unicodes'
p8
(tsS'width'
p9
I515
sS'contours'
p10
((dp11
S'points'
p12
((dp13
S'segmentType'
p14
S'line'
p15
sS'x'
F719
sS'smooth'
p16
I00
sS'y'
F318
s(dp17
g14
S'line'
p18
sS'x'
F357
sg16
I00
sS'y'
F318
s(dp19
g14
S'line'
p20
sS'x'
F357
sg16
I00
sS'y'
F1761
s(dp21
g14
S'line'
p22
sS'x'
F5
sg16
I00
sS'y'
F1761
s(dp23
g14
S'line'
p24
sS'x'
F5
sg16
I00
sS'y'
F0
s(dp25
g14
S'line'
p26
sS'x'
F719
sg16
I00
sS'y'
F0
stp27
stp28
sS'components'
p29
(tsS'anchors'
p30
(tsss."
LayerCount: 2
Fore
SplineSet
15 1761 m 1
 500 1761 l 1
 500 1625 l 1
 15 1625 l 1
 15 1761 l 1
350 1761 m 1
 350 0 l 1
 182 0 l 1
 182 1761 l 1
 350 1761 l 1
EndSplineSet
EndChar

StartChar: Tcaron
Encoding: 356 356 95
Width: 834
VWidth: 0
Flags: W
PickledData: "(dp1
S'com.typemytype.robofont.layerData'
p2
(dp3
S'b'
(dp4
S'name'
p5
S'Tcaron'
p6
sS'lib'
p7
(dp8
sS'unicodes'
p9
(tsS'width'
p10
I834
sS'contours'
p11
(tsS'components'
p12
(tsS'anchors'
p13
(tsss."
LayerCount: 2
Fore
SplineSet
621 1944 m 1
 862 2347 l 1
 503 2347 l 1
 417 2062 l 1
 331 2347 l 1
 -28 2347 l 1
 213 1944 l 1
 621 1944 l 1
237 1439 m 1
 237 0 l 1
 597 0 l 1
 597 1439 l 1
 802 1439 l 1
 802 1761 l 1
 32 1761 l 1
 32 1439 l 1
 237 1439 l 1
EndSplineSet
EndChar

StartChar: Tcommaaccent
Encoding: 354 354 96
Width: 834
VWidth: 0
Flags: W
PickledData: "(dp1
S'com.typemytype.robofont.layerData'
p2
(dp3
S'b'
(dp4
S'name'
p5
S'Tcommaaccent'
p6
sS'lib'
p7
(dp8
sS'unicodes'
p9
(tsS'width'
p10
I834
sS'contours'
p11
(tsS'components'
p12
(tsS'anchors'
p13
(tsss."
LayerCount: 2
Fore
SplineSet
413.5 -648.6328125 m 0
 615.967773438 -648.6328125 713.13671875 -523.072265625 713.13671875 -388.907226562 c 0
 713.13671875 -261.571289062 615.608398438 -156.484375 447.5 -113.6328125 c 1
 427.5 22.3671875 l 1
 326.5 22.3671875 l 1
 286.5 -173.6328125 l 1
 368.5 -191.6328125 446.5 -246.6328125 446.5 -336.6328125 c 0
 446.5 -411.6328125 404.5 -478.6328125 215.5 -478.6328125 c 1
 215.5 -608.6328125 l 1
 279.5 -635.6328125 345.5 -648.6328125 413.5 -648.6328125 c 0
237 1439 m 1
 237 0 l 1
 597 0 l 1
 597 1439 l 1
 802 1439 l 1
 802 1761 l 1
 32 1761 l 1
 32 1439 l 1
 237 1439 l 1
EndSplineSet
EndChar

StartChar: Thorn
Encoding: 222 222 97
Width: 1064
VWidth: 0
Flags: W
PickledData: "(dp1
S'com.typemytype.robofont.layerData'
p2
(dp3
S'b'
(dp4
S'name'
p5
S'Thorn'
p6
sS'lib'
p7
(dp8
sS'unicodes'
p9
(tsS'width'
p10
I1064
sS'contours'
p11
(tsS'components'
p12
(tsS'anchors'
p13
(tsss."
LayerCount: 2
Fore
SplineSet
482 684 m 1
 482 1223 l 1
 521 1223 l 2
 634 1223 644 1104 644 943 c 0
 644 774 636 684 522 684 c 2
 482 684 l 1
122 0 m 1
 482 0 l 1
 482 388 l 1
 625 388 l 2
 917 388 1004 616 1004 937 c 0
 1004 1313 893 1494 601 1494 c 2
 482 1494 l 1
 482 1761 l 1
 122 1761 l 1
 122 0 l 1
EndSplineSet
EndChar

StartChar: U
Encoding: 85 85 98
Width: 890
VWidth: 0
Flags: W
PickledData: "(dp1
S'com.typemytype.robofont.guides'
p2
((dp3
S'angle'
p4
F90
sS'name'
p5
NsS'magnetic'
p6
I5
sS'isGlobal'
p7
I00
sS'y'
I42
sS'x'
I556
stp8
sS'com.typemytype.robofont.layerData'
p9
(dp10
S'b'
(dp11
g5
S'U'
sS'lib'
p12
(dp13
sS'unicodes'
p14
(tsS'width'
p15
F890
sS'contours'
p16
((dp17
S'points'
p18
((dp19
S'segmentType'
p20
S'curve'
p21
sS'x'
F447
sS'smooth'
p22
I01
sS'y'
F-22
s(dp23
S'y'
F-22
sS'x'
F705
sg22
I00
s(dp24
S'y'
F176
sS'x'
F767
sg22
I00
s(dp25
g20
S'curve'
p26
sS'x'
F767
sg22
I01
sS'y'
F539
s(dp27
g20
S'line'
p28
sS'x'
F767
sg22
I01
sS'y'
F1250
s(dp29
S'y'
F1553
sS'x'
F767
sg22
I00
s(dp30
S'y'
F1780
sS'x'
F735
sg22
I00
s(dp31
g20
S'curve'
p32
sS'x'
F453
sg22
I01
sS'y'
F1780
s(dp33
S'y'
F1780
sS'x'
F171
sg22
I00
s(dp34
S'y'
F1553
sS'x'
F123
sg22
I00
s(dp35
g20
S'curve'
p36
sS'x'
F123
sg22
I01
sS'y'
F1250
s(dp37
g20
S'line'
p38
sS'x'
F123
sg22
I01
sS'y'
F539
s(dp39
S'y'
F176
sS'x'
F123
sg22
I00
s(dp40
S'y'
F-22
sS'x'
F189
sg22
I00
stp41
s(dp42
g18
((dp43
g20
S'line'
p44
sS'x'
F291
sg22
I01
sS'y'
F1263
s(dp45
S'y'
F1508
sS'x'
F291
sg22
I00
s(dp46
S'y'
F1635
sS'x'
F325
sg22
I00
s(dp47
g20
S'curve'
p48
sS'x'
F453
sg22
I01
sS'y'
F1635
s(dp49
S'y'
F1635
sS'x'
F575
sg22
I00
s(dp50
S'y'
F1509
sS'x'
F599
sg22
I00
s(dp51
g20
S'curve'
p52
sS'x'
F599
sg22
I01
sS'y'
F1262
s(dp53
g20
S'line'
p54
sS'x'
F599
sg22
I01
sS'y'
F538
s(dp55
S'y'
F237
sS'x'
F599
sg22
I00
s(dp56
S'y'
F119
sS'x'
F570
sg22
I00
s(dp57
g20
S'curve'
p58
sS'x'
F447
sg22
I01
sS'y'
F119
s(dp59
S'y'
F119
sS'x'
F318
sg22
I00
s(dp60
S'y'
F236
sS'x'
F291
sg22
I00
s(dp61
g20
S'curve'
p62
sS'x'
F291
sg22
I01
sS'y'
F538
stp63
stp64
sS'components'
p65
(tsS'anchors'
p66
(tsss."
LayerCount: 2
Fore
SplineSet
447 -21 m 0
 700 -21 767 132 767 452 c 2
 767 1761 l 1
 599 1761 l 1
 599 456 l 2
 599 240 598 119 447 119 c 0
 297 119 291 241 291 457 c 2
 291 1761 l 1
 123 1761 l 1
 123 452 l 2
 123 132 194 -21 447 -21 c 0
EndSplineSet
EndChar

StartChar: Uacute
Encoding: 218 218 99
Width: 1110
VWidth: 0
Flags: W
PickledData: "(dp1
S'com.typemytype.robofont.layerData'
p2
(dp3
S'b'
(dp4
S'name'
p5
S'Uacute'
p6
sS'lib'
p7
(dp8
sS'unicodes'
p9
(tsS'width'
p10
I1110
sS'contours'
p11
(tsS'components'
p12
(tsS'anchors'
p13
(tsss."
LayerCount: 2
Fore
SplineSet
317.5 1944 m 1
 792.5 2038 l 1
 792.5 2385 l 1
 317.5 2167 l 1
 317.5 1944 l 1
556 -21 m 0
 849 -21 1000 132 1000 452 c 2
 1000 1761 l 1
 640 1761 l 1
 640 457 l 2
 640 368 635 294 554 294 c 0
 474 294 470 369 470 457 c 2
 470 1761 l 1
 110 1761 l 1
 110 452 l 2
 110 132 263 -21 556 -21 c 0
EndSplineSet
EndChar

StartChar: Ubreve
Encoding: 364 364 100
Width: 1110
VWidth: 0
Flags: W
PickledData: "(dp1
S'com.typemytype.robofont.layerData'
p2
(dp3
S'b'
(dp4
S'name'
p5
S'Ubreve'
p6
sS'lib'
p7
(dp8
sS'unicodes'
p9
(tsS'width'
p10
I1110
sS'contours'
p11
(tsS'components'
p12
(tsS'anchors'
p13
(tsss."
LayerCount: 2
Fore
SplineSet
555 2134 m 0
 472 2134 420 2152 420 2277 c 1
 202 2277 l 1
 202 2262 l 2
 202 2045 319 1944 553 1944 c 0
 793 1944 908 2041 908 2264 c 2
 908 2277 l 1
 690 2277 l 1
 690 2152 638 2134 555 2134 c 0
556 -21 m 0
 849 -21 1000 132 1000 452 c 2
 1000 1761 l 1
 640 1761 l 1
 640 457 l 2
 640 368 635 294 554 294 c 0
 474 294 470 369 470 457 c 2
 470 1761 l 1
 110 1761 l 1
 110 452 l 2
 110 132 263 -21 556 -21 c 0
EndSplineSet
EndChar

StartChar: Ucircumflex
Encoding: 219 219 101
Width: 1110
VWidth: 0
Flags: W
PickledData: "(dp1
S'com.typemytype.robofont.layerData'
p2
(dp3
S'b'
(dp4
S'name'
p5
S'Ucircumflex'
p6
sS'lib'
p7
(dp8
sS'unicodes'
p9
(tsS'width'
p10
I1110
sS'contours'
p11
(tsS'components'
p12
(tsS'anchors'
p13
(tsss."
LayerCount: 2
Fore
SplineSet
759 2347 m 1
 351 2347 l 1
 110 1944 l 1
 469 1944 l 1
 555 2229 l 1
 641 1944 l 1
 1000 1944 l 1
 759 2347 l 1
556 -21 m 0
 849 -21 1000 132 1000 452 c 2
 1000 1761 l 1
 640 1761 l 1
 640 457 l 2
 640 368 635 294 554 294 c 0
 474 294 470 369 470 457 c 2
 470 1761 l 1
 110 1761 l 1
 110 452 l 2
 110 132 263 -21 556 -21 c 0
EndSplineSet
EndChar

StartChar: Udieresis
Encoding: 220 220 102
Width: 1110
VWidth: 0
Flags: W
PickledData: "(dp1
S'com.typemytype.robofont.layerData'
p2
(dp3
S'b'
(dp4
S'name'
p5
S'Udieresis'
p6
sS'lib'
p7
(dp8
sS'unicodes'
p9
(tsS'width'
p10
I1110
sS'contours'
p11
(tsS'components'
p12
(tsS'anchors'
p13
(tsss."
LayerCount: 2
Fore
SplineSet
618 1944 m 1
 976 1944 l 1
 976 2242 l 1
 618 2242 l 1
 618 1944 l 1
134 1944 m 1
 492 1944 l 1
 492 2242 l 1
 134 2242 l 1
 134 1944 l 1
556 -21 m 0
 849 -21 1000 132 1000 452 c 2
 1000 1761 l 1
 640 1761 l 1
 640 457 l 2
 640 368 635 294 554 294 c 0
 474 294 470 369 470 457 c 2
 470 1761 l 1
 110 1761 l 1
 110 452 l 2
 110 132 263 -21 556 -21 c 0
EndSplineSet
EndChar

StartChar: Ugrave
Encoding: 217 217 103
Width: 1110
VWidth: 0
Flags: W
PickledData: "(dp1
S'com.typemytype.robofont.layerData'
p2
(dp3
S'b'
(dp4
S'name'
p5
S'Ugrave'
p6
sS'lib'
p7
(dp8
sS'unicodes'
p9
(tsS'width'
p10
I1110
sS'contours'
p11
(tsS'components'
p12
(tsS'anchors'
p13
(tsss."
LayerCount: 2
Fore
SplineSet
792.5 1944 m 1
 792.5 2167 l 1
 317.5 2385 l 1
 317.5 2038 l 1
 792.5 1944 l 1
556 -21 m 0
 849 -21 1000 132 1000 452 c 2
 1000 1761 l 1
 640 1761 l 1
 640 457 l 2
 640 368 635 294 554 294 c 0
 474 294 470 369 470 457 c 2
 470 1761 l 1
 110 1761 l 1
 110 452 l 2
 110 132 263 -21 556 -21 c 0
EndSplineSet
EndChar

StartChar: Uhungarumlaut
Encoding: 368 368 104
Width: 1110
VWidth: 0
Flags: W
PickledData: "(dp1
S'com.typemytype.robofont.layerData'
p2
(dp3
S'b'
(dp4
S'name'
p5
S'Uhungarumlaut'
p6
sS'lib'
p7
(dp8
sS'unicodes'
p9
(tsS'width'
p10
I1110
sS'contours'
p11
(tsS'components'
p12
(tsS'anchors'
p13
(tsss."
LayerCount: 2
Fore
SplineSet
756 1944 m 1
 1096 2374 l 1
 851 2485 l 1
 610 2006 l 1
 756 1944 l 1
354 1944 m 1
 633 2374 l 1
 392 2485 l 1
 208 2006 l 1
 354 1944 l 1
556 -21 m 0
 849 -21 1000 132 1000 452 c 2
 1000 1761 l 1
 640 1761 l 1
 640 457 l 2
 640 368 635 294 554 294 c 0
 474 294 470 369 470 457 c 2
 470 1761 l 1
 110 1761 l 1
 110 452 l 2
 110 132 263 -21 556 -21 c 0
EndSplineSet
EndChar

StartChar: Umacron
Encoding: 362 362 105
Width: 1110
VWidth: 0
Flags: W
PickledData: "(dp1
S'com.typemytype.robofont.layerData'
p2
(dp3
S'b'
(dp4
S'name'
p5
S'Umacron'
p6
sS'lib'
p7
(dp8
sS'unicodes'
p9
(tsS'width'
p10
I1110
sS'contours'
p11
(tsS'components'
p12
(tsS'anchors'
p13
(tsss."
LayerCount: 2
Fore
SplineSet
813 2176 m 1
 297 2176 l 1
 297 1944 l 1
 813 1944 l 1
 813 2176 l 1
556 -21 m 0
 849 -21 1000 132 1000 452 c 2
 1000 1761 l 1
 640 1761 l 1
 640 457 l 2
 640 368 635 294 554 294 c 0
 474 294 470 369 470 457 c 2
 470 1761 l 1
 110 1761 l 1
 110 452 l 2
 110 132 263 -21 556 -21 c 0
EndSplineSet
EndChar

StartChar: Uogonek
Encoding: 370 370 106
Width: 1110
VWidth: 0
Flags: W
PickledData: "(dp1
S'com.typemytype.robofont.layerData'
p2
(dp3
S'b'
(dp4
S'name'
p5
S'Uogonek'
p6
sS'lib'
p7
(dp8
sS'unicodes'
p9
(tsS'width'
p10
I1110
sS'contours'
p11
(tsS'components'
p12
(tsS'anchors'
p13
(tsss."
LayerCount: 2
Fore
SplineSet
475.5 -299.133789062 m 0
 475.5 -189.133789062 551.5 -90.1337890625 625.5 -0.1337890625 c 1
 484.5 -0.1337890625 l 1
 308.5 -99.1337890625 230.5 -239.133789062 230.5 -360.133789062 c 0
 230.5 -534.133789062 347.5 -626.133789062 537.5 -626.133789062 c 0
 605.5 -626.133789062 683.5 -604.133789062 706.5 -591.133789062 c 1
 706.5 -418.133789062 l 1
 682.5 -423.133789062 656.5 -426.133789062 631.5 -426.133789062 c 0
 551.5 -426.133789062 475.5 -396.133789062 475.5 -299.133789062 c 0
556 -21 m 0
 849 -21 1000 132 1000 452 c 2
 1000 1761 l 1
 640 1761 l 1
 640 457 l 2
 640 368 635 294 554 294 c 0
 474 294 470 369 470 457 c 2
 470 1761 l 1
 110 1761 l 1
 110 452 l 2
 110 132 263 -21 556 -21 c 0
EndSplineSet
EndChar

StartChar: Uring
Encoding: 366 366 107
Width: 1110
VWidth: 0
Flags: W
PickledData: "(dp1
S'com.typemytype.robofont.layerData'
p2
(dp3
S'b'
(dp4
S'name'
p5
S'Uring'
p6
sS'lib'
p7
(dp8
sS'unicodes'
p9
(tsS'width'
p10
I1110
sS'contours'
p11
(tsS'components'
p12
(tsS'anchors'
p13
(tsss."
LayerCount: 2
Fore
SplineSet
554.5 2002 m 0
 725.5 2002 837.5 2113 837.5 2282 c 0
 837.5 2451 725.5 2562 554.5 2562 c 0
 383.5 2562 272.5 2451 272.5 2282 c 0
 272.5 2112 383.5 2002 554.5 2002 c 0
555.76953125 2129.90722656 m 0
 465.166015625 2129.90722656 420.07421875 2205.86914062 420.07421875 2281.87304688 c 0
 420.07421875 2357.96191406 465.266601562 2434.09277344 555.23046875 2434.09277344 c 0
 645.833984375 2434.09277344 690.92578125 2358.13085938 690.92578125 2282.12695312 c 0
 690.92578125 2206.03808594 645.733398438 2129.90722656 555.76953125 2129.90722656 c 0
556 -21 m 0
 849 -21 1000 132 1000 452 c 2
 1000 1761 l 1
 640 1761 l 1
 640 457 l 2
 640 368 635 294 554 294 c 0
 474 294 470 369 470 457 c 2
 470 1761 l 1
 110 1761 l 1
 110 452 l 2
 110 132 263 -21 556 -21 c 0
EndSplineSet
EndChar

StartChar: Utilde
Encoding: 360 360 108
Width: 1110
VWidth: 0
Flags: W
PickledData: "(dp1
S'com.typemytype.robofont.layerData'
p2
(dp3
S'b'
(dp4
S'name'
p5
S'Utilde'
p6
sS'lib'
p7
(dp8
sS'unicodes'
p9
(tsS'width'
p10
I1110
sS'contours'
p11
(tsS'components'
p12
(tsS'anchors'
p13
(tsss."
LayerCount: 2
Fore
SplineSet
718.5 1944 m 0
 826.5 1944 894.5 2001 914.5 2144 c 2
 923.5 2209 l 1
 752.5 2237 l 1
 731.5 2177 715.5 2169 696.5 2166 c 1
 692.5 2166 l 2
 642.5 2166 479.5 2240 398.5 2240 c 0
 290.5 2240 225.5 2157 186.5 2022 c 1
 345.5 1965 l 1
 363.5 2000 374.5 2019 396.5 2024 c 0
 403.5 2026 411.5 2026 419.5 2026 c 0
 502.5 2026 630.5 1944 718.5 1944 c 0
556 -21 m 0
 849 -21 1000 132 1000 452 c 2
 1000 1761 l 1
 640 1761 l 1
 640 457 l 2
 640 368 635 294 554 294 c 0
 474 294 470 369 470 457 c 2
 470 1761 l 1
 110 1761 l 1
 110 452 l 2
 110 132 263 -21 556 -21 c 0
EndSplineSet
EndChar

StartChar: V
Encoding: 86 86 109
Width: 864
VWidth: 0
Flags: W
PickledData: "(dp1
S'com.typemytype.robofont.layerData'
p2
(dp3
S'b'
(dp4
S'name'
p5
S'A'
sS'lib'
p6
(dp7
sS'unicodes'
p8
(tsS'width'
p9
I864
sS'contours'
p10
((dp11
S'points'
p12
((dp13
S'segmentType'
p14
S'line'
p15
sS'x'
F80
sS'smooth'
p16
I00
sS'y'
F0
s(dp17
g14
S'line'
p18
sS'x'
F442
sg16
I00
sS'y'
F0
s(dp19
g14
S'line'
p20
sS'x'
F464
sg16
I00
sS'y'
F281
s(dp21
g14
S'line'
p22
sS'x'
F676
sg16
I00
sS'y'
F281
s(dp23
g14
S'line'
p24
sS'x'
F701
sg16
I00
sS'y'
F0
s(dp25
g14
S'line'
p26
sS'x'
F1047
sg16
I00
sS'y'
F0
s(dp27
g14
S'line'
p28
sS'x'
F837
sg16
I00
sS'y'
F1761
s(dp29
g14
S'line'
p30
sS'x'
F286
sg16
I00
sS'y'
F1761
stp31
s(dp32
g12
((dp33
g14
S'line'
p34
sS'x'
F489
sg16
I00
sS'y'
F565
s(dp35
g14
S'line'
p36
sS'x'
F562
sg16
I00
sS'y'
F1481
s(dp37
g14
S'line'
p38
sS'x'
F569
sg16
I00
sS'y'
F1481
s(dp39
g14
S'line'
p40
sS'x'
F649
sg16
I00
sS'y'
F565
stp41
stp42
sS'components'
p43
(tsS'anchors'
p44
(tsss."
LayerCount: 2
Fore
SplineSet
530 938 m 1
 362 938 l 1
 362 0 l 1
 530 0 l 1
 530 938 l 1
446 1018 m 1
 209 1761 l 1
 48 1761 l 1
 364 795 l 1
 528 795 l 1
 816 1761 l 1
 656 1761 l 1
 446 1018 l 1
EndSplineSet
EndChar

StartChar: W
Encoding: 87 87 110
Width: 1385
VWidth: 0
Flags: W
PickledData: "(dp1
S'com.typemytype.robofont.layerData'
p2
(dp3
S'b'
(dp4
S'name'
p5
S'W'
sS'lib'
p6
(dp7
sS'unicodes'
p8
(tsS'width'
p9
I1385
sS'contours'
p10
((dp11
S'points'
p12
((dp13
S'segmentType'
p14
S'line'
p15
sS'x'
F8
sS'smooth'
p16
I00
sS'y'
F1761
s(dp17
g14
S'line'
p18
sS'x'
F197
sg16
I00
sS'y'
F0
s(dp19
g14
S'line'
p20
sS'x'
F566
sg16
I00
sS'y'
F0
s(dp21
g14
S'line'
p22
sS'x'
F670
sg16
I00
sS'y'
F977
s(dp23
g14
S'line'
p24
sS'x'
F778
sg16
I00
sS'y'
F0
s(dp25
g14
S'line'
p26
sS'x'
F1140
sg16
I00
sS'y'
F0
s(dp27
g14
S'line'
p28
sS'x'
F1332
sg16
I00
sS'y'
F1761
s(dp29
g14
S'line'
p30
sS'x'
F1014
sg16
I00
sS'y'
F1761
s(dp31
g14
S'line'
p32
sS'x'
F920
sg16
I00
sS'y'
F649
s(dp33
g14
S'line'
p34
sS'x'
F816
sg16
I00
sS'y'
F1761
s(dp35
g14
S'line'
p36
sS'x'
F528
sg16
I00
sS'y'
F1761
s(dp37
g14
S'line'
p38
sS'x'
F419
sg16
I00
sS'y'
F649
s(dp39
g14
S'line'
p40
sS'x'
F322
sg16
I00
sS'y'
F1761
stp41
stp42
sS'components'
p43
(tsS'anchors'
p44
(tsss."
LayerCount: 2
Fore
SplineSet
1004 352 m 1
 774 1761 l 1
 655 1761 l 1
 920 0 l 1
 1086 0 l 1
 1297 1761 l 1
 1140 1761 l 1
 1004 352 l 1
412 352 m 1
 249 1761 l 1
 88 1761 l 1
 331 0 l 1
 489 0 l 1
 774 1761 l 1
 635 1761 l 1
 412 352 l 1
EndSplineSet
EndChar

StartChar: Wacute
Encoding: 7810 7810 111
Width: 1432
VWidth: 0
Flags: W
PickledData: "(dp1
S'com.typemytype.robofont.layerData'
p2
(dp3
S'b'
(dp4
S'name'
p5
S'Wacute'
p6
sS'lib'
p7
(dp8
sS'unicodes'
p9
(tsS'width'
p10
I1432
sS'contours'
p11
(tsS'components'
p12
(tsS'anchors'
p13
(tsss."
LayerCount: 2
Fore
SplineSet
478.5 1944 m 1
 953.5 2038 l 1
 953.5 2385 l 1
 478.5 2167 l 1
 478.5 1944 l 1
54 1761 m 1
 243 0 l 1
 612 0 l 1
 716 977 l 1
 824 0 l 1
 1186 0 l 1
 1378 1761 l 1
 1060 1761 l 1
 966 649 l 1
 862 1761 l 1
 574 1761 l 1
 465 649 l 1
 368 1761 l 1
 54 1761 l 1
EndSplineSet
EndChar

StartChar: Wcircumflex
Encoding: 372 372 112
Width: 1432
VWidth: 0
Flags: W
PickledData: "(dp1
S'com.typemytype.robofont.layerData'
p2
(dp3
S'b'
(dp4
S'name'
p5
S'Wcircumflex'
p6
sS'lib'
p7
(dp8
sS'unicodes'
p9
(tsS'width'
p10
I1432
sS'contours'
p11
(tsS'components'
p12
(tsS'anchors'
p13
(tsss."
LayerCount: 2
Fore
SplineSet
920 2347 m 1
 512 2347 l 1
 271 1944 l 1
 630 1944 l 1
 716 2229 l 1
 802 1944 l 1
 1161 1944 l 1
 920 2347 l 1
54 1761 m 1
 243 0 l 1
 612 0 l 1
 716 977 l 1
 824 0 l 1
 1186 0 l 1
 1378 1761 l 1
 1060 1761 l 1
 966 649 l 1
 862 1761 l 1
 574 1761 l 1
 465 649 l 1
 368 1761 l 1
 54 1761 l 1
EndSplineSet
EndChar

StartChar: Wdieresis
Encoding: 7812 7812 113
Width: 1432
VWidth: 0
Flags: W
PickledData: "(dp1
S'com.typemytype.robofont.layerData'
p2
(dp3
S'b'
(dp4
S'name'
p5
S'Wdieresis'
p6
sS'lib'
p7
(dp8
sS'unicodes'
p9
(tsS'width'
p10
I1432
sS'contours'
p11
(tsS'components'
p12
(tsS'anchors'
p13
(tsss."
LayerCount: 2
Fore
SplineSet
779 1944 m 1
 1137 1944 l 1
 1137 2242 l 1
 779 2242 l 1
 779 1944 l 1
295 1944 m 1
 653 1944 l 1
 653 2242 l 1
 295 2242 l 1
 295 1944 l 1
54 1761 m 1
 243 0 l 1
 612 0 l 1
 716 977 l 1
 824 0 l 1
 1186 0 l 1
 1378 1761 l 1
 1060 1761 l 1
 966 649 l 1
 862 1761 l 1
 574 1761 l 1
 465 649 l 1
 368 1761 l 1
 54 1761 l 1
EndSplineSet
EndChar

StartChar: Wgrave
Encoding: 7808 7808 114
Width: 1432
VWidth: 0
Flags: W
PickledData: "(dp1
S'com.typemytype.robofont.layerData'
p2
(dp3
S'b'
(dp4
S'name'
p5
S'Wgrave'
p6
sS'lib'
p7
(dp8
sS'unicodes'
p9
(tsS'width'
p10
I1432
sS'contours'
p11
(tsS'components'
p12
(tsS'anchors'
p13
(tsss."
LayerCount: 2
Fore
SplineSet
953.5 1944 m 1
 953.5 2167 l 1
 478.5 2385 l 1
 478.5 2038 l 1
 953.5 1944 l 1
54 1761 m 1
 243 0 l 1
 612 0 l 1
 716 977 l 1
 824 0 l 1
 1186 0 l 1
 1378 1761 l 1
 1060 1761 l 1
 966 649 l 1
 862 1761 l 1
 574 1761 l 1
 465 649 l 1
 368 1761 l 1
 54 1761 l 1
EndSplineSet
EndChar

StartChar: X
Encoding: 88 88 115
Width: 710
VWidth: 0
Flags: W
PickledData: "(dp1
S'com.typemytype.robofont.guides'
p2
((dp3
S'angle'
p4
F90
sS'name'
p5
NsS'magnetic'
p6
I5
sS'isGlobal'
p7
I00
sS'y'
I1111
sS'x'
I138
s(dp8
g4
F90
sg5
Nsg6
I5
sg7
I00
sS'y'
I940
sS'x'
I844
stp9
sS'com.typemytype.robofont.layerData'
p10
(dp11
S'b'
(dp12
g5
S'X'
sS'lib'
p13
(dp14
sS'unicodes'
p15
(tsS'width'
p16
I710
sS'contours'
p17
(tsS'components'
p18
(tsS'anchors'
p19
(tsss."
LayerCount: 2
Fore
SplineSet
525 0 m 1
 674 0 l 1
 200 1761 l 1
 48 1761 l 1
 525 0 l 1
181 0 m 1
 673 1761 l 1
 528 1761 l 1
 36 0 l 1
 181 0 l 1
EndSplineSet
EndChar

StartChar: Y
Encoding: 89 89 116
Width: 864
VWidth: 0
Flags: W
PickledData: "(dp1
S'com.typemytype.robofont.layerData'
p2
(dp3
S'b'
(dp4
S'name'
p5
S'A'
sS'lib'
p6
(dp7
sS'unicodes'
p8
(tsS'width'
p9
I864
sS'contours'
p10
((dp11
S'points'
p12
((dp13
S'segmentType'
p14
S'line'
p15
sS'x'
F80
sS'smooth'
p16
I00
sS'y'
F0
s(dp17
g14
S'line'
p18
sS'x'
F442
sg16
I00
sS'y'
F0
s(dp19
g14
S'line'
p20
sS'x'
F464
sg16
I00
sS'y'
F281
s(dp21
g14
S'line'
p22
sS'x'
F676
sg16
I00
sS'y'
F281
s(dp23
g14
S'line'
p24
sS'x'
F701
sg16
I00
sS'y'
F0
s(dp25
g14
S'line'
p26
sS'x'
F1047
sg16
I00
sS'y'
F0
s(dp27
g14
S'line'
p28
sS'x'
F837
sg16
I00
sS'y'
F1761
s(dp29
g14
S'line'
p30
sS'x'
F286
sg16
I00
sS'y'
F1761
stp31
s(dp32
g12
((dp33
g14
S'line'
p34
sS'x'
F489
sg16
I00
sS'y'
F565
s(dp35
g14
S'line'
p36
sS'x'
F562
sg16
I00
sS'y'
F1481
s(dp37
g14
S'line'
p38
sS'x'
F569
sg16
I00
sS'y'
F1481
s(dp39
g14
S'line'
p40
sS'x'
F649
sg16
I00
sS'y'
F565
stp41
stp42
sS'components'
p43
(tsS'anchors'
p44
(tsss."
LayerCount: 2
Fore
SplineSet
446 332 m 1
 209 1761 l 1
 48 1761 l 1
 354 0 l 1
 538 0 l 1
 816 1761 l 1
 656 1761 l 1
 446 332 l 1
EndSplineSet
EndChar

StartChar: Yacute
Encoding: 221 221 117
Width: 931
VWidth: 0
Flags: W
PickledData: "(dp1
S'com.typemytype.robofont.layerData'
p2
(dp3
S'b'
(dp4
S'name'
p5
S'Yacute'
p6
sS'lib'
p7
(dp8
sS'unicodes'
p9
(tsS'width'
p10
I931
sS'contours'
p11
(tsS'components'
p12
(tsS'anchors'
p13
(tsss."
LayerCount: 2
Fore
SplineSet
228 1944 m 1
 703 2038 l 1
 703 2385 l 1
 228 2167 l 1
 228 1944 l 1
912 1761 m 1
 589 1761 l 1
 474 1156 l 1
 469 1156 l 1
 346 1761 l 1
 19 1761 l 1
 300 649 l 1
 300 0 l 1
 632 0 l 1
 632 649 l 1
 912 1761 l 1
EndSplineSet
EndChar

StartChar: Ycircumflex
Encoding: 374 374 118
Width: 931
VWidth: 0
Flags: W
PickledData: "(dp1
S'com.typemytype.robofont.layerData'
p2
(dp3
S'b'
(dp4
S'name'
p5
S'Ycircumflex'
p6
sS'lib'
p7
(dp8
sS'unicodes'
p9
(tsS'width'
p10
I931
sS'contours'
p11
(tsS'components'
p12
(tsS'anchors'
p13
(tsss."
LayerCount: 2
Fore
SplineSet
669.5 2347 m 1
 261.5 2347 l 1
 20.5 1944 l 1
 379.5 1944 l 1
 465.5 2229 l 1
 551.5 1944 l 1
 910.5 1944 l 1
 669.5 2347 l 1
912 1761 m 1
 589 1761 l 1
 474 1156 l 1
 469 1156 l 1
 346 1761 l 1
 19 1761 l 1
 300 649 l 1
 300 0 l 1
 632 0 l 1
 632 649 l 1
 912 1761 l 1
EndSplineSet
EndChar

StartChar: Ydieresis
Encoding: 376 376 119
Width: 931
VWidth: 0
Flags: W
PickledData: "(dp1
S'com.typemytype.robofont.layerData'
p2
(dp3
S'b'
(dp4
S'name'
p5
S'Ydieresis'
p6
sS'lib'
p7
(dp8
sS'unicodes'
p9
(tsS'width'
p10
I931
sS'contours'
p11
(tsS'components'
p12
(tsS'anchors'
p13
(tsss."
LayerCount: 2
Fore
SplineSet
528.5 1944 m 1
 886.5 1944 l 1
 886.5 2242 l 1
 528.5 2242 l 1
 528.5 1944 l 1
44.5 1944 m 1
 402.5 1944 l 1
 402.5 2242 l 1
 44.5 2242 l 1
 44.5 1944 l 1
912 1761 m 1
 589 1761 l 1
 474 1156 l 1
 469 1156 l 1
 346 1761 l 1
 19 1761 l 1
 300 649 l 1
 300 0 l 1
 632 0 l 1
 632 649 l 1
 912 1761 l 1
EndSplineSet
EndChar

StartChar: Ygrave
Encoding: 7922 7922 120
Width: 931
VWidth: 0
Flags: W
PickledData: "(dp1
S'com.typemytype.robofont.layerData'
p2
(dp3
S'b'
(dp4
S'name'
p5
S'Ygrave'
p6
sS'lib'
p7
(dp8
sS'unicodes'
p9
(tsS'width'
p10
I931
sS'contours'
p11
(tsS'components'
p12
(tsS'anchors'
p13
(tsss."
LayerCount: 2
Fore
SplineSet
703 1944 m 1
 703 2167 l 1
 228 2385 l 1
 228 2038 l 1
 703 1944 l 1
912 1761 m 1
 589 1761 l 1
 474 1156 l 1
 469 1156 l 1
 346 1761 l 1
 19 1761 l 1
 300 649 l 1
 300 0 l 1
 632 0 l 1
 632 649 l 1
 912 1761 l 1
EndSplineSet
EndChar

StartChar: Z
Encoding: 90 90 121
Width: 670
VWidth: 0
Flags: W
PickledData: "(dp1
S'com.typemytype.robofont.layerData'
p2
(dp3
S'b'
(dp4
S'name'
p5
S'Z'
sS'lib'
p6
(dp7
sS'unicodes'
p8
(tsS'width'
p9
I670
sS'contours'
p10
(tsS'components'
p11
(tsS'anchors'
p12
(tsss."
LayerCount: 2
Fore
SplineSet
598 136 m 1
 243 136 l 1
 606 1639 l 1
 606 1761 l 1
 105 1761 l 1
 105 1625 l 1
 433 1625 l 1
 72 143 l 1
 72 0 l 1
 598 0 l 1
 598 136 l 1
EndSplineSet
EndChar

StartChar: Zacute
Encoding: 377 377 122
Width: 878
VWidth: 0
Flags: W
PickledData: "(dp1
S'com.typemytype.robofont.layerData'
p2
(dp3
S'b'
(dp4
S'name'
p5
S'Zacute'
p6
sS'lib'
p7
(dp8
sS'unicodes'
p9
(tsS'width'
p10
I878
sS'contours'
p11
(tsS'components'
p12
(tsS'anchors'
p13
(tsss."
LayerCount: 2
Fore
SplineSet
209 1944 m 1
 684 2038 l 1
 684 2385 l 1
 209 2167 l 1
 209 1944 l 1
813 318 m 1
 455 318 l 1
 821 1454 l 1
 821 1761 l 1
 105 1761 l 1
 105 1440 l 1
 440 1440 l 1
 72 325 l 1
 72 0 l 1
 813 0 l 1
 813 318 l 1
EndSplineSet
EndChar

StartChar: Zcaron
Encoding: 381 381 123
Width: 878
VWidth: 0
Flags: W
PickledData: "(dp1
S'com.typemytype.robofont.layerData'
p2
(dp3
S'b'
(dp4
S'name'
p5
S'Zcaron'
p6
sS'lib'
p7
(dp8
sS'unicodes'
p9
(tsS'width'
p10
I878
sS'contours'
p11
(tsS'components'
p12
(tsS'anchors'
p13
(tsss."
LayerCount: 2
Fore
SplineSet
650.5 1944 m 1
 891.5 2347 l 1
 532.5 2347 l 1
 446.5 2062 l 1
 360.5 2347 l 1
 1.5 2347 l 1
 242.5 1944 l 1
 650.5 1944 l 1
813 318 m 1
 455 318 l 1
 821 1454 l 1
 821 1761 l 1
 105 1761 l 1
 105 1440 l 1
 440 1440 l 1
 72 325 l 1
 72 0 l 1
 813 0 l 1
 813 318 l 1
EndSplineSet
EndChar

StartChar: Zdotaccent
Encoding: 379 379 124
Width: 878
VWidth: 0
Flags: W
PickledData: "(dp1
S'com.typemytype.robofont.layerData'
p2
(dp3
S'b'
(dp4
S'name'
p5
S'Zdotaccent'
p6
sS'lib'
p7
(dp8
sS'unicodes'
p9
(tsS'width'
p10
I878
sS'contours'
p11
(tsS'components'
p12
(tsS'anchors'
p13
(tsss."
LayerCount: 2
Fore
SplineSet
267.5 1944 m 1
 625.5 1944 l 1
 625.5 2242 l 1
 267.5 2242 l 1
 267.5 1944 l 1
813 318 m 1
 455 318 l 1
 821 1454 l 1
 821 1761 l 1
 105 1761 l 1
 105 1440 l 1
 440 1440 l 1
 72 325 l 1
 72 0 l 1
 813 0 l 1
 813 318 l 1
EndSplineSet
EndChar

StartChar: a
Encoding: 97 97 125
Width: 813
VWidth: 0
Flags: W
PickledData: "(dp1
S'com.typemytype.robofont.layerData'
p2
(dp3
S'b'
(dp4
S'name'
p5
S'a'
sS'lib'
p6
(dp7
sS'unicodes'
p8
(tsS'width'
p9
I813
sS'contours'
p10
((dp11
S'points'
p12
((dp13
S'y'
F-12
sS'x'
F417
sS'smooth'
p14
I00
s(dp15
S'y'
F21
sS'x'
F499
sg14
I00
s(dp16
S'segmentType'
p17
S'curve'
p18
sS'x'
F540
sg14
I00
sS'y'
F118
s(dp19
g17
S'line'
p20
sS'x'
F540
sg14
I00
sS'y'
F0
s(dp21
g17
S'line'
p22
sS'x'
F708
sg14
I00
sS'y'
F0
s(dp23
g17
S'line'
p24
sS'x'
F708
sg14
I00
sS'y'
F1768
s(dp25
g17
S'line'
p26
sS'x'
F540
sg14
I00
sS'y'
F1768
s(dp27
g17
S'line'
p28
sS'x'
F540
sg14
I00
sS'y'
F1395
s(dp29
S'y'
F1461
sS'x'
F512
sg14
I00
s(dp30
S'y'
F1518
sS'x'
F448
sg14
I00
s(dp31
g17
S'curve'
p32
sS'x'
F375
sg14
I01
sS'y'
F1518
s(dp33
S'y'
F1518
sS'x'
F145
sg14
I00
s(dp34
S'y'
F1303
sS'x'
F95
sg14
I00
s(dp35
g17
S'curve'
p36
sS'x'
F95
sg14
I01
sS'y'
F1021
s(dp37
g17
S'line'
p38
sS'x'
F95
sg14
I01
sS'y'
F481
s(dp39
S'y'
F200
sS'x'
F95
sg14
I00
s(dp40
S'y'
F-12
sS'x'
F129
sg14
I00
s(dp41
g17
S'curve'
p42
sS'x'
F338
sg14
I01
sS'y'
F-12
stp43
s(dp44
g12
((dp45
S'y'
F186
sS'x'
F516
sg14
I00
s(dp46
S'y'
F128
sS'x'
F464
sg14
I00
s(dp47
g17
S'curve'
p48
sS'x'
F392
sg14
I01
sS'y'
F128
s(dp49
g17
S'line'
p50
sS'x'
F390
sg14
I01
sS'y'
F128
s(dp51
S'y'
F129
sS'x'
F291
sg14
I00
s(dp52
S'y'
F234
sS'x'
F263
sg14
I00
s(dp53
g17
S'curve'
p54
sS'x'
F263
sg14
I01
sS'y'
F465
s(dp55
g17
S'line'
p56
sS'x'
F263
sg14
I01
sS'y'
F1058
s(dp57
S'y'
F1245
sS'x'
F263
sg14
I00
s(dp58
S'y'
F1368
sS'x'
F277
sg14
I00
s(dp59
g17
S'curve'
p60
sS'x'
F404
sg14
I01
sS'y'
F1368
s(dp61
S'y'
F1368
sS'x'
F454
sg14
I00
s(dp62
S'y'
F1326
sS'x'
F506
sg14
I00
s(dp63
g17
S'curve'
p64
sS'x'
F540
sg14
I00
sS'y'
F1276
s(dp65
g17
S'line'
p66
sS'x'
F540
sg14
I00
sS'y'
F224
stp67
stp68
sS'components'
p69
(tsS'anchors'
p70
(tsss."
LayerCount: 2
Fore
SplineSet
96 380 m 2
 96 130 174 -12 341 -12 c 0
 462 -12 526 73 540 118 c 1
 540 0 l 1
 708 0 l 1
 708 479 l 1
 708 991 l 2
 708 1332 695 1518 416 1518 c 0
 135 1518 114 1302 114 1056 c 2
 114 1015 l 1
 282 1015 l 1
 282 1057 l 2
 282 1284 296 1374 415 1374 c 0
 536 1374 540 1281 540 1064 c 2
 540 226 l 1
 520 186 460 130 387 126 c 0
 384 126 381 126 378 126 c 0
 286 126 264 200 264 390 c 2
 264 516 l 2
 264 707 308 730 562 844 c 1
 562 967 l 1
 300 855 96 793 96 556 c 2
 96 380 l 2
EndSplineSet
EndChar

StartChar: aacute
Encoding: 225 225 126
Width: 1092
VWidth: 0
Flags: W
PickledData: "(dp1
S'com.typemytype.robofont.layerData'
p2
(dp3
S'b'
(dp4
S'name'
p5
S'aacute'
p6
sS'lib'
p7
(dp8
sS'unicodes'
p9
(tsS'width'
p10
I1092
sS'contours'
p11
(tsS'components'
p12
(tsS'anchors'
p13
(tsss."
LayerCount: 2
Fore
SplineSet
306 1681 m 1
 781 1775 l 1
 781 2122 l 1
 306 1904 l 1
 306 1681 l 1
622 379 m 2
 622 322 603 262 545 262 c 0
 492 262 465 306 465 395 c 2
 465 588 l 2
 465 705 523 757 622 797 c 1
 622 379 l 2
404 -18 m 0
 507 -18 594 53 629 178 c 1
 629 0 l 1
 987 0 l 1
 987 1143 l 2
 987 1387 803 1518 563 1518 c 0
 257 1518 122 1403 122 1105 c 2
 122 1056 l 1
 471 1056 l 1
 471 1146 l 2
 471 1201 492 1243 557 1239 c 0
 602 1236 622 1213 622 1123 c 2
 622 969 l 1
 286 854 100 839 100 430 c 0
 100 174 154 -18 404 -18 c 0
EndSplineSet
EndChar

StartChar: abreve
Encoding: 259 259 127
Width: 1092
VWidth: 0
Flags: W
PickledData: "(dp1
S'com.typemytype.robofont.layerData'
p2
(dp3
S'b'
(dp4
S'name'
p5
S'abreve'
p6
sS'lib'
p7
(dp8
sS'unicodes'
p9
(tsS'width'
p10
I1092
sS'contours'
p11
(tsS'components'
p12
(tsS'anchors'
p13
(tsss."
LayerCount: 2
Fore
SplineSet
543.5 1871 m 0
 460.5 1871 408.5 1889 408.5 2014 c 1
 190.5 2014 l 1
 190.5 1999 l 2
 190.5 1782 307.5 1681 541.5 1681 c 0
 781.5 1681 896.5 1778 896.5 2001 c 2
 896.5 2014 l 1
 678.5 2014 l 1
 678.5 1889 626.5 1871 543.5 1871 c 0
622 379 m 2
 622 322 603 262 545 262 c 0
 492 262 465 306 465 395 c 2
 465 588 l 2
 465 705 523 757 622 797 c 1
 622 379 l 2
404 -18 m 0
 507 -18 594 53 629 178 c 1
 629 0 l 1
 987 0 l 1
 987 1143 l 2
 987 1387 803 1518 563 1518 c 0
 257 1518 122 1403 122 1105 c 2
 122 1056 l 1
 471 1056 l 1
 471 1146 l 2
 471 1201 492 1243 557 1239 c 0
 602 1236 622 1213 622 1123 c 2
 622 969 l 1
 286 854 100 839 100 430 c 0
 100 174 154 -18 404 -18 c 0
EndSplineSet
EndChar

StartChar: acircumflex
Encoding: 226 226 128
Width: 1092
VWidth: 0
Flags: W
PickledData: "(dp1
S'com.typemytype.robofont.layerData'
p2
(dp3
S'b'
(dp4
S'name'
p5
S'acircumflex'
p6
sS'lib'
p7
(dp8
sS'unicodes'
p9
(tsS'width'
p10
I1092
sS'contours'
p11
(tsS'components'
p12
(tsS'anchors'
p13
(tsss."
LayerCount: 2
Fore
SplineSet
747.5 2084 m 1
 339.5 2084 l 1
 98.5 1681 l 1
 457.5 1681 l 1
 543.5 1966 l 1
 629.5 1681 l 1
 988.5 1681 l 1
 747.5 2084 l 1
622 379 m 2
 622 322 603 262 545 262 c 0
 492 262 465 306 465 395 c 2
 465 588 l 2
 465 705 523 757 622 797 c 1
 622 379 l 2
404 -18 m 0
 507 -18 594 53 629 178 c 1
 629 0 l 1
 987 0 l 1
 987 1143 l 2
 987 1387 803 1518 563 1518 c 0
 257 1518 122 1403 122 1105 c 2
 122 1056 l 1
 471 1056 l 1
 471 1146 l 2
 471 1201 492 1243 557 1239 c 0
 602 1236 622 1213 622 1123 c 2
 622 969 l 1
 286 854 100 839 100 430 c 0
 100 174 154 -18 404 -18 c 0
EndSplineSet
EndChar

StartChar: acute
Encoding: 180 180 129
Width: 650
VWidth: 0
Flags: W
PickledData: "(dp1
S'com.typemytype.robofont.layerData'
p2
(dp3
S'b'
(dp4
S'name'
p5
S'acute'
p6
sS'lib'
p7
(dp8
sS'unicodes'
p9
(tsS'width'
p10
I650
sS'contours'
p11
(tsS'components'
p12
(tsS'anchors'
p13
(tsss."
LayerCount: 2
Fore
SplineSet
41 1553 m 1
 516 1647 l 1
 516 1994 l 1
 41 1776 l 1
 41 1553 l 1
EndSplineSet
EndChar

StartChar: adieresis
Encoding: 228 228 130
Width: 1092
VWidth: 0
Flags: W
PickledData: "(dp1
S'com.typemytype.robofont.layerData'
p2
(dp3
S'b'
(dp4
S'name'
p5
S'adieresis'
p6
sS'lib'
p7
(dp8
sS'unicodes'
p9
(tsS'width'
p10
I1092
sS'contours'
p11
(tsS'components'
p12
(tsS'anchors'
p13
(tsss."
LayerCount: 2
Fore
SplineSet
606.5 1681 m 1
 964.5 1681 l 1
 964.5 1979 l 1
 606.5 1979 l 1
 606.5 1681 l 1
122.5 1681 m 1
 480.5 1681 l 1
 480.5 1979 l 1
 122.5 1979 l 1
 122.5 1681 l 1
622 379 m 2
 622 322 603 262 545 262 c 0
 492 262 465 306 465 395 c 2
 465 588 l 2
 465 705 523 757 622 797 c 1
 622 379 l 2
404 -18 m 0
 507 -18 594 53 629 178 c 1
 629 0 l 1
 987 0 l 1
 987 1143 l 2
 987 1387 803 1518 563 1518 c 0
 257 1518 122 1403 122 1105 c 2
 122 1056 l 1
 471 1056 l 1
 471 1146 l 2
 471 1201 492 1243 557 1239 c 0
 602 1236 622 1213 622 1123 c 2
 622 969 l 1
 286 854 100 839 100 430 c 0
 100 174 154 -18 404 -18 c 0
EndSplineSet
EndChar

StartChar: ae
Encoding: 230 230 131
Width: 1497
VWidth: 0
Flags: W
PickledData: "(dp1
S'com.typemytype.robofont.layerData'
p2
(dp3
S'b'
(dp4
S'name'
p5
S'ae'
p6
sS'lib'
p7
(dp8
sS'unicodes'
p9
(tsS'width'
p10
I1497
sS'contours'
p11
(tsS'components'
p12
(tsS'anchors'
p13
(tsss."
LayerCount: 2
Fore
SplineSet
1010 1249 m 0
 1063 1249 1090 1195 1090 1087 c 2
 1090 931 l 1
 921 931 l 1
 921 1052 l 2
 921 1167 921 1249 1010 1249 c 0
559 379 m 2
 559 322 541 262 483 262 c 0
 430 262 403 306 403 395 c 2
 403 570 l 2
 403 687 460 734 559 774 c 1
 559 379 l 2
1090 579 m 1
 1091 574 1092 542 1092 483 c 0
 1092 394 1094 260 1008 260 c 0
 950 260 921 338 921 494 c 2
 921 704 l 1
 1442 704 l 1
 1445 755 1446 848 1446 983 c 2
 1446 1092 l 2
 1446 1376 1302 1518 1014 1518 c 0
 889 1518 800 1477 747 1396 c 1
 692 1477 610 1518 501 1518 c 0
 195 1518 60 1403 60 1105 c 0
 60 1084 60 1067 61 1056 c 1
 409 1056 l 1
 409 1157 l 2
 409 1212 434 1239 483 1239 c 0
 578 1239 560 1079 560 983 c 2
 560 980 l 1
 224 865 38 839 38 430 c 0
 38 154 182 -18 449 -18 c 0
 598 -18 702 51 748 148 c 1
 789 53 896 -18 1036 -18 c 0
 1358 -18 1446 172 1446 494 c 2
 1446 579 l 1
 1090 579 l 1
EndSplineSet
EndChar

StartChar: agrave
Encoding: 224 224 132
Width: 1092
VWidth: 0
Flags: W
PickledData: "(dp1
S'com.typemytype.robofont.layerData'
p2
(dp3
S'b'
(dp4
S'name'
p5
S'agrave'
p6
sS'lib'
p7
(dp8
sS'unicodes'
p9
(tsS'width'
p10
I1092
sS'contours'
p11
(tsS'components'
p12
(tsS'anchors'
p13
(tsss."
LayerCount: 2
Fore
SplineSet
781 1681 m 1
 781 1904 l 1
 306 2122 l 1
 306 1775 l 1
 781 1681 l 1
622 379 m 2
 622 322 603 262 545 262 c 0
 492 262 465 306 465 395 c 2
 465 588 l 2
 465 705 523 757 622 797 c 1
 622 379 l 2
404 -18 m 0
 507 -18 594 53 629 178 c 1
 629 0 l 1
 987 0 l 1
 987 1143 l 2
 987 1387 803 1518 563 1518 c 0
 257 1518 122 1403 122 1105 c 2
 122 1056 l 1
 471 1056 l 1
 471 1146 l 2
 471 1201 492 1243 557 1239 c 0
 602 1236 622 1213 622 1123 c 2
 622 969 l 1
 286 854 100 839 100 430 c 0
 100 174 154 -18 404 -18 c 0
EndSplineSet
EndChar

StartChar: amacron
Encoding: 257 257 133
Width: 1092
VWidth: 0
Flags: W
PickledData: "(dp1
S'com.typemytype.robofont.layerData'
p2
(dp3
S'b'
(dp4
S'name'
p5
S'amacron'
p6
sS'lib'
p7
(dp8
sS'unicodes'
p9
(tsS'width'
p10
I1092
sS'contours'
p11
(tsS'components'
p12
(tsS'anchors'
p13
(tsss."
LayerCount: 2
Fore
SplineSet
801.5 1913 m 1
 285.5 1913 l 1
 285.5 1681 l 1
 801.5 1681 l 1
 801.5 1913 l 1
622 379 m 2
 622 322 603 262 545 262 c 0
 492 262 465 306 465 395 c 2
 465 588 l 2
 465 705 523 757 622 797 c 1
 622 379 l 2
404 -18 m 0
 507 -18 594 53 629 178 c 1
 629 0 l 1
 987 0 l 1
 987 1143 l 2
 987 1387 803 1518 563 1518 c 0
 257 1518 122 1403 122 1105 c 2
 122 1056 l 1
 471 1056 l 1
 471 1146 l 2
 471 1201 492 1243 557 1239 c 0
 602 1236 622 1213 622 1123 c 2
 622 969 l 1
 286 854 100 839 100 430 c 0
 100 174 154 -18 404 -18 c 0
EndSplineSet
EndChar

StartChar: ampersand
Encoding: 38 38 134
Width: 1158
VWidth: 0
Flags: W
PickledData: "(dp1
S'com.typemytype.robofont.layerData'
p2
(dp3
S'b'
(dp4
S'name'
p5
S'ampersand'
p6
sS'lib'
p7
(dp8
sS'unicodes'
p9
(tsS'width'
p10
I1158
sS'contours'
p11
(tsS'components'
p12
(tsS'anchors'
p13
(tsss."
LayerCount: 2
Fore
SplineSet
666 138 m 1
 712 0 l 1
 1056 0 l 1
 922 357 l 1
 976 521 1049 620 1128 690 c 1
 988 934 l 1
 912 872 859 739 820 626 c 1
 688 978 l 1
 847 1119 934 1276 934 1434 c 0
 934 1657 783 1781 585 1781 c 0
 384 1781 233 1648 233 1421 c 0
 233 1288 319 1088 364 988 c 1
 204 856 84 706 84 397 c 0
 84 140 197 -21 418 -21 c 0
 530 -21 627 44 666 138 c 1
483 289 m 0
 420 289 368 358 368 466 c 0
 368 539 392 630 455 730 c 1
 587 356 l 1
 554 310 517 289 483 289 c 0
636 1552 m 0
 686 1552 715 1525 715 1427 c 0
 715 1328 652 1244 609 1193 c 1
 580 1275 551 1400 551 1441 c 0
 551 1514.67764282 590.757705688 1552 636 1552 c 0
EndSplineSet
EndChar

StartChar: aogonek
Encoding: 261 261 135
Width: 1092
VWidth: 0
Flags: W
PickledData: "(dp1
S'com.typemytype.robofont.layerData'
p2
(dp3
S'b'
(dp4
S'name'
p5
S'aogonek'
p6
sS'lib'
p7
(dp8
sS'unicodes'
p9
(tsS'width'
p10
I1092
sS'contours'
p11
(tsS'components'
p12
(tsS'anchors'
p13
(tsss."
LayerCount: 2
Fore
SplineSet
778.5 -296.133789062 m 0
 778.5 -186.133789062 854.5 -87.1337890625 928.5 2.8662109375 c 1
 787.5 2.8662109375 l 1
 611.5 -96.1337890625 533.5 -236.133789062 533.5 -357.133789062 c 0
 533.5 -531.133789062 650.5 -623.133789062 840.5 -623.133789062 c 0
 908.5 -623.133789062 986.5 -601.133789062 1009.5 -588.133789062 c 1
 1009.5 -415.133789062 l 1
 985.5 -420.133789062 959.5 -423.133789062 934.5 -423.133789062 c 0
 854.5 -423.133789062 778.5 -393.133789062 778.5 -296.133789062 c 0
622 379 m 2
 622 322 603 262 545 262 c 0
 492 262 465 306 465 395 c 2
 465 588 l 2
 465 705 523 757 622 797 c 1
 622 379 l 2
404 -18 m 0
 507 -18 594 53 629 178 c 1
 629 0 l 1
 987 0 l 1
 987 1143 l 2
 987 1387 803 1518 563 1518 c 0
 257 1518 122 1403 122 1105 c 2
 122 1056 l 1
 471 1056 l 1
 471 1146 l 2
 471 1201 492 1243 557 1239 c 0
 602 1236 622 1213 622 1123 c 2
 622 969 l 1
 286 854 100 839 100 430 c 0
 100 174 154 -18 404 -18 c 0
EndSplineSet
EndChar

StartChar: approxequal
Encoding: 8776 8776 136
Width: 1117
VWidth: 0
Flags: W
PickledData: "(dp1
S'com.typemytype.robofont.layerData'
p2
(dp3
S'b'
(dp4
S'name'
p5
S'approxequal'
p6
sS'lib'
p7
(dp8
sS'unicodes'
p9
(tsS'width'
p10
I1117
sS'contours'
p11
(tsS'components'
p12
(tsS'anchors'
p13
(tsss."
LayerCount: 2
Fore
SplineSet
769 213 m 0
 908 213 995 299 1021 514 c 2
 1033 612 l 1
 813 654 l 1
 786 564 765 551 741 547 c 1
 735 547 l 2
 671 547 461 659 357 659 c 0
 218 659 134 534 84 330 c 1
 289 244 l 1
 312 297 326 325 354 333 c 0
 363 336 373 337 384 337 c 0
 490 337 655 213 769 213 c 0
769 776 m 0
 908 776 995 862 1021 1077 c 2
 1033 1175 l 1
 813 1217 l 1
 786 1127 765 1114 741 1110 c 1
 735 1110 l 2
 671 1110 461 1222 357 1222 c 0
 218 1222 134 1097 84 893 c 1
 289 807 l 1
 312 860 326 888 354 896 c 0
 363 899 373 900 384 900 c 0
 490 900 655 776 769 776 c 0
EndSplineSet
EndChar

StartChar: aring
Encoding: 229 229 137
Width: 1092
VWidth: 0
Flags: W
PickledData: "(dp1
S'com.typemytype.robofont.layerData'
p2
(dp3
S'b'
(dp4
S'name'
p5
S'aring'
p6
sS'lib'
p7
(dp8
sS'unicodes'
p9
(tsS'width'
p10
I1092
sS'contours'
p11
(tsS'components'
p12
(tsS'anchors'
p13
(tsss."
LayerCount: 2
Fore
SplineSet
543 1681 m 0
 714 1681 826 1792 826 1961 c 0
 826 2130 714 2241 543 2241 c 0
 372 2241 261 2130 261 1961 c 0
 261 1791 372 1681 543 1681 c 0
544.26953125 1808.90722656 m 0
 453.666015625 1808.90722656 408.57421875 1884.86914062 408.57421875 1960.87304688 c 0
 408.57421875 2036.96191406 453.766601562 2113.09277344 543.73046875 2113.09277344 c 0
 634.333984375 2113.09277344 679.42578125 2037.13085938 679.42578125 1961.12695312 c 0
 679.42578125 1885.03808594 634.233398438 1808.90722656 544.26953125 1808.90722656 c 0
622 379 m 2
 622 322 603 262 545 262 c 0
 492 262 465 306 465 395 c 2
 465 588 l 2
 465 705 523 757 622 797 c 1
 622 379 l 2
404 -18 m 0
 507 -18 594 53 629 178 c 1
 629 0 l 1
 987 0 l 1
 987 1143 l 2
 987 1387 803 1518 563 1518 c 0
 257 1518 122 1403 122 1105 c 2
 122 1056 l 1
 471 1056 l 1
 471 1146 l 2
 471 1201 492 1243 557 1239 c 0
 602 1236 622 1213 622 1123 c 2
 622 969 l 1
 286 854 100 839 100 430 c 0
 100 174 154 -18 404 -18 c 0
EndSplineSet
EndChar

StartChar: asciicircum
Encoding: 94 94 138
Width: 1030
VWidth: 0
Flags: W
PickledData: "(dp1
S'com.typemytype.robofont.layerData'
p2
(dp3
S'b'
(dp4
S'name'
p5
S'asciicircum'
p6
sS'lib'
p7
(dp8
sS'unicodes'
p9
(tsS'width'
p10
I1030
sS'contours'
p11
(tsS'components'
p12
(tsS'anchors'
p13
(tsss."
LayerCount: 2
Fore
SplineSet
719 1499 m 1
 311 1499 l 1
 70 576 l 1
 409 576 l 1
 515 1211 l 1
 621 576 l 1
 960 576 l 1
 719 1499 l 1
EndSplineSet
EndChar

StartChar: asciitilde
Encoding: 126 126 139
Width: 1117
VWidth: 0
Flags: W
PickledData: "(dp1
S'com.typemytype.robofont.layerData'
p2
(dp3
S'b'
(dp4
S'name'
p5
S'asciitilde'
p6
sS'lib'
p7
(dp8
sS'unicodes'
p9
(tsS'width'
p10
I1117
sS'contours'
p11
(tsS'components'
p12
(tsS'anchors'
p13
(tsss."
LayerCount: 2
Fore
SplineSet
384 900 m 0
 490 900 655 776 769 776 c 0
 908 776 995 862 1021 1077 c 2
 1033 1175 l 1
 813 1217 l 1
 786 1127 765 1114 741 1110 c 1
 735 1110 l 2
 671 1110 461 1222 357 1222 c 0
 218 1222 134 1097 84 893 c 1
 289 807 l 1
 316.940124512 871.383773804 325.484466553 900 384 900 c 0
EndSplineSet
EndChar

StartChar: asterisk
Encoding: 42 42 140
Width: 960
VWidth: 0
Flags: W
PickledData: "(dp1
S'com.typemytype.robofont.layerData'
p2
(dp3
S'b'
(dp4
S'name'
p5
S'asterisk'
p6
sS'lib'
p7
(dp8
sS'unicodes'
p9
(tsS'width'
p10
I960
sS'contours'
p11
(tsS'components'
p12
(tsS'anchors'
p13
(tsss."
LayerCount: 2
Fore
SplineSet
327 1171 m 1
 53 1054 l 1
 169 854 l 1
 408 1043 l 1
 364 741 l 1
 596 741 l 1
 560 1036 l 1
 791 854 l 1
 907 1054 l 1
 632 1171 l 1
 907 1280 l 1
 791 1480 l 1
 561 1307 l 1
 596 1593 l 1
 364 1593 l 1
 407 1301 l 1
 169 1480 l 1
 53 1280 l 1
 327 1171 l 1
EndSplineSet
EndChar

StartChar: at
Encoding: 64 64 141
Width: 2034
VWidth: 0
Flags: W
PickledData: "(dp1
S'com.typemytype.robofont.layerData'
p2
(dp3
S'b'
(dp4
S'name'
p5
S'at'
p6
sS'lib'
p7
(dp8
sS'unicodes'
p9
(tsS'width'
p10
I2034
sS'contours'
p11
(tsS'components'
p12
(tsS'anchors'
p13
(tsss."
LayerCount: 2
Fore
SplineSet
389 833 m 0
 389 1315 632 1553 1085 1553 c 0
 1515 1553 1681 1286 1681 942 c 0
 1681 634 1627 582 1528 582 c 0
 1450 582 1425 651 1425 777 c 2
 1425 1302 l 1
 1187 1302 l 1
 1145 1180 l 1
 1070 1249 1027 1283 953 1283 c 0
 715 1283 573 1071 573 788 c 0
 573 563 709 361 913 361 c 0
 1051 361 1136 454 1171 587 c 1
 1261 402 1380 378 1493 378 c 0
 1812 378 1929 612 1929 910 c 0
 1929 1428 1653 1781 1116 1781 c 0
 435 1781 105 1440 105 836 c 0
 105 249 428 -64 1004 -64 c 0
 1101 -64 1184 -54 1315 -35 c 1
 1269 196 l 1
 1154 183 1087 168 1009 168 c 0
 596 168 389 379 389 833 c 0
1133 759 m 2
 1133 657 1059 605 983 605 c 0
 901 605 865 667 865 794 c 0
 865 963 936 1062 1133 1062 c 1
 1133 759 l 2
EndSplineSet
EndChar

StartChar: atilde
Encoding: 227 227 142
Width: 1092
VWidth: 0
Flags: W
PickledData: "(dp1
S'com.typemytype.robofont.layerData'
p2
(dp3
S'b'
(dp4
S'name'
p5
S'atilde'
p6
sS'lib'
p7
(dp8
sS'unicodes'
p9
(tsS'width'
p10
I1092
sS'contours'
p11
(tsS'components'
p12
(tsS'anchors'
p13
(tsss."
LayerCount: 2
Fore
SplineSet
707 1681 m 0
 815 1681 883 1738 903 1881 c 2
 912 1946 l 1
 741 1974 l 1
 720 1914 704 1906 685 1903 c 1
 681 1903 l 2
 631 1903 468 1977 387 1977 c 0
 279 1977 214 1894 175 1759 c 1
 334 1702 l 1
 352 1737 363 1756 385 1761 c 0
 392 1763 400 1763 408 1763 c 0
 491 1763 619 1681 707 1681 c 0
622 379 m 2
 622 322 603 262 545 262 c 0
 492 262 465 306 465 395 c 2
 465 588 l 2
 465 705 523 757 622 797 c 1
 622 379 l 2
404 -18 m 0
 507 -18 594 53 629 178 c 1
 629 0 l 1
 987 0 l 1
 987 1143 l 2
 987 1387 803 1518 563 1518 c 0
 257 1518 122 1403 122 1105 c 2
 122 1056 l 1
 471 1056 l 1
 471 1146 l 2
 471 1201 492 1243 557 1239 c 0
 602 1236 622 1213 622 1123 c 2
 622 969 l 1
 286 854 100 839 100 430 c 0
 100 174 154 -18 404 -18 c 0
EndSplineSet
EndChar

StartChar: b
Encoding: 98 98 143
Width: 825
VWidth: 0
Flags: W
PickledData: "(dp1
S'name'
p2
S'b'
sS'com.typemytype.robofont.layerData'
p3
(dp4
S'b'
(dp5
g2
S'b'
sS'lib'
p6
(dp7
sS'unicodes'
p8
(tsS'width'
p9
I825
sS'contours'
p10
(tsS'components'
p11
(tsS'anchors'
p12
(tsssg8
(tsg9
I1093
sg10
(tsg11
(tsg12
(ts."
LayerCount: 2
Fore
SplineSet
431 128 m 2
 433 128 l 1
 532 129 560 234 560 465 c 2
 560 1058 l 2
 560 1245 546 1368 419 1368 c 0
 369 1368 317 1326 283 1276 c 1
 283 224 l 1
 307 186 359 128 431 128 c 2
283 118 m 1
 283 0 l 1
 115 0 l 1
 115 1768 l 1
 283 1768 l 1
 283 1395 l 1
 311 1461 375 1518 448 1518 c 0
 678 1518 728 1303 728 1021 c 2
 728 481 l 2
 728 200 694 -12 485 -12 c 0
 406 -12 324 21 283 118 c 1
EndSplineSet
EndChar

StartChar: backslash
Encoding: 92 92 144
Width: 868
VWidth: 0
Flags: W
PickledData: "(dp1
S'com.typemytype.robofont.layerData'
p2
(dp3
S'b'
(dp4
S'name'
p5
S'backslash'
p6
sS'lib'
p7
(dp8
sS'unicodes'
p9
(tsS'width'
p10
I868
sS'contours'
p11
(tsS'components'
p12
(tsS'anchors'
p13
(tsss."
LayerCount: 2
Fore
SplineSet
391 1761 m 1
 67 1761 l 1
 478 0 l 1
 801 0 l 1
 391 1761 l 1
EndSplineSet
EndChar

StartChar: bar
Encoding: 124 124 145
Width: 537
VWidth: 0
Flags: W
PickledData: "(dp1
S'com.typemytype.robofont.layerData'
p2
(dp3
S'b'
(dp4
S'name'
p5
S'bar'
p6
sS'lib'
p7
(dp8
sS'unicodes'
p9
(tsS'width'
p10
I537
sS'contours'
p11
(tsS'components'
p12
(tsS'anchors'
p13
(tsss."
LayerCount: 2
Fore
SplineSet
112 1683 m 1
 112 -84 l 1
 425 -84 l 1
 425 1683 l 1
 112 1683 l 1
EndSplineSet
EndChar

StartChar: braceleft
Encoding: 123 123 146
Width: 798
VWidth: 0
Flags: W
PickledData: "(dp1
S'com.typemytype.robofont.layerData'
p2
(dp3
S'b'
(dp4
S'name'
p5
S'braceleft'
p6
sS'lib'
p7
(dp8
sS'unicodes'
p9
(tsS'width'
p10
I798
sS'contours'
p11
(tsS'components'
p12
(tsS'anchors'
p13
(tsss."
LayerCount: 2
Fore
SplineSet
85 696 m 1
 223 696 224 625 224 492 c 2
 224 217 l 2
 224 -45 355 -121 655 -121 c 2
 715 -121 l 1
 715 126 l 1
 595 126 576 159 576 230 c 2
 576 476 l 2
 576 713 543 795 426 830 c 1
 543 865 576 947 576 1184 c 2
 576 1430 l 2
 576 1501 595 1534 715 1534 c 1
 715 1781 l 1
 655 1781 l 2
 355 1781 224 1705 224 1443 c 2
 224 1168 l 2
 224 1035 223 964 85 964 c 1
 85 696 l 1
EndSplineSet
EndChar

StartChar: braceright
Encoding: 125 125 147
Width: 798
VWidth: 0
Flags: W
PickledData: "(dp1
S'com.typemytype.robofont.layerData'
p2
(dp3
S'b'
(dp4
S'name'
p5
S'braceright'
p6
sS'lib'
p7
(dp8
sS'unicodes'
p9
(tsS'width'
p10
I798
sS'contours'
p11
(tsS'components'
p12
(tsS'anchors'
p13
(tsss."
LayerCount: 2
Fore
SplineSet
715 964 m 1
 577 964 576 1035 576 1168 c 2
 576 1443 l 2
 576 1705 445 1781 145 1781 c 2
 85 1781 l 1
 85 1534 l 1
 205 1534 224 1501 224 1430 c 2
 224 1184 l 2
 224 947 257 865 374 830 c 1
 257 795 224 713 224 476 c 2
 224 230 l 2
 224 159 205 126 85 126 c 1
 85 -121 l 1
 145 -121 l 2
 445 -121 576 -45 576 217 c 2
 576 492 l 2
 576 625 577 696 715 696 c 1
 715 964 l 1
EndSplineSet
EndChar

StartChar: bracketleft
Encoding: 91 91 148
Width: 764
VWidth: 0
Flags: W
PickledData: "(dp1
S'com.typemytype.robofont.layerData'
p2
(dp3
S'b'
(dp4
S'name'
p5
S'bracketleft'
p6
sS'lib'
p7
(dp8
sS'unicodes'
p9
(tsS'width'
p10
I764
sS'contours'
p11
(tsS'components'
p12
(tsS'anchors'
p13
(tsss."
LayerCount: 2
Fore
SplineSet
676 1761 m 1
 122 1761 l 1
 122 0 l 1
 676 0 l 1
 676 281 l 1
 478 281 l 1
 478 1480 l 1
 676 1480 l 1
 676 1761 l 1
EndSplineSet
EndChar

StartChar: bracketright
Encoding: 93 93 149
Width: 764
VWidth: 0
Flags: W
PickledData: "(dp1
S'com.typemytype.robofont.layerData'
p2
(dp3
S'b'
(dp4
S'name'
p5
S'bracketright'
p6
sS'lib'
p7
(dp8
sS'unicodes'
p9
(tsS'width'
p10
I764
sS'contours'
p11
(tsS'components'
p12
(tsS'anchors'
p13
(tsss."
LayerCount: 2
Fore
SplineSet
88 281 m 1
 88 0 l 1
 642 0 l 1
 642 1761 l 1
 88 1761 l 1
 88 1480 l 1
 286 1480 l 1
 286 281 l 1
 88 281 l 1
EndSplineSet
EndChar

StartChar: breve
Encoding: 728 728 150
Width: 1016
VWidth: 0
Flags: W
PickledData: "(dp1
S'com.typemytype.robofont.layerData'
p2
(dp3
S'b'
(dp4
S'name'
p5
S'breve'
p6
sS'lib'
p7
(dp8
sS'unicodes'
p9
(tsS'width'
p10
I1016
sS'contours'
p11
(tsS'components'
p12
(tsS'anchors'
p13
(tsss."
LayerCount: 2
Fore
SplineSet
508 1802 m 0
 425 1802 373 1820 373 1945 c 1
 155 1945 l 1
 155 1930 l 2
 155 1713 272 1612 506 1612 c 0
 746 1612 861 1709 861 1932 c 2
 861 1945 l 1
 643 1945 l 1
 643 1820 591 1802 508 1802 c 0
EndSplineSet
EndChar

StartChar: brokenbar
Encoding: 166 166 151
Width: 530
VWidth: 0
Flags: W
PickledData: "(dp1
S'com.typemytype.robofont.layerData'
p2
(dp3
S'b'
(dp4
S'name'
p5
S'brokenbar'
p6
sS'lib'
p7
(dp8
sS'unicodes'
p9
(tsS'width'
p10
I530
sS'contours'
p11
(tsS'components'
p12
(tsS'anchors'
p13
(tsss."
LayerCount: 2
Fore
SplineSet
122 1761 m 1
 122 931 l 1
 408 931 l 1
 408 1761 l 1
 122 1761 l 1
122 724 m 1
 122 -84 l 1
 408 -84 l 1
 408 724 l 1
 122 724 l 1
EndSplineSet
EndChar

StartChar: bullet
Encoding: 8226 8226 152
Width: 861
VWidth: 0
Flags: W
PickledData: "(dp1
S'com.typemytype.robofont.layerData'
p2
(dp3
S'b'
(dp4
S'name'
p5
S'bullet'
p6
sS'lib'
p7
(dp8
sS'unicodes'
p9
(tsS'width'
p10
I861
sS'contours'
p11
(tsS'components'
p12
(tsS'anchors'
p13
(tsss."
LayerCount: 2
Fore
SplineSet
430 403 m 0
 629 403 744 539 744 741 c 0
 744 943 629 1079 430 1079 c 0
 231 1079 117 943 117 741 c 0
 117 539 231 403 430 403 c 0
EndSplineSet
EndChar

StartChar: c
Encoding: 99 99 153
Width: 788
VWidth: 0
Flags: W
PickledData: "(dp1
S'com.typemytype.robofont.layerData'
p2
(dp3
S'b'
(dp4
S'name'
p5
S'c'
sS'lib'
p6
(dp7
sS'unicodes'
p8
(tsS'width'
p9
I788
sS'contours'
p10
((dp11
S'points'
p12
((dp13
S'segmentType'
p14
S'curve'
p15
sS'x'
F553
sS'smooth'
p16
I01
sS'y'
F-18
s(dp17
S'y'
F-18
sS'x'
F803
sg16
I00
s(dp18
S'y'
F130
sS'x'
F961
sg16
I00
s(dp19
g14
S'curve'
p20
sS'x'
F961
sg16
I01
sS'y'
F379
s(dp21
g14
S'line'
p22
sS'x'
F961
sg16
I00
sS'y'
F614
s(dp23
g14
S'line'
p24
sS'x'
F623
sg16
I00
sS'y'
F614
s(dp25
g14
S'line'
p26
sS'x'
F623
sg16
I01
sS'y'
F389
s(dp27
S'y'
F322
sS'x'
F623
sg16
I00
s(dp28
S'y'
F264
sS'x'
F602
sg16
I00
s(dp29
g14
S'curve'
p30
sS'x'
F540
sg16
I01
sS'y'
F264
s(dp31
S'y'
F264
sS'x'
F479
sg16
I00
s(dp32
S'y'
F326
sS'x'
F454
sg16
I00
s(dp33
g14
S'curve'
p34
sS'x'
F454
sg16
I01
sS'y'
F387
s(dp35
g14
S'line'
p36
sS'x'
F454
sg16
I01
sS'y'
F1114
s(dp37
S'y'
F1197
sS'x'
F454
sg16
I00
s(dp38
S'y'
F1239
sS'x'
F483
sg16
I00
s(dp39
g14
S'curve'
p40
sS'x'
F542
sg16
I01
sS'y'
F1239
s(dp41
S'y'
F1239
sS'x'
F609
sg16
I00
s(dp42
S'y'
F1185
sS'x'
F623
sg16
I00
s(dp43
g14
S'curve'
p44
sS'x'
F623
sg16
I01
sS'y'
F1116
s(dp45
g14
S'line'
p46
sS'x'
F623
sg16
I00
sS'y'
F879
s(dp47
g14
S'line'
p48
sS'x'
F961
sg16
I00
sS'y'
F879
s(dp49
g14
S'line'
p50
sS'x'
F961
sg16
I01
sS'y'
F1135
s(dp51
S'y'
F1380
sS'x'
F961
sg16
I00
s(dp52
S'y'
F1518
sS'x'
F800
sg16
I00
s(dp53
g14
S'curve'
p54
sS'x'
F552
sg16
I01
sS'y'
F1518
s(dp55
S'y'
F1518
sS'x'
F195
sg16
I00
s(dp56
S'y'
F1330
sS'x'
F98
sg16
I00
s(dp57
g14
S'curve'
p58
sS'x'
F98
sg16
I01
sS'y'
F954
s(dp59
g14
S'line'
p60
sS'x'
F98
sg16
I01
sS'y'
F492
s(dp61
S'y'
F158
sS'x'
F98
sg16
I00
s(dp62
S'y'
F-18
sS'x'
F217
sg16
I00
stp63
stp64
sS'components'
p65
(tsS'anchors'
p66
(tsss."
LayerCount: 2
Fore
SplineSet
695 964 m 1
 695 1030 l 2
 695 1320 679 1518 408 1518 c 0
 138 1518 97 1303 97 1021 c 2
 97 509 l 2
 97 198 123 -18 402 -18 c 0
 683 -18 695 198 695 504 c 2
 695 567 l 1
 527 567 l 1
 527 443 l 2
 527 246 521 132 402 132 c 0
 276 132 265 231 265 448 c 2
 265 1062 l 2
 265 1249 281 1368 408 1368 c 0
 527 1368 527 1266 527 1070 c 2
 527 964 l 1
 695 964 l 1
EndSplineSet
EndChar

StartChar: cacute
Encoding: 263 263 154
Width: 1043
VWidth: 0
Flags: W
PickledData: "(dp1
S'com.typemytype.robofont.layerData'
p2
(dp3
S'b'
(dp4
S'name'
p5
S'cacute'
p6
sS'lib'
p7
(dp8
sS'unicodes'
p9
(tsS'width'
p10
I1043
sS'contours'
p11
(tsS'components'
p12
(tsS'anchors'
p13
(tsss."
LayerCount: 2
Fore
SplineSet
300.5 1681 m 1
 775.5 1775 l 1
 775.5 2122 l 1
 300.5 1904 l 1
 300.5 1681 l 1
553 -18 m 0
 803 -18 961 130 961 379 c 2
 961 614 l 1
 623 614 l 1
 623 389 l 2
 623 322 602 264 540 264 c 0
 479 264 454 326 454 387 c 2
 454 1114 l 2
 454 1197 483 1239 542 1239 c 0
 609 1239 623 1185 623 1116 c 2
 623 879 l 1
 961 879 l 1
 961 1135 l 2
 961 1380 800 1518 552 1518 c 0
 195 1518 98 1330 98 954 c 2
 98 492 l 2
 98 158 217 -18 553 -18 c 0
EndSplineSet
EndChar

StartChar: caron
Encoding: 711 711 155
Width: 970
VWidth: 0
Flags: W
PickledData: "(dp1
S'com.typemytype.robofont.layerData'
p2
(dp3
S'b'
(dp4
S'name'
p5
S'caron'
p6
sS'lib'
p7
(dp8
sS'unicodes'
p9
(tsS'width'
p10
I970
sS'contours'
p11
(tsS'components'
p12
(tsS'anchors'
p13
(tsss."
LayerCount: 2
Fore
SplineSet
689 1591 m 1
 930 1994 l 1
 571 1994 l 1
 485 1709 l 1
 399 1994 l 1
 40 1994 l 1
 281 1591 l 1
 689 1591 l 1
EndSplineSet
EndChar

StartChar: ccaron
Encoding: 269 269 156
Width: 1043
VWidth: 0
Flags: W
PickledData: "(dp1
S'com.typemytype.robofont.layerData'
p2
(dp3
S'b'
(dp4
S'name'
p5
S'ccaron'
p6
sS'lib'
p7
(dp8
sS'unicodes'
p9
(tsS'width'
p10
I1043
sS'contours'
p11
(tsS'components'
p12
(tsS'anchors'
p13
(tsss."
LayerCount: 2
Fore
SplineSet
742 1681 m 1
 983 2084 l 1
 624 2084 l 1
 538 1799 l 1
 452 2084 l 1
 93 2084 l 1
 334 1681 l 1
 742 1681 l 1
553 -18 m 0
 803 -18 961 130 961 379 c 2
 961 614 l 1
 623 614 l 1
 623 389 l 2
 623 322 602 264 540 264 c 0
 479 264 454 326 454 387 c 2
 454 1114 l 2
 454 1197 483 1239 542 1239 c 0
 609 1239 623 1185 623 1116 c 2
 623 879 l 1
 961 879 l 1
 961 1135 l 2
 961 1380 800 1518 552 1518 c 0
 195 1518 98 1330 98 954 c 2
 98 492 l 2
 98 158 217 -18 553 -18 c 0
EndSplineSet
EndChar

StartChar: ccedilla
Encoding: 231 231 157
Width: 1043
VWidth: 0
Flags: W
PickledData: "(dp1
S'com.typemytype.robofont.layerData'
p2
(dp3
S'b'
(dp4
S'name'
p5
S'ccedilla'
p6
sS'lib'
p7
(dp8
sS'unicodes'
p9
(tsS'width'
p10
I1043
sS'contours'
p11
(tsS'components'
p12
(tsS'anchors'
p13
(tsss."
LayerCount: 2
Fore
SplineSet
574.5 -666.633789062 m 0
 776.967773438 -666.633789062 874.13671875 -541.073242188 874.13671875 -406.908203125 c 0
 874.13671875 -279.572265625 776.608398438 -174.485351562 608.5 -131.633789062 c 1
 588.5 4.3662109375 l 1
 487.5 4.3662109375 l 1
 447.5 -191.633789062 l 1
 529.5 -209.633789062 607.5 -264.633789062 607.5 -354.633789062 c 0
 607.5 -429.633789062 565.5 -496.633789062 376.5 -496.633789062 c 1
 376.5 -626.633789062 l 1
 440.5 -653.633789062 506.5 -666.633789062 574.5 -666.633789062 c 0
553 -18 m 0
 803 -18 961 130 961 379 c 2
 961 614 l 1
 623 614 l 1
 623 389 l 2
 623 322 602 264 540 264 c 0
 479 264 454 326 454 387 c 2
 454 1114 l 2
 454 1197 483 1239 542 1239 c 0
 609 1239 623 1185 623 1116 c 2
 623 879 l 1
 961 879 l 1
 961 1135 l 2
 961 1380 800 1518 552 1518 c 0
 195 1518 98 1330 98 954 c 2
 98 492 l 2
 98 158 217 -18 553 -18 c 0
EndSplineSet
EndChar

StartChar: ccircumflex
Encoding: 265 265 158
Width: 1043
VWidth: 0
Flags: W
PickledData: "(dp1
S'com.typemytype.robofont.layerData'
p2
(dp3
S'b'
(dp4
S'name'
p5
S'ccircumflex'
p6
sS'lib'
p7
(dp8
sS'unicodes'
p9
(tsS'width'
p10
I1043
sS'contours'
p11
(tsS'components'
p12
(tsS'anchors'
p13
(tsss."
LayerCount: 2
Fore
SplineSet
742 2084 m 1
 334 2084 l 1
 93 1681 l 1
 452 1681 l 1
 538 1966 l 1
 624 1681 l 1
 983 1681 l 1
 742 2084 l 1
553 -18 m 0
 803 -18 961 130 961 379 c 2
 961 614 l 1
 623 614 l 1
 623 389 l 2
 623 322 602 264 540 264 c 0
 479 264 454 326 454 387 c 2
 454 1114 l 2
 454 1197 483 1239 542 1239 c 0
 609 1239 623 1185 623 1116 c 2
 623 879 l 1
 961 879 l 1
 961 1135 l 2
 961 1380 800 1518 552 1518 c 0
 195 1518 98 1330 98 954 c 2
 98 492 l 2
 98 158 217 -18 553 -18 c 0
EndSplineSet
EndChar

StartChar: cdotaccent
Encoding: 267 267 159
Width: 1043
VWidth: 0
Flags: W
PickledData: "(dp1
S'com.typemytype.robofont.layerData'
p2
(dp3
S'b'
(dp4
S'name'
p5
S'cdotaccent'
p6
sS'lib'
p7
(dp8
sS'unicodes'
p9
(tsS'width'
p10
I1043
sS'contours'
p11
(tsS'components'
p12
(tsS'anchors'
p13
(tsss."
LayerCount: 2
Fore
SplineSet
359 1681 m 1
 717 1681 l 1
 717 1979 l 1
 359 1979 l 1
 359 1681 l 1
553 -18 m 0
 803 -18 961 130 961 379 c 2
 961 614 l 1
 623 614 l 1
 623 389 l 2
 623 322 602 264 540 264 c 0
 479 264 454 326 454 387 c 2
 454 1114 l 2
 454 1197 483 1239 542 1239 c 0
 609 1239 623 1185 623 1116 c 2
 623 879 l 1
 961 879 l 1
 961 1135 l 2
 961 1380 800 1518 552 1518 c 0
 195 1518 98 1330 98 954 c 2
 98 492 l 2
 98 158 217 -18 553 -18 c 0
EndSplineSet
EndChar

StartChar: cedilla
Encoding: 184 184 160
Width: 1015
VWidth: 0
Flags: W
PickledData: "(dp1
S'com.typemytype.robofont.layerData'
p2
(dp3
S'b'
(dp4
S'name'
p5
S'cedilla'
p6
sS'lib'
p7
(dp8
sS'unicodes'
p9
(tsS'width'
p10
I1015
sS'contours'
p11
(tsS'components'
p12
(tsS'anchors'
p13
(tsss."
LayerCount: 2
Fore
SplineSet
464 -671 m 0
 666.467773438 -671 763.63671875 -545.439453125 763.63671875 -411.274414062 c 0
 763.63671875 -283.938476562 666.108398438 -178.8515625 498 -136 c 1
 478 0 l 1
 377 0 l 1
 337 -196 l 1
 419 -214 497 -269 497 -359 c 0
 497 -434 455 -501 266 -501 c 1
 266 -631 l 1
 330 -658 396 -671 464 -671 c 0
EndSplineSet
EndChar

StartChar: cent
Encoding: 162 162 161
Width: 1048
VWidth: 0
Flags: W
PickledData: "(dp1
S'com.typemytype.robofont.layerData'
p2
(dp3
S'b'
(dp4
S'name'
p5
S'cent'
p6
sS'lib'
p7
(dp8
sS'unicodes'
p9
(tsS'width'
p10
I1048
sS'contours'
p11
(tsS'components'
p12
(tsS'anchors'
p13
(tsss."
LayerCount: 2
Fore
SplineSet
465 -13 m 1
 198 18 98 190 98 492 c 2
 98 954 l 2
 98 1297 179 1484 465 1514 c 1
 465 1769 l 1
 636 1769 l 1
 636 1512 l 1
 839 1484 978 1351 978 1135 c 2
 978 879 l 1
 622 879 l 1
 622 1116 l 2
 622 1185 609 1239 542 1239 c 0
 483 1239 454 1197 454 1114 c 2
 454 387 l 2
 454 326 479 264 540 264 c 0
 602 264 624.297851562 322.000976562 624 389 c 2
 623 614 l 1
 978 614 l 1
 978 379 l 2
 978 157 842 15 636 -13 c 1
 636 -228 l 1
 465 -228 l 1
 465 -13 l 1
EndSplineSet
EndChar

StartChar: circumflex
Encoding: 710 710 162
Width: 970
VWidth: 0
Flags: W
PickledData: "(dp1
S'com.typemytype.robofont.layerData'
p2
(dp3
S'b'
(dp4
S'name'
p5
S'circumflex'
p6
sS'lib'
p7
(dp8
sS'unicodes'
p9
(tsS'width'
p10
I970
sS'contours'
p11
(tsS'components'
p12
(tsS'anchors'
p13
(tsss."
LayerCount: 2
Fore
SplineSet
689 1994 m 1
 281 1994 l 1
 40 1591 l 1
 399 1591 l 1
 485 1876 l 1
 571 1591 l 1
 930 1591 l 1
 689 1994 l 1
EndSplineSet
EndChar

StartChar: colon
Encoding: 58 58 163
Width: 555
VWidth: 0
Flags: W
PickledData: "(dp1
S'com.typemytype.robofont.layerData'
p2
(dp3
S'b'
(dp4
S'name'
p5
S'colon'
p6
sS'lib'
p7
(dp8
sS'unicodes'
p9
(tsS'width'
p10
I555
sS'contours'
p11
(tsS'components'
p12
(tsS'anchors'
p13
(tsss."
LayerCount: 2
Fore
SplineSet
443 1307 m 1
 112 1307 l 1
 112 1009 l 1
 443 1009 l 1
 443 1307 l 1
443 568 m 1
 112 568 l 1
 112 270 l 1
 443 270 l 1
 443 568 l 1
EndSplineSet
EndChar

StartChar: comma
Encoding: 44 44 164
Width: 528
VWidth: 0
Flags: W
PickledData: "(dp1
S'com.typemytype.robofont.layerData'
p2
(dp3
S'b'
(dp4
S'name'
p5
S'comma'
p6
sS'lib'
p7
(dp8
sS'unicodes'
p9
(tsS'width'
p10
I528
sS'contours'
p11
(tsS'components'
p12
(tsS'anchors'
p13
(tsss."
LayerCount: 2
Fore
SplineSet
176 -328 m 1
 344 -328 l 1
 446 9 l 1
 446 318 l 1
 115 318 l 1
 115 0 l 1
 242 0 l 1
 176 -328 l 1
EndSplineSet
EndChar

StartChar: copyright
Encoding: 169 169 165
Width: 1466
VWidth: 0
Flags: W
PickledData: "(dp1
S'com.typemytype.robofont.layerData'
p2
(dp3
S'b'
(dp4
S'name'
p5
S'copyright'
p6
sS'lib'
p7
(dp8
sS'unicodes'
p9
(tsS'width'
p10
I1466
sS'contours'
p11
(tsS'components'
p12
(tsS'anchors'
p13
(tsss."
LayerCount: 2
Fore
SplineSet
692 1066 m 2
 692 1104 699 1130 736 1130 c 0
 767 1130 782 1104 782 1053 c 2
 782 952 l 1
 947 952 l 1
 947 1105 l 2
 947 1239 870 1305 736 1305 c 0
 571 1305 497 1217 497 1049 c 2
 497 648 l 2
 497 507 593 424 732 424 c 0
 894 424 951 497 951 643 c 2
 951 806 l 1
 782 806 l 1
 782 657 l 2
 782 614 767 592 736 592 c 0
 708 592 692 627 692 657 c 2
 692 1066 l 2
733 205 m 0
 1106 205 1390 489 1390 862 c 0
 1390 1235 1106 1519 733 1519 c 0
 360 1519 76 1235 76 862 c 0
 76 489 360 205 733 205 c 0
733 1390 m 0
 1022 1390 1231 1153 1231 862 c 0
 1231 571 1022 334 733 334 c 0
 444 334 235 571 235 862 c 0
 235 1153 444 1390 733 1390 c 0
EndSplineSet
EndChar

StartChar: currency
Encoding: 164 164 166
Width: 1159
VWidth: 0
Flags: W
PickledData: "(dp1
S'com.typemytype.robofont.layerData'
p2
(dp3
S'b'
(dp4
S'name'
p5
S'currency'
p6
sS'lib'
p7
(dp8
sS'unicodes'
p9
(tsS'width'
p10
I1159
sS'contours'
p11
(tsS'components'
p12
(tsS'anchors'
p13
(tsss."
LayerCount: 2
Fore
SplineSet
788 966 m 0
 788 842 706 741 579 741 c 0
 452 741 371 840 371 964 c 0
 371 1087 453 1186 579 1186 c 0
 708 1186 788 1092 788 966 c 0
579 545 m 0
 661 545 733 562 795 597 c 1
 884 509 l 1
 1034 658 l 1
 944 748 l 1
 980 813 998 885 998 964 c 0
 998 1043 980 1114 944 1179 c 1
 1034 1269 l 1
 884 1418 l 1
 797 1331 l 1
 732 1367 659 1385 579 1385 c 0
 498 1385 426 1367 361 1330 c 1
 274 1418 l 1
 125 1268 l 1
 215 1178 l 1
 180 1113 163 1042 163 964 c 0
 163 887 181 815 216 750 c 1
 125 659 l 1
 274 509 l 1
 363 598 l 1
 424 563 496 545 579 545 c 0
EndSplineSet
EndChar

StartChar: d
Encoding: 100 100 167
Width: 825
VWidth: 0
Flags: W
PickledData: "(dp1
S'com.typemytype.robofont.guides'
p2
(tsS'com.typemytype.robofont.layerData'
p3
(dp4
S'b'
(dp5
S'name'
p6
S'd'
sS'lib'
p7
(dp8
sS'unicodes'
p9
(tsS'width'
p10
I825
sS'contours'
p11
((dp12
S'points'
p13
((dp14
S'y'
F131
sS'x'
F283
sS'smooth'
p15
I00
s(dp16
S'y'
F168
sS'x'
F241
sg15
I00
s(dp17
S'segmentType'
p18
S'curve'
p19
sS'x'
F241
sg15
I01
sS'y'
F285
s(dp20
g18
S'line'
p21
sS'x'
F241
sg15
I00
sS'y'
F1499
s(dp22
g18
S'line'
p23
sS'x'
F73
sg15
I00
sS'y'
F1499
s(dp24
g18
S'line'
p25
sS'x'
F73
sg15
I01
sS'y'
F293
s(dp26
S'y'
F91
sS'x'
F73
sg15
I00
s(dp27
S'y'
F-7
sS'x'
F148
sg15
I00
s(dp28
g18
S'curve'
p29
sS'x'
F276
sg15
I01
sS'y'
F-19
s(dp30
S'y'
F-20
sS'x'
F284
sg15
I00
s(dp31
S'y'
F-20
sS'x'
F292
sg15
I00
s(dp32
g18
S'curve'
p33
sS'x'
F300
sg15
I01
sS'y'
F-20
s(dp34
S'y'
F-20
sS'x'
F418
sg15
I00
s(dp35
S'y'
F62
sS'x'
F516
sg15
I00
s(dp36
g18
S'curve'
p37
sS'x'
F542
sg15
I00
sS'y'
F150
s(dp38
g18
S'line'
p39
sS'x'
F542
sg15
I00
sS'y'
F-1
s(dp40
g18
S'line'
p41
sS'x'
F710
sg15
I00
sS'y'
F-1
s(dp42
g18
S'line'
p43
sS'x'
F710
sg15
I00
sS'y'
F1499
s(dp44
g18
S'line'
p45
sS'x'
F542
sg15
I00
sS'y'
F1499
s(dp46
g18
S'line'
p47
sS'x'
F542
sg15
I00
sS'y'
F294
s(dp48
S'y'
F211
sS'x'
F522
sg15
I00
s(dp49
S'y'
F131
sS'x'
F424
sg15
I00
s(dp50
g18
S'curve'
p51
sS'x'
F341
sg15
I01
sS'y'
F131
stp52
stp53
sS'components'
p54
(tsS'anchors'
p55
(tsss."
LayerCount: 2
Fore
SplineSet
394 128 m 2
 392 128 l 1
 293 129 265 234 265 465 c 2
 265 1058 l 2
 265 1245 279 1368 406 1368 c 0
 456 1368 508 1326 542 1276 c 1
 542 224 l 1
 518 186 466 128 394 128 c 2
542 118 m 1
 542 0 l 1
 710 0 l 1
 710 1768 l 1
 542 1768 l 1
 542 1395 l 1
 514 1461 450 1518 377 1518 c 0
 147 1518 97 1303 97 1021 c 2
 97 481 l 2
 97 200 131 -12 340 -12 c 0
 419 -12 501 21 542 118 c 1
EndSplineSet
EndChar

StartChar: dagger
Encoding: 8224 8224 168
Width: 909
VWidth: 0
Flags: W
PickledData: "(dp1
S'com.typemytype.robofont.layerData'
p2
(dp3
S'b'
(dp4
S'name'
p5
S'dagger'
p6
sS'lib'
p7
(dp8
sS'unicodes'
p9
(tsS'width'
p10
I909
sS'contours'
p11
(tsS'components'
p12
(tsS'anchors'
p13
(tsss."
LayerCount: 2
Fore
SplineSet
818 886 m 1
 818 1182 l 1
 638 1182 l 1
 638 1592 l 1
 274 1592 l 1
 274 1182 l 1
 91 1182 l 1
 91 886 l 1
 274 886 l 1
 274 0 l 1
 638 0 l 1
 638 886 l 1
 818 886 l 1
EndSplineSet
EndChar

StartChar: daggerdbl
Encoding: 8225 8225 169
Width: 927
VWidth: 0
Flags: W
PickledData: "(dp1
S'com.typemytype.robofont.layerData'
p2
(dp3
S'b'
(dp4
S'name'
p5
S'daggerdbl'
p6
sS'lib'
p7
(dp8
sS'unicodes'
p9
(tsS'width'
p10
I927
sS'contours'
p11
(tsS'components'
p12
(tsS'anchors'
p13
(tsss."
LayerCount: 2
Fore
SplineSet
283 1236 m 1
 100 1236 l 1
 100 940 l 1
 283 940 l 1
 283 646 l 1
 100 646 l 1
 100 350 l 1
 283 350 l 1
 283 0 l 1
 647 0 l 1
 647 350 l 1
 827 350 l 1
 827 646 l 1
 647 646 l 1
 647 940 l 1
 827 940 l 1
 827 1236 l 1
 647 1236 l 1
 647 1592 l 1
 283 1592 l 1
 283 1236 l 1
EndSplineSet
EndChar

StartChar: dcaron
Encoding: 271 271 170
Width: 1493
VWidth: 0
Flags: W
PickledData: "(dp1
S'com.typemytype.robofont.layerData'
p2
(dp3
S'b'
(dp4
S'name'
p5
S'dcaron'
p6
sS'lib'
p7
(dp8
sS'unicodes'
p9
(tsS'width'
p10
I1493
sS'contours'
p11
(tsS'components'
p12
(tsS'anchors'
p13
(tsss."
LayerCount: 2
Fore
SplineSet
1156.5 1121 m 1
 1324.5 1121 l 1
 1426.5 1458 l 1
 1426.5 1767 l 1
 1095.5 1767 l 1
 1095.5 1449 l 1
 1222.5 1449 l 1
 1156.5 1121 l 1
542 1239 m 0
 612 1239 626 1153 626 1083 c 2
 626 520 l 2
 626 422 638 264 540 264 c 0
 483 264 454 327 454 452 c 2
 454 1083 l 2
 454 1160 465 1239 542 1239 c 0
403 -18 m 0
 528 -18 586 51 626 159 c 1
 626 0 l 1
 982 0 l 1
 982 1767 l 1
 626 1767 l 1
 626 1419 l 1
 577 1485 504 1518 409 1518 c 0
 204 1518 98 1357 98 1153 c 2
 98 477 l 2
 98 201 126 -18 403 -18 c 0
EndSplineSet
EndChar

StartChar: dcroat
Encoding: 273 273 171
Width: 1094
VWidth: 0
Flags: W
PickledData: "(dp1
S'com.typemytype.robofont.layerData'
p2
(dp3
S'b'
(dp4
S'name'
p5
S'dcroat'
p6
sS'lib'
p7
(dp8
sS'unicodes'
p9
(tsS'width'
p10
I1094
sS'contours'
p11
(tsS'components'
p12
(tsS'anchors'
p13
(tsss."
LayerCount: 2
Fore
SplineSet
403 -18 m 0
 528 -18 586 51 626 159 c 1
 626 0 l 1
 982 0 l 1
 982 1468 l 1
 1094 1468 l 1
 1094 1638 l 1
 982 1638 l 1
 982 1767 l 1
 626 1767 l 1
 626 1638 l 1
 278 1638 l 1
 278 1468 l 1
 626 1468 l 1
 626 1239 l 1
 577 1305 504 1338 409 1338 c 0
 204 1338 98 1177 98 973 c 2
 98 477 l 2
 98 201 126 -18 403 -18 c 0
542 1059 m 0
 612 1059 626 973 626 903 c 2
 626 520 l 2
 626 422 638 264 540 264 c 0
 483 264 454 327 454 452 c 2
 454 903 l 2
 454 980 465 1059 542 1059 c 0
EndSplineSet
EndChar

StartChar: degree
Encoding: 176 176 172
Width: 915
VWidth: 0
Flags: W
PickledData: "(dp1
S'com.typemytype.robofont.layerData'
p2
(dp3
S'b'
(dp4
S'name'
p5
S'degree'
p6
sS'lib'
p7
(dp8
sS'unicodes'
p9
(tsS'width'
p10
I915
sS'contours'
p11
(tsS'components'
p12
(tsS'anchors'
p13
(tsss."
LayerCount: 2
Fore
SplineSet
457 931 m 0
 671 931 811 1058 811 1269 c 0
 811 1480 671 1607 457 1607 c 0
 243 1607 104 1480 104 1269 c 0
 104 1057 243 931 457 931 c 0
458 1426 m 0
 547 1426 600 1356 600 1269 c 0
 600 1182 547 1112 458 1112 c 0
 369 1112 316 1182 316 1269 c 0
 316 1356 369 1426 458 1426 c 0
EndSplineSet
EndChar

StartChar: dieresis
Encoding: 168 168 173
Width: 976
VWidth: 0
Flags: W
PickledData: "(dp1
S'com.typemytype.robofont.layerData'
p2
(dp3
S'b'
(dp4
S'name'
p5
S'dieresis'
p6
sS'lib'
p7
(dp8
sS'unicodes'
p9
(tsS'width'
p10
I976
sS'contours'
p11
(tsS'components'
p12
(tsS'anchors'
p13
(tsss."
LayerCount: 2
Fore
SplineSet
551 1591 m 1
 909 1591 l 1
 909 1889 l 1
 551 1889 l 1
 551 1591 l 1
67 1591 m 1
 425 1591 l 1
 425 1889 l 1
 67 1889 l 1
 67 1591 l 1
EndSplineSet
EndChar

StartChar: divide
Encoding: 247 247 174
Width: 804
VWidth: 0
Flags: W
PickledData: "(dp1
S'com.typemytype.robofont.layerData'
p2
(dp3
S'b'
(dp4
S'name'
p5
S'divide'
p6
sS'lib'
p7
(dp8
sS'unicodes'
p9
(tsS'width'
p10
I804
sS'contours'
p11
(tsS'components'
p12
(tsS'anchors'
p13
(tsss."
LayerCount: 2
Fore
SplineSet
551 1274 m 1
 253 1274 l 1
 253 976 l 1
 551 976 l 1
 551 1274 l 1
551 535 m 1
 253 535 l 1
 253 237 l 1
 551 237 l 1
 551 535 l 1
710 870 m 1
 94 870 l 1
 94 638 l 1
 710 638 l 1
 710 870 l 1
EndSplineSet
EndChar

StartChar: dollar
Encoding: 36 36 175
Width: 946
VWidth: 0
Flags: W
PickledData: "(dp1
S'com.typemytype.robofont.layerData'
p2
(dp3
S'b'
(dp4
S'name'
p5
S'dollar'
p6
sS'lib'
p7
(dp8
sS'unicodes'
p9
(tsS'width'
p10
I946
sS'contours'
p11
(tsS'components'
p12
(tsS'anchors'
p13
(tsss."
LayerCount: 2
Fore
SplineSet
590 1511 m 1
 776 1485 863 1379 863 1132 c 2
 863 1035 l 1
 562 1035 l 1
 562 1128 l 2
 562 1207 539 1239 484 1239 c 0
 428 1239 409 1205 409 1155 c 0
 409 1102 429 1057 467 1023 c 2
 660 852 l 2
 804 725 889 627 890 399 c 1
 890 145 777 21 590 -12 c 1
 590 -230 l 1
 417 -230 l 1
 417 -19 l 1
 181 -3 73 121 73 432 c 2
 73 505 l 1
 396 505 l 1
 396 372 l 2
 396 304 416 263 475 263 c 0
 526 263 546 293 546 371 c 0
 546 501 515 522 426 598 c 2
 248 752 l 1
 127 855 77 943 77 1127 c 0
 77 1371.61782837 198.47052002 1494.84437561 417 1515 c 1
 417 1761 l 1
 590 1761 l 1
 590 1511 l 1
EndSplineSet
EndChar

StartChar: dotaccent
Encoding: 729 729 176
Width: 572
VWidth: 0
Flags: W
PickledData: "(dp1
S'com.typemytype.robofont.layerData'
p2
(dp3
S'b'
(dp4
S'name'
p5
S'dotaccent'
p6
sS'lib'
p7
(dp8
sS'unicodes'
p9
(tsS'width'
p10
I572
sS'contours'
p11
(tsS'components'
p12
(tsS'anchors'
p13
(tsss."
LayerCount: 2
Fore
SplineSet
107 1592 m 1
 465 1592 l 1
 465 1890 l 1
 107 1890 l 1
 107 1592 l 1
EndSplineSet
EndChar

StartChar: dotlessi
Encoding: 305 305 177
Width: 586
VWidth: 0
Flags: W
PickledData: "(dp1
S'com.typemytype.robofont.layerData'
p2
(dp3
S'b'
(dp4
S'name'
p5
S'dotlessi'
p6
sS'lib'
p7
(dp8
sS'unicodes'
p9
(tsS'width'
p10
I586
sS'contours'
p11
(tsS'components'
p12
(tsS'anchors'
p13
(tsss."
LayerCount: 2
Fore
SplineSet
471 1500 m 1
 115 1500 l 1
 115 0 l 1
 471 0 l 1
 471 1500 l 1
EndSplineSet
EndChar

StartChar: e
Encoding: 101 101 178
Width: 791
VWidth: 0
Flags: W
PickledData: "(dp1
S'com.typemytype.robofont.guides'
p2
(tsS'com.typemytype.robofont.layerData'
p3
(dp4
S'b'
(dp5
S'name'
p6
S'e'
sS'lib'
p7
(dp8
sS'unicodes'
p9
(tsS'width'
p10
F791
sS'contours'
p11
((dp12
S'points'
p13
((dp14
S'segmentType'
p15
S'line'
p16
sS'x'
F624
sS'smooth'
p17
I00
sS'y'
F579
s(dp18
g15
S'line'
p19
sS'x'
F624
sg17
I01
sS'y'
F431
s(dp20
S'y'
F343
sS'x'
F624
sg17
I00
s(dp21
S'y'
F260
sS'x'
F628
sg17
I00
s(dp22
g15
S'curve'
p23
sS'x'
F542
sg17
I01
sS'y'
F260
s(dp24
S'y'
F260
sS'x'
F462
sg17
I00
s(dp25
S'y'
F346
sS'x'
F456
sg17
I00
s(dp26
g15
S'curve'
p27
sS'x'
F456
sg17
I01
sS'y'
F427
s(dp28
g15
S'line'
p29
sS'x'
F456
sg17
I00
sS'y'
F717
s(dp30
g15
S'line'
p31
sS'x'
F976
sg17
I00
sS'y'
F717
s(dp32
g15
S'line'
p33
sS'x'
F976
sg17
I01
sS'y'
F1092
s(dp34
S'y'
F1376
sS'x'
F976
sg17
I00
s(dp35
S'y'
F1518
sS'x'
F836
sg17
I00
s(dp36
g15
S'curve'
p37
sS'x'
F548
sg17
I01
sS'y'
F1518
s(dp38
S'y'
F1518
sS'x'
F268
sg17
I00
s(dp39
S'y'
F1371
sS'x'
F98
sg17
I00
s(dp40
g15
S'curve'
p41
sS'x'
F98
sg17
I01
sS'y'
F1092
s(dp42
g15
S'line'
p43
sS'x'
F98
sg17
I01
sS'y'
F489
s(dp44
S'y'
F170
sS'x'
F98
sg17
I00
s(dp45
S'y'
F-18
sS'x'
F209
sg17
I00
s(dp46
g15
S'curve'
p47
sS'x'
F530
sg17
I01
sS'y'
F-18
s(dp48
S'y'
F-18
sS'x'
F870
sg17
I00
s(dp49
S'y'
F138
sS'x'
F976
sg17
I00
s(dp50
g15
S'curve'
p51
sS'x'
F976
sg17
I01
sS'y'
F475
s(dp52
g15
S'line'
p53
sS'x'
F976
sg17
I00
sS'y'
F579
stp54
s(dp55
g13
((dp56
g15
S'line'
p57
sS'x'
F454
sg17
I01
sS'y'
F1081
s(dp58
S'y'
F1170
sS'x'
F454
sg17
I00
s(dp59
S'y'
F1249
sS'x'
F457
sg17
I00
s(dp60
g15
S'curve'
p61
sS'x'
F544
sg17
I01
sS'y'
F1249
s(dp62
S'y'
F1249
sS'x'
F597
sg17
I00
s(dp63
S'y'
F1195
sS'x'
F624
sg17
I00
s(dp64
g15
S'curve'
p65
sS'x'
F624
sg17
I01
sS'y'
F1087
s(dp66
g15
S'line'
p67
sS'x'
F624
sg17
I00
sS'y'
F895
s(dp68
g15
S'line'
p69
sS'x'
F454
sg17
I00
sS'y'
F895
stp70
stp71
sS'components'
p72
(tsS'anchors'
p73
(tsss."
LayerCount: 2
Fore
SplineSet
695 842 m 1
 695 1030 l 2
 695 1320 679 1518 408 1518 c 0
 138 1518 97 1303 97 1021 c 2
 97 509 l 2
 97 198 123 -18 402 -18 c 0
 683 -18 691 198 691 504 c 2
 691 558 l 1
 527 558 l 1
 527 443 l 2
 527 246 521 126 402 126 c 0
 276 126 265 231 265 448 c 2
 265 1062 l 2
 265 1249 281 1374 408 1374 c 0
 527 1374 527 1266 527 1070 c 2
 527 842 l 1
 695 842 l 1
695 879 m 1
 227 879 l 1
 227 749 l 1
 695 749 l 1
 695 879 l 1
EndSplineSet
EndChar

StartChar: eacute
Encoding: 233 233 179
Width: 1064
VWidth: 0
Flags: W
PickledData: "(dp1
S'com.typemytype.robofont.layerData'
p2
(dp3
S'b'
(dp4
S'name'
p5
S'eacute'
p6
sS'lib'
p7
(dp8
sS'unicodes'
p9
(tsS'width'
p10
I1064
sS'contours'
p11
(tsS'components'
p12
(tsS'anchors'
p13
(tsss."
LayerCount: 2
Fore
SplineSet
301.5 1681 m 1
 776.5 1775 l 1
 776.5 2122 l 1
 301.5 1904 l 1
 301.5 1681 l 1
454 1081 m 2
 454 1170 457 1249 544 1249 c 0
 597 1249 624 1195 624 1087 c 2
 624 895 l 1
 454 895 l 1
 454 1081 l 2
624 579 m 1
 624 431 l 2
 624 343 628 260 542 260 c 0
 462 260 456 346 456 427 c 2
 456 717 l 1
 976 717 l 1
 976 1092 l 2
 976 1376 836 1518 548 1518 c 0
 268 1518 98 1371 98 1092 c 2
 98 489 l 2
 98 170 209 -18 530 -18 c 0
 870 -18 976 138 976 475 c 2
 976 579 l 1
 624 579 l 1
EndSplineSet
EndChar

StartChar: ebreve
Encoding: 277 277 180
Width: 1064
VWidth: 0
Flags: W
PickledData: "(dp1
S'com.typemytype.robofont.layerData'
p2
(dp3
S'b'
(dp4
S'name'
p5
S'ebreve'
p6
sS'lib'
p7
(dp8
sS'unicodes'
p9
(tsS'width'
p10
I1064
sS'contours'
p11
(tsS'components'
p12
(tsS'anchors'
p13
(tsss."
LayerCount: 2
Fore
SplineSet
539 1871 m 0
 456 1871 404 1889 404 2014 c 1
 186 2014 l 1
 186 1999 l 2
 186 1782 303 1681 537 1681 c 0
 777 1681 892 1778 892 2001 c 2
 892 2014 l 1
 674 2014 l 1
 674 1889 622 1871 539 1871 c 0
454 1081 m 2
 454 1170 457 1249 544 1249 c 0
 597 1249 624 1195 624 1087 c 2
 624 895 l 1
 454 895 l 1
 454 1081 l 2
624 579 m 1
 624 431 l 2
 624 343 628 260 542 260 c 0
 462 260 456 346 456 427 c 2
 456 717 l 1
 976 717 l 1
 976 1092 l 2
 976 1376 836 1518 548 1518 c 0
 268 1518 98 1371 98 1092 c 2
 98 489 l 2
 98 170 209 -18 530 -18 c 0
 870 -18 976 138 976 475 c 2
 976 579 l 1
 624 579 l 1
EndSplineSet
EndChar

StartChar: ecaron
Encoding: 283 283 181
Width: 1064
VWidth: 0
Flags: W
PickledData: "(dp1
S'com.typemytype.robofont.layerData'
p2
(dp3
S'b'
(dp4
S'name'
p5
S'ecaron'
p6
sS'lib'
p7
(dp8
sS'unicodes'
p9
(tsS'width'
p10
I1064
sS'contours'
p11
(tsS'components'
p12
(tsS'anchors'
p13
(tsss."
LayerCount: 2
Fore
SplineSet
743 1681 m 1
 984 2084 l 1
 625 2084 l 1
 539 1799 l 1
 453 2084 l 1
 94 2084 l 1
 335 1681 l 1
 743 1681 l 1
454 1081 m 2
 454 1170 457 1249 544 1249 c 0
 597 1249 624 1195 624 1087 c 2
 624 895 l 1
 454 895 l 1
 454 1081 l 2
624 579 m 1
 624 431 l 2
 624 343 628 260 542 260 c 0
 462 260 456 346 456 427 c 2
 456 717 l 1
 976 717 l 1
 976 1092 l 2
 976 1376 836 1518 548 1518 c 0
 268 1518 98 1371 98 1092 c 2
 98 489 l 2
 98 170 209 -18 530 -18 c 0
 870 -18 976 138 976 475 c 2
 976 579 l 1
 624 579 l 1
EndSplineSet
EndChar

StartChar: ecircumflex
Encoding: 234 234 182
Width: 1064
VWidth: 0
Flags: W
PickledData: "(dp1
S'com.typemytype.robofont.layerData'
p2
(dp3
S'b'
(dp4
S'name'
p5
S'ecircumflex'
p6
sS'lib'
p7
(dp8
sS'unicodes'
p9
(tsS'width'
p10
I1064
sS'contours'
p11
(tsS'components'
p12
(tsS'anchors'
p13
(tsss."
LayerCount: 2
Fore
SplineSet
743 2084 m 1
 335 2084 l 1
 94 1681 l 1
 453 1681 l 1
 539 1966 l 1
 625 1681 l 1
 984 1681 l 1
 743 2084 l 1
454 1081 m 2
 454 1170 457 1249 544 1249 c 0
 597 1249 624 1195 624 1087 c 2
 624 895 l 1
 454 895 l 1
 454 1081 l 2
624 579 m 1
 624 431 l 2
 624 343 628 260 542 260 c 0
 462 260 456 346 456 427 c 2
 456 717 l 1
 976 717 l 1
 976 1092 l 2
 976 1376 836 1518 548 1518 c 0
 268 1518 98 1371 98 1092 c 2
 98 489 l 2
 98 170 209 -18 530 -18 c 0
 870 -18 976 138 976 475 c 2
 976 579 l 1
 624 579 l 1
EndSplineSet
EndChar

StartChar: edieresis
Encoding: 235 235 183
Width: 1064
VWidth: 0
Flags: W
PickledData: "(dp1
S'com.typemytype.robofont.layerData'
p2
(dp3
S'b'
(dp4
S'name'
p5
S'edieresis'
p6
sS'lib'
p7
(dp8
sS'unicodes'
p9
(tsS'width'
p10
I1064
sS'contours'
p11
(tsS'components'
p12
(tsS'anchors'
p13
(tsss."
LayerCount: 2
Fore
SplineSet
602 1681 m 1
 960 1681 l 1
 960 1979 l 1
 602 1979 l 1
 602 1681 l 1
118 1681 m 1
 476 1681 l 1
 476 1979 l 1
 118 1979 l 1
 118 1681 l 1
454 1081 m 2
 454 1170 457 1249 544 1249 c 0
 597 1249 624 1195 624 1087 c 2
 624 895 l 1
 454 895 l 1
 454 1081 l 2
624 579 m 1
 624 431 l 2
 624 343 628 260 542 260 c 0
 462 260 456 346 456 427 c 2
 456 717 l 1
 976 717 l 1
 976 1092 l 2
 976 1376 836 1518 548 1518 c 0
 268 1518 98 1371 98 1092 c 2
 98 489 l 2
 98 170 209 -18 530 -18 c 0
 870 -18 976 138 976 475 c 2
 976 579 l 1
 624 579 l 1
EndSplineSet
EndChar

StartChar: edotaccent
Encoding: 279 279 184
Width: 1064
VWidth: 0
Flags: W
PickledData: "(dp1
S'com.typemytype.robofont.layerData'
p2
(dp3
S'b'
(dp4
S'name'
p5
S'edotaccent'
p6
sS'lib'
p7
(dp8
sS'unicodes'
p9
(tsS'width'
p10
I1064
sS'contours'
p11
(tsS'components'
p12
(tsS'anchors'
p13
(tsss."
LayerCount: 2
Fore
SplineSet
360 1681 m 1
 718 1681 l 1
 718 1979 l 1
 360 1979 l 1
 360 1681 l 1
454 1081 m 2
 454 1170 457 1249 544 1249 c 0
 597 1249 624 1195 624 1087 c 2
 624 895 l 1
 454 895 l 1
 454 1081 l 2
624 579 m 1
 624 431 l 2
 624 343 628 260 542 260 c 0
 462 260 456 346 456 427 c 2
 456 717 l 1
 976 717 l 1
 976 1092 l 2
 976 1376 836 1518 548 1518 c 0
 268 1518 98 1371 98 1092 c 2
 98 489 l 2
 98 170 209 -18 530 -18 c 0
 870 -18 976 138 976 475 c 2
 976 579 l 1
 624 579 l 1
EndSplineSet
EndChar

StartChar: egrave
Encoding: 232 232 185
Width: 1064
VWidth: 0
Flags: W
PickledData: "(dp1
S'com.typemytype.robofont.layerData'
p2
(dp3
S'b'
(dp4
S'name'
p5
S'egrave'
p6
sS'lib'
p7
(dp8
sS'unicodes'
p9
(tsS'width'
p10
I1064
sS'contours'
p11
(tsS'components'
p12
(tsS'anchors'
p13
(tsss."
LayerCount: 2
Fore
SplineSet
776.5 1681 m 1
 776.5 1904 l 1
 301.5 2122 l 1
 301.5 1775 l 1
 776.5 1681 l 1
454 1081 m 2
 454 1170 457 1249 544 1249 c 0
 597 1249 624 1195 624 1087 c 2
 624 895 l 1
 454 895 l 1
 454 1081 l 2
624 579 m 1
 624 431 l 2
 624 343 628 260 542 260 c 0
 462 260 456 346 456 427 c 2
 456 717 l 1
 976 717 l 1
 976 1092 l 2
 976 1376 836 1518 548 1518 c 0
 268 1518 98 1371 98 1092 c 2
 98 489 l 2
 98 170 209 -18 530 -18 c 0
 870 -18 976 138 976 475 c 2
 976 579 l 1
 624 579 l 1
EndSplineSet
EndChar

StartChar: eight
Encoding: 56 56 186
Width: 1019
VWidth: 0
Flags: W
PickledData: "(dp1
S'com.typemytype.robofont.layerData'
p2
(dp3
S'b'
(dp4
S'name'
p5
S'eight'
p6
sS'lib'
p7
(dp8
sS'unicodes'
p9
(tsS'width'
p10
I1019
sS'contours'
p11
(tsS'components'
p12
(tsS'anchors'
p13
(tsss."
LayerCount: 2
Fore
SplineSet
66.5 1336 m 0
 66.5 1191.33789062 105.668945312 1054.46582031 190.364257812 986.9375 c 1
 109.874023438 924.223632812 66.5 821.823242188 66.5 666 c 2
 66.5 466 l 2
 66.5 153 224.5 -21 512.5 -21 c 0
 800.5 -21 952.5 153 952.5 466 c 2
 952.5 666 l 2
 952.5 819.344726562 912.032226562 920.951171875 835.50390625 983.9140625 c 1
 921.05859375 1051.04003906 952.5 1189.77734375 952.5 1336 c 0
 952.5 1659 818.5 1782 510.5 1782 c 0
 210.5 1782 66.5 1648 66.5 1336 c 0
510.5 1511 m 0
 582.5 1511 592.5 1471 592.5 1290 c 0
 592.5 1118 572.5 1073 510.5 1073 c 0
 448.5 1073 426.5 1116 426.5 1290 c 0
 426.5 1465 438.5 1511 510.5 1511 c 0
426.5 674 m 2
 426.5 749 444.5 812 512.5 812 c 0
 582.5 812 592.5 740 592.5 673 c 2
 592.5 457 l 2
 592.5 372 589.5 290 512.5 290 c 0
 430.5 290 426.5 365 426.5 457 c 2
 426.5 674 l 2
EndSplineSet
EndChar

StartChar: ellipsis
Encoding: 8230 8230 187
Width: 1450
VWidth: 0
Flags: W
PickledData: "(dp1
S'com.typemytype.robofont.layerData'
p2
(dp3
S'b'
(dp4
S'name'
p5
S'ellipsis'
p6
sS'lib'
p7
(dp8
sS'unicodes'
p9
(tsS'width'
p10
I1450
sS'contours'
p11
(tsS'components'
p12
(tsS'anchors'
p13
(tsss."
LayerCount: 2
Fore
SplineSet
1395 299 m 1
 1037 299 l 1
 1037 1 l 1
 1395 1 l 1
 1395 299 l 1
904 299 m 1
 546 299 l 1
 546 1 l 1
 904 1 l 1
 904 299 l 1
413 299 m 1
 55 299 l 1
 55 1 l 1
 413 1 l 1
 413 299 l 1
EndSplineSet
EndChar

StartChar: emacron
Encoding: 275 275 188
Width: 1064
VWidth: 0
Flags: W
PickledData: "(dp1
S'com.typemytype.robofont.layerData'
p2
(dp3
S'b'
(dp4
S'name'
p5
S'emacron'
p6
sS'lib'
p7
(dp8
sS'unicodes'
p9
(tsS'width'
p10
I1064
sS'contours'
p11
(tsS'components'
p12
(tsS'anchors'
p13
(tsss."
LayerCount: 2
Fore
SplineSet
797 1913 m 1
 281 1913 l 1
 281 1681 l 1
 797 1681 l 1
 797 1913 l 1
454 1081 m 2
 454 1170 457 1249 544 1249 c 0
 597 1249 624 1195 624 1087 c 2
 624 895 l 1
 454 895 l 1
 454 1081 l 2
624 579 m 1
 624 431 l 2
 624 343 628 260 542 260 c 0
 462 260 456 346 456 427 c 2
 456 717 l 1
 976 717 l 1
 976 1092 l 2
 976 1376 836 1518 548 1518 c 0
 268 1518 98 1371 98 1092 c 2
 98 489 l 2
 98 170 209 -18 530 -18 c 0
 870 -18 976 138 976 475 c 2
 976 579 l 1
 624 579 l 1
EndSplineSet
EndChar

StartChar: emdash
Encoding: 8212 8212 189
Width: 1153
VWidth: 0
Flags: W
PickledData: "(dp1
S'com.typemytype.robofont.layerData'
p2
(dp3
S'b'
(dp4
S'name'
p5
S'emdash'
p6
sS'lib'
p7
(dp8
sS'unicodes'
p9
(tsS'width'
p10
I1153
sS'contours'
p11
(tsS'components'
p12
(tsS'anchors'
p13
(tsss."
LayerCount: 2
Fore
SplineSet
1092 509 m 1
 1092 741 l 1
 60 741 l 1
 60 509 l 1
 1092 509 l 1
EndSplineSet
EndChar

StartChar: endash
Encoding: 8211 8211 190
Width: 756
VWidth: 0
Flags: W
PickledData: "(dp1
S'com.typemytype.robofont.layerData'
p2
(dp3
S'b'
(dp4
S'name'
p5
S'endash'
p6
sS'lib'
p7
(dp8
sS'unicodes'
p9
(tsS'width'
p10
I756
sS'contours'
p11
(tsS'components'
p12
(tsS'anchors'
p13
(tsss."
LayerCount: 2
Fore
SplineSet
636 741 m 1
 120 741 l 1
 120 509 l 1
 636 509 l 1
 636 741 l 1
EndSplineSet
EndChar

StartChar: eogonek
Encoding: 281 281 191
Width: 1064
VWidth: 0
Flags: W
PickledData: "(dp1
S'com.typemytype.robofont.layerData'
p2
(dp3
S'b'
(dp4
S'name'
p5
S'eogonek'
p6
sS'lib'
p7
(dp8
sS'unicodes'
p9
(tsS'width'
p10
I1064
sS'contours'
p11
(tsS'components'
p12
(tsS'anchors'
p13
(tsss."
LayerCount: 2
Fore
SplineSet
459.5 -296.133789062 m 0
 459.5 -186.133789062 535.5 -87.1337890625 609.5 2.8662109375 c 1
 468.5 2.8662109375 l 1
 292.5 -96.1337890625 214.5 -236.133789062 214.5 -357.133789062 c 0
 214.5 -531.133789062 331.5 -623.133789062 521.5 -623.133789062 c 0
 589.5 -623.133789062 667.5 -601.133789062 690.5 -588.133789062 c 1
 690.5 -415.133789062 l 1
 666.5 -420.133789062 640.5 -423.133789062 615.5 -423.133789062 c 0
 535.5 -423.133789062 459.5 -393.133789062 459.5 -296.133789062 c 0
454 1081 m 2
 454 1170 457 1249 544 1249 c 0
 597 1249 624 1195 624 1087 c 2
 624 895 l 1
 454 895 l 1
 454 1081 l 2
624 579 m 1
 624 431 l 2
 624 343 628 260 542 260 c 0
 462 260 456 346 456 427 c 2
 456 717 l 1
 976 717 l 1
 976 1092 l 2
 976 1376 836 1518 548 1518 c 0
 268 1518 98 1371 98 1092 c 2
 98 489 l 2
 98 170 209 -18 530 -18 c 0
 870 -18 976 138 976 475 c 2
 976 579 l 1
 624 579 l 1
EndSplineSet
EndChar

StartChar: equal
Encoding: 61 61 192
Width: 722
VWidth: 0
Flags: W
PickledData: "(dp1
S'com.typemytype.robofont.layerData'
p2
(dp3
S'b'
(dp4
S'name'
p5
S'equal'
p6
sS'lib'
p7
(dp8
sS'unicodes'
p9
(tsS'width'
p10
I722
sS'contours'
p11
(tsS'components'
p12
(tsS'anchors'
p13
(tsss."
LayerCount: 2
Fore
SplineSet
618 1116 m 1
 104 1116 l 1
 104 892 l 1
 618 892 l 1
 618 1116 l 1
618 741 m 1
 104 741 l 1
 104 509 l 1
 618 509 l 1
 618 741 l 1
EndSplineSet
EndChar

StartChar: eth
Encoding: 240 240 193
Width: 1080
VWidth: 0
Flags: W
PickledData: "(dp1
S'com.typemytype.robofont.layerData'
p2
(dp3
S'b'
(dp4
S'name'
p5
S'eth'
p6
sS'lib'
p7
(dp8
sS'unicodes'
p9
(tsS'width'
p10
I1080
sS'contours'
p11
(tsS'components'
p12
(tsS'anchors'
p13
(tsss."
LayerCount: 2
Fore
SplineSet
81 609 m 2
 81 916 197 1095 446 1095 c 0
 536 1095 564 1081 595 1068 c 1
 595 1149.62837219 568.39831543 1241.96290588 514.660018921 1334.77166748 c 1
 318 1232.79980469 l 1
 243 1398.79980469 l 1
 404.875183105 1482.7350769 l 1
 360.468109131 1531.114151 308.203735352 1578.05888367 248 1622 c 1
 491 1781 l 1
 554.321914673 1750.51850891 624.966369629 1702.32806396 692.286499023 1631.76318359 c 1
 891 1734.79980469 l 1
 966 1568.79980469 l 1
 804.313110352 1484.9621582 l 1
 902.454681396 1323.96485901 975 1095.50187683 975 779 c 2
 975 543 l 2
 975 145 903 -21 536 -21 c 0
 195 -21 81 157 81 515 c 2
 81 609 l 2
532 294 m 0
 591 294 615 331 615 418 c 2
 615 660 l 2
 615 755 587 792 525 792 c 0
 464 792 441 749 441 665 c 2
 441 424 l 2
 441 336 466 294 532 294 c 0
EndSplineSet
EndChar

StartChar: exclam
Encoding: 33 33 194
Width: 558
VWidth: 0
Flags: W
PickledData: "(dp1
S'com.typemytype.robofont.layerData'
p2
(dp3
S'b'
(dp4
S'name'
p5
S'exclam'
p6
sS'lib'
p7
(dp8
sS'unicodes'
p9
(tsS'width'
p10
I558
sS'contours'
p11
(tsS'components'
p12
(tsS'anchors'
p13
(tsss."
LayerCount: 2
Fore
SplineSet
438 298 m 1
 120 298 l 1
 120 0 l 1
 438 0 l 1
 438 298 l 1
378 447 m 1
 458 1761 l 1
 100 1761 l 1
 190 447 l 1
 378 447 l 1
EndSplineSet
EndChar

StartChar: exclamdown
Encoding: 161 161 195
Width: 558
VWidth: 0
Flags: W
PickledData: "(dp1
S'com.typemytype.robofont.layerData'
p2
(dp3
S'b'
(dp4
S'name'
p5
S'exclamdown'
p6
sS'lib'
p7
(dp8
sS'unicodes'
p9
(tsS'width'
p10
I558
sS'contours'
p11
(tsS'components'
p12
(tsS'anchors'
p13
(tsss."
LayerCount: 2
Fore
SplineSet
120 1206 m 1
 438 1206 l 1
 438 1504 l 1
 120 1504 l 1
 120 1206 l 1
180 1057 m 1
 100 -257 l 1
 458 -257 l 1
 368 1057 l 1
 180 1057 l 1
EndSplineSet
EndChar

StartChar: f
Encoding: 102 102 196
Width: 610
VWidth: 0
Flags: W
PickledData: "(dp1
S'com.typemytype.robofont.layerData'
p2
(dp3
S'b'
(dp4
S'name'
p5
S'f'
sS'lib'
p6
(dp7
sS'unicodes'
p8
(tsS'width'
p9
I610
sS'contours'
p10
(tsS'components'
p11
(tsS'anchors'
p12
(tsss."
LayerCount: 2
Fore
SplineSet
375 1530 m 2
 375 1600 385 1647 489 1647 c 0
 510 1647 536 1645 567 1641 c 1
 567 1769 l 1
 567 1769 504 1788 427 1788 c 0
 266 1788 207 1688 207 1513 c 2
 207 1442 l 1
 71 1442 l 1
 71 1308 l 1
 207 1308 l 1
 207 0 l 1
 375 0 l 1
 375 1308 l 1
 567 1308 l 1
 567 1442 l 1
 375 1442 l 1
 375 1530 l 2
EndSplineSet
EndChar

StartChar: five
Encoding: 53 53 197
Width: 1063
VWidth: 0
Flags: W
PickledData: "(dp1
S'com.typemytype.robofont.layerData'
p2
(dp3
S'b'
(dp4
S'name'
p5
S'five'
p6
sS'lib'
p7
(dp8
sS'unicodes'
p9
(tsS'width'
p10
I1063
sS'contours'
p11
(tsS'components'
p12
(tsS'anchors'
p13
(tsss."
LayerCount: 2
Fore
SplineSet
450 1163 m 1
 450 1440 l 1
 942 1440 l 1
 942 1761 l 1
 116 1761 l 1
 116 825 l 1
 439 825 l 1
 439 922 464 970 531 970 c 0
 614 970 617 889 617 803 c 2
 617 466 l 2
 617 350 605 294 529 294 c 0
 444 294 443 363 443 455 c 2
 443 646 l 1
 94 646 l 1
 94 384 l 2
 94 107 258 -20 529 -20 c 0
 940 -20 977 245 977 668 c 0
 977 987 932 1265 664 1265 c 0
 566.644042969 1265 480.058456421 1224.272995 450 1163 c 1
EndSplineSet
EndChar

StartChar: florin
Encoding: 402 402 198
Width: 767
VWidth: 0
Flags: W
PickledData: "(dp1
S'com.typemytype.robofont.layerData'
p2
(dp3
S'b'
(dp4
S'name'
p5
S'florin'
p6
sS'lib'
p7
(dp8
sS'unicodes'
p9
(tsS'width'
p10
I767
sS'contours'
p11
(tsS'components'
p12
(tsS'anchors'
p13
(tsss."
LayerCount: 2
Fore
SplineSet
319 -21 m 0
 483 -21 554 61 554 221 c 2
 554 986 l 1
 648 986 l 1
 648 1263 l 1
 554 1263 l 1
 554 1455 l 2
 554 1506 560 1536 609 1536 c 0
 619 1536 633 1534 652 1531 c 1
 652 1752 l 1
 601 1771 533 1781 448 1781 c 0
 281 1781 206 1702 206 1539 c 2
 206 1263 l 1
 107 1263 l 1
 107 986 l 1
 206 986 l 1
 206 305 l 2
 206 257 206 224 158 224 c 0
 148 224 134 226 115 229 c 1
 115 8 l 1
 166 -11 234 -21 319 -21 c 0
EndSplineSet
EndChar

StartChar: four
Encoding: 52 52 199
Width: 1093
VWidth: 0
Flags: W
PickledData: "(dp1
S'com.typemytype.robofont.layerData'
p2
(dp3
S'b'
(dp4
S'name'
p5
S'four'
p6
sS'lib'
p7
(dp8
sS'unicodes'
p9
(tsS'width'
p10
I1093
sS'contours'
p11
(tsS'components'
p12
(tsS'anchors'
p13
(tsss."
LayerCount: 2
Fore
SplineSet
579 572 m 1
 372 572 l 1
 579 1239 l 1
 579 572 l 1
939 1761 m 1
 500 1761 l 1
 70 553 l 1
 70 278 l 1
 579 278 l 1
 579 -1 l 1
 939 -1 l 1
 939 278 l 1
 1018 278 l 1
 1018 572 l 1
 939 572 l 1
 939 1761 l 1
EndSplineSet
EndChar

StartChar: fraction
Encoding: 8260 8260 200
Width: 829
VWidth: 0
Flags: W
PickledData: "(dp1
S'com.typemytype.robofont.layerData'
p2
(dp3
S'b'
(dp4
S'name'
p5
S'fraction'
p6
sS'lib'
p7
(dp8
sS'unicodes'
p9
(tsS'width'
p10
I829
sS'contours'
p11
(tsS'components'
p12
(tsS'anchors'
p13
(tsss."
LayerCount: 2
Fore
SplineSet
519 1767 m 1
 29 0 l 1
 312 0 l 1
 803 1767 l 1
 519 1767 l 1
EndSplineSet
EndChar

StartChar: g
Encoding: 103 103 201
Width: 815
VWidth: 0
Flags: W
PickledData: "(dp1
S'com.typemytype.robofont.layerData'
p2
(dp3
S'b'
(dp4
S'name'
p5
S'g'
sS'lib'
p6
(dp7
sS'unicodes'
p8
(tsS'width'
p9
I815
sS'contours'
p10
((dp11
S'points'
p12
((dp13
S'segmentType'
p14
S'line'
p15
sS'x'
F484
sS'smooth'
p16
I01
sS'y'
F582
s(dp17
S'y'
F481
sS'x'
F484
sg16
I00
s(dp18
S'y'
F430
sS'x'
F456
sg16
I00
s(dp19
g14
S'curve'
p20
sS'x'
F400
sg16
I01
sS'y'
F430
s(dp21
S'y'
F430
sS'x'
F326
sg16
I00
s(dp22
S'y'
F510
sS'x'
F318
sg16
I00
s(dp23
g14
S'curve'
p24
sS'x'
F318
sg16
I01
sS'y'
F582
s(dp25
g14
S'line'
p26
sS'x'
F318
sg16
I01
sS'y'
F1116
s(dp27
S'y'
F1183
sS'x'
F318
sg16
I00
s(dp28
S'y'
F1243
sS'x'
F327
sg16
I00
s(dp29
g14
S'curve'
p30
sS'x'
F396
sg16
I01
sS'y'
F1243
s(dp31
S'y'
F1243
sS'x'
F451
sg16
I00
s(dp32
S'y'
F1171
sS'x'
F484
sg16
I00
s(dp33
g14
S'curve'
p34
sS'x'
F484
sg16
I01
sS'y'
F1116
stp35
s(dp36
g12
((dp37
g14
S'line'
p38
sS'x'
F484
sg16
I00
sS'y'
F1500
s(dp39
g14
S'line'
p40
sS'x'
F484
sg16
I00
sS'y'
F1331
s(dp41
S'y'
F1444
sS'x'
F459
sg16
I00
s(dp42
S'y'
F1518
sS'x'
F387
sg16
I00
s(dp43
g14
S'curve'
p44
sS'x'
F255
sg16
I01
sS'y'
F1518
s(dp45
S'y'
F1518
sS'x'
F20
sg16
I00
s(dp46
S'y'
F1348
sS'x'
F-38
sg16
I00
s(dp47
g14
S'curve'
p48
sS'x'
F-38
sg16
I01
sS'y'
F1106
s(dp49
g14
S'line'
p50
sS'x'
F-38
sg16
I01
sS'y'
F543
s(dp51
S'y'
F328
sS'x'
F-38
sg16
I00
s(dp52
S'y'
F160
sS'x'
F40
sg16
I00
s(dp53
g14
S'curve'
p54
sS'x'
F255
sg16
I01
sS'y'
F160
s(dp55
S'y'
F160
sS'x'
F378
sg16
I00
s(dp56
S'y'
F211
sS'x'
F455
sg16
I00
s(dp57
g14
S'curve'
p58
sS'x'
F484
sg16
I00
sS'y'
F314
s(dp59
g14
S'line'
p60
sS'x'
F484
sg16
I01
sS'y'
F231
s(dp61
S'y'
F113
sS'x'
F484
sg16
I00
s(dp62
S'y'
F33
sS'x'
F429
sg16
I00
s(dp63
g14
S'curve'
p64
sS'x'
F314
sg16
I01
sS'y'
F33
s(dp65
S'y'
F33
sS'x'
F227
sg16
I00
s(dp66
S'y'
F59
sS'x'
F139
sg16
I00
s(dp67
g14
S'curve'
p68
sS'x'
F52
sg16
I00
sS'y'
F111
s(dp69
g14
S'line'
p70
sS'x'
F-69
sg16
I00
sS'y'
F-96
s(dp71
S'y'
F-194
sS'x'
F48
sg16
I00
s(dp72
S'y'
F-220
sS'x'
F153
sg16
I00
s(dp73
g14
S'curve'
p74
sS'x'
F361
sg16
I01
sS'y'
F-220
s(dp75
S'y'
F-220
sS'x'
F698
sg16
I00
s(dp76
S'y'
F-86
sS'x'
F840
sg16
I00
s(dp77
g14
S'curve'
p78
sS'x'
F840
sg16
I01
sS'y'
F254
s(dp79
g14
S'line'
p80
sS'x'
F840
sg16
I00
sS'y'
F1500
stp81
stp82
sS'components'
p83
(tsS'anchors'
p84
(tsss."
LayerCount: 2
Fore
SplineSet
394 205 m 2
 392 205 l 1
 293 206 265 311 265 542 c 2
 265 1058 l 2
 265 1245 279 1374 406 1374 c 0
 456 1374 508 1326 542 1276 c 1
 542 301 l 1
 518 263 466 205 394 205 c 2
402 -231 m 0
 660 -231 710 -58 710 71 c 2
 710 1500 l 1
 542 1500 l 1
 542 1395 l 1
 514 1461 450 1518 377 1518 c 0
 147 1518 97 1303 97 1021 c 2
 97 558 l 2
 97 277 131 65 340 65 c 0
 419 65 501 98 542 195 c 1
 542 54 l 2
 542 -60 468 -92 381 -92 c 0
 311 -92 230 -77 177 -59 c 1
 148 -193 l 1
 250 -222 333 -231 402 -231 c 0
EndSplineSet
EndChar

StartChar: gbreve
Encoding: 287 287 202
Width: 1084
VWidth: 0
Flags: W
PickledData: "(dp1
S'com.typemytype.robofont.layerData'
p2
(dp3
S'b'
(dp4
S'name'
p5
S'gbreve'
p6
sS'lib'
p7
(dp8
sS'unicodes'
p9
(tsS'width'
p10
I1084
sS'contours'
p11
(tsS'components'
p12
(tsS'anchors'
p13
(tsss."
LayerCount: 2
Fore
SplineSet
525.5 1871 m 0
 442.5 1871 390.5 1889 390.5 2014 c 1
 172.5 2014 l 1
 172.5 1999 l 2
 172.5 1782 289.5 1681 523.5 1681 c 0
 763.5 1681 878.5 1778 878.5 2001 c 2
 878.5 2014 l 1
 660.5 2014 l 1
 660.5 1889 608.5 1871 525.5 1871 c 0
624 582 m 2
 624 481 596 430 540 430 c 0
 466 430 458 510 458 582 c 2
 458 1116 l 2
 458 1183 467 1243 536 1243 c 0
 591 1243 624 1171 624 1116 c 2
 624 582 l 2
624 1500 m 1
 624 1331 l 1
 599 1444 527 1518 395 1518 c 0
 160 1518 102 1348 102 1106 c 2
 102 543 l 2
 102 328 180 160 395 160 c 0
 518 160 595 211 624 314 c 1
 624 231 l 2
 624 113 569 33 454 33 c 0
 367 33 279 59 192 111 c 1
 71 -96 l 1
 188 -194 293 -220 501 -220 c 0
 838 -220 980 -86 980 254 c 2
 980 1500 l 1
 624 1500 l 1
EndSplineSet
EndChar

StartChar: gcircumflex
Encoding: 285 285 203
Width: 1084
VWidth: 0
Flags: W
PickledData: "(dp1
S'com.typemytype.robofont.layerData'
p2
(dp3
S'b'
(dp4
S'name'
p5
S'gcircumflex'
p6
sS'lib'
p7
(dp8
sS'unicodes'
p9
(tsS'width'
p10
I1084
sS'contours'
p11
(tsS'components'
p12
(tsS'anchors'
p13
(tsss."
LayerCount: 2
Fore
SplineSet
729.5 2084 m 1
 321.5 2084 l 1
 80.5 1681 l 1
 439.5 1681 l 1
 525.5 1966 l 1
 611.5 1681 l 1
 970.5 1681 l 1
 729.5 2084 l 1
624 582 m 2
 624 481 596 430 540 430 c 0
 466 430 458 510 458 582 c 2
 458 1116 l 2
 458 1183 467 1243 536 1243 c 0
 591 1243 624 1171 624 1116 c 2
 624 582 l 2
624 1500 m 1
 624 1331 l 1
 599 1444 527 1518 395 1518 c 0
 160 1518 102 1348 102 1106 c 2
 102 543 l 2
 102 328 180 160 395 160 c 0
 518 160 595 211 624 314 c 1
 624 231 l 2
 624 113 569 33 454 33 c 0
 367 33 279 59 192 111 c 1
 71 -96 l 1
 188 -194 293 -220 501 -220 c 0
 838 -220 980 -86 980 254 c 2
 980 1500 l 1
 624 1500 l 1
EndSplineSet
EndChar

StartChar: gcommaaccent
Encoding: 291 291 204
Width: 1084
VWidth: 0
Flags: W
PickledData: "(dp1
S'com.typemytype.robofont.layerData'
p2
(dp3
S'b'
(dp4
S'name'
p5
S'gcommaaccent'
p6
sS'lib'
p7
(dp8
sS'unicodes'
p9
(tsS'width'
p10
I1084
sS'contours'
p11
(tsS'components'
p12
(tsS'anchors'
p13
(tsss."
LayerCount: 2
Fore
SplineSet
675 2347 m 1
 507 2347 l 1
 405 2010 l 1
 405 1701 l 1
 736 1701 l 1
 736 2019 l 1
 609 2019 l 1
 675 2347 l 1
624 582 m 2
 624 481 596 430 540 430 c 0
 466 430 458 510 458 582 c 2
 458 1116 l 2
 458 1183 467 1243 536 1243 c 0
 591 1243 624 1171 624 1116 c 2
 624 582 l 2
624 1500 m 1
 624 1331 l 1
 599 1444 527 1518 395 1518 c 0
 160 1518 102 1348 102 1106 c 2
 102 543 l 2
 102 328 180 160 395 160 c 0
 518 160 595 211 624 314 c 1
 624 231 l 2
 624 113 569 33 454 33 c 0
 367 33 279 59 192 111 c 1
 71 -96 l 1
 188 -194 293 -220 501 -220 c 0
 838 -220 980 -86 980 254 c 2
 980 1500 l 1
 624 1500 l 1
EndSplineSet
EndChar

StartChar: gdotaccent
Encoding: 289 289 205
Width: 1084
VWidth: 0
Flags: W
PickledData: "(dp1
S'com.typemytype.robofont.layerData'
p2
(dp3
S'b'
(dp4
S'name'
p5
S'gdotaccent'
p6
sS'lib'
p7
(dp8
sS'unicodes'
p9
(tsS'width'
p10
I1084
sS'contours'
p11
(tsS'components'
p12
(tsS'anchors'
p13
(tsss."
LayerCount: 2
Fore
SplineSet
346.5 1681 m 1
 704.5 1681 l 1
 704.5 1979 l 1
 346.5 1979 l 1
 346.5 1681 l 1
624 582 m 2
 624 481 596 430 540 430 c 0
 466 430 458 510 458 582 c 2
 458 1116 l 2
 458 1183 467 1243 536 1243 c 0
 591 1243 624 1171 624 1116 c 2
 624 582 l 2
624 1500 m 1
 624 1331 l 1
 599 1444 527 1518 395 1518 c 0
 160 1518 102 1348 102 1106 c 2
 102 543 l 2
 102 328 180 160 395 160 c 0
 518 160 595 211 624 314 c 1
 624 231 l 2
 624 113 569 33 454 33 c 0
 367 33 279 59 192 111 c 1
 71 -96 l 1
 188 -194 293 -220 501 -220 c 0
 838 -220 980 -86 980 254 c 2
 980 1500 l 1
 624 1500 l 1
EndSplineSet
EndChar

StartChar: germandbls
Encoding: 223 223 206
Width: 1109
VWidth: 0
Flags: W
PickledData: "(dp1
S'com.typemytype.robofont.layerData'
p2
(dp3
S'b'
(dp4
S'name'
p5
S'germandbls'
p6
sS'lib'
p7
(dp8
sS'unicodes'
p9
(tsS'width'
p10
I1109
sS'contours'
p11
(tsS'components'
p12
(tsS'anchors'
p13
(tsss."
LayerCount: 2
Fore
SplineSet
557 803 m 1
 666 803 704 764 704 656 c 2
 704 395 l 2
 704 316 643 277 548 277 c 1
 548 0 l 1
 652 0 l 2
 952 0 1052 177 1052 476 c 2
 1052 553 l 2
 1052 752 1006 906 842 945 c 1
 950 980 992 1080 992 1220 c 2
 992 1417 l 2
 992 1678 825 1781 566 1781 c 0
 283 1781 122 1660 122 1417 c 2
 122 0 l 1
 478 0 l 1
 478 1390 l 2
 478 1441 516 1466 566 1466 c 0
 616 1466 641 1441 641 1390 c 2
 641 1170 l 2
 641 1102 627 1051 557 1051 c 1
 557 803 l 1
EndSplineSet
EndChar

StartChar: grave
Encoding: 96 96 207
Width: 650
VWidth: 0
Flags: W
PickledData: "(dp1
S'com.typemytype.robofont.layerData'
p2
(dp3
S'b'
(dp4
S'name'
p5
S'grave'
p6
sS'lib'
p7
(dp8
sS'unicodes'
p9
(tsS'width'
p10
I650
sS'contours'
p11
(tsS'components'
p12
(tsS'anchors'
p13
(tsss."
LayerCount: 2
Fore
SplineSet
526 1553 m 1
 526 1776 l 1
 51 1994 l 1
 51 1647 l 1
 526 1553 l 1
EndSplineSet
EndChar

StartChar: greater
Encoding: 62 62 208
Width: 730
VWidth: 0
Flags: W
PickledData: "(dp1
S'com.typemytype.robofont.layerData'
p2
(dp3
S'b'
(dp4
S'name'
p5
S'greater'
p6
sS'lib'
p7
(dp8
sS'unicodes'
p9
(tsS'width'
p10
I730
sS'contours'
p11
(tsS'components'
p12
(tsS'anchors'
p13
(tsss."
LayerCount: 2
Fore
SplineSet
94 1300 m 1
 94 941 l 1
 436 749 l 1
 94 558 l 1
 94 200 l 1
 664 545 l 1
 664 959 l 1
 94 1300 l 1
EndSplineSet
EndChar

StartChar: greaterequal
Encoding: 8805 8805 209
Width: 781
VWidth: 0
Flags: W
PickledData: "(dp1
S'com.typemytype.robofont.layerData'
p2
(dp3
S'b'
(dp4
S'name'
p5
S'greaterequal'
p6
sS'lib'
p7
(dp8
sS'unicodes'
p9
(tsS'width'
p10
I781
sS'contours'
p11
(tsS'components'
p12
(tsS'anchors'
p13
(tsss."
LayerCount: 2
Fore
SplineSet
655 232 m 1
 139 232 l 1
 139 0 l 1
 655 0 l 1
 655 232 l 1
112 1392 m 1
 112 1033 l 1
 454 841 l 1
 112 650 l 1
 112 292 l 1
 682 637 l 1
 682 1051 l 1
 112 1392 l 1
EndSplineSet
EndChar

StartChar: guillemotleft
Encoding: 171 171 210
Width: 1304
VWidth: 0
Flags: W
PickledData: "(dp1
S'com.typemytype.robofont.layerData'
p2
(dp3
S'b'
(dp4
S'name'
p5
S'guillemotleft'
p6
sS'lib'
p7
(dp8
sS'unicodes'
p9
(tsS'width'
p10
I1304
sS'contours'
p11
(tsS'components'
p12
(tsS'anchors'
p13
(tsss."
LayerCount: 2
Fore
SplineSet
608 618 m 1
 296 749 l 1
 608 871 l 1
 608 1230 l 1
 98 959 l 1
 98 545 l 1
 608 260 l 1
 608 618 l 1
1186 618 m 1
 874 749 l 1
 1186 871 l 1
 1186 1230 l 1
 676 959 l 1
 676 545 l 1
 1186 260 l 1
 1186 618 l 1
EndSplineSet
EndChar

StartChar: guillemotright
Encoding: 187 187 211
Width: 1304
VWidth: 0
Flags: W
PickledData: "(dp1
S'com.typemytype.robofont.layerData'
p2
(dp3
S'b'
(dp4
S'name'
p5
S'guillemotright'
p6
sS'lib'
p7
(dp8
sS'unicodes'
p9
(tsS'width'
p10
I1304
sS'contours'
p11
(tsS'components'
p12
(tsS'anchors'
p13
(tsss."
LayerCount: 2
Fore
SplineSet
695 1230 m 1
 695 871 l 1
 1007 749 l 1
 695 618 l 1
 695 260 l 1
 1205 545 l 1
 1205 959 l 1
 695 1230 l 1
118 1230 m 1
 118 871 l 1
 430 749 l 1
 118 618 l 1
 118 260 l 1
 628 545 l 1
 628 959 l 1
 118 1230 l 1
EndSplineSet
EndChar

StartChar: guilsinglleft
Encoding: 8249 8249 212
Width: 606
VWidth: 0
Flags: W
PickledData: "(dp1
S'com.typemytype.robofont.layerData'
p2
(dp3
S'b'
(dp4
S'name'
p5
S'guilsinglleft'
p6
sS'lib'
p7
(dp8
sS'unicodes'
p9
(tsS'width'
p10
I606
sS'contours'
p11
(tsS'components'
p12
(tsS'anchors'
p13
(tsss."
LayerCount: 2
Fore
SplineSet
548 618 m 1
 236 749 l 1
 548 871 l 1
 548 1230 l 1
 38 959 l 1
 38 545 l 1
 548 260 l 1
 548 618 l 1
EndSplineSet
EndChar

StartChar: guilsinglright
Encoding: 8250 8250 213
Width: 727
VWidth: 0
Flags: W
PickledData: "(dp1
S'com.typemytype.robofont.layerData'
p2
(dp3
S'b'
(dp4
S'name'
p5
S'guilsinglright'
p6
sS'lib'
p7
(dp8
sS'unicodes'
p9
(tsS'width'
p10
I727
sS'contours'
p11
(tsS'components'
p12
(tsS'anchors'
p13
(tsss."
LayerCount: 2
Fore
SplineSet
118 1230 m 1
 118 871 l 1
 430 749 l 1
 118 618 l 1
 118 260 l 1
 628 545 l 1
 628 959 l 1
 118 1230 l 1
EndSplineSet
EndChar

StartChar: h
Encoding: 104 104 214
Width: 857
VWidth: 0
Flags: W
PickledData: "(dp1
S'com.typemytype.robofont.layerData'
p2
(dp3
S'b'
(dp4
S'name'
p5
S'n'
sS'lib'
p6
(dp7
sS'unicodes'
p8
(tsS'width'
p9
F857
sS'contours'
p10
(tsS'components'
p11
(tsS'anchors'
p12
(tsss."
LayerCount: 2
Fore
SplineSet
584 1214 m 2
 584 0 l 1
 752 0 l 1
 752 1206 l 2
 752 1408 677 1506 549 1518 c 0
 541 1519 533 1519 525 1519 c 0
 407 1519 309 1437 283 1349 c 1
 283 1768 l 1
 115 1768 l 1
 115 0 l 1
 283 0 l 1
 283 1205 l 1
 303 1288 401 1368 484 1368 c 0
 542 1368 584 1331 584 1214 c 2
EndSplineSet
EndChar

StartChar: hbar
Encoding: 295 295 215
Width: 1099
VWidth: 0
Flags: W
PickledData: "(dp1
S'com.typemytype.robofont.layerData'
p2
(dp3
S'b'
(dp4
S'name'
p5
S'hbar'
p6
sS'lib'
p7
(dp8
sS'unicodes'
p9
(tsS'width'
p10
I1099
sS'contours'
p11
(tsS'components'
p12
(tsS'anchors'
p13
(tsss."
LayerCount: 2
Fore
SplineSet
558 1094 m 0
 616 1094 638 1034 638 975 c 2
 638 0 l 1
 994 0 l 1
 994 1012 l 2
 994 1234 902 1373 694 1373 c 0
 565 1373 494 1278 468 1164 c 1
 468 1468 l 1
 816 1468 l 1
 816 1638 l 1
 468 1638 l 1
 468 1769 l 1
 112 1769 l 1
 112 1638 l 1
 0 1638 l 1
 0 1468 l 1
 112 1468 l 1
 112 0 l 1
 468 0 l 1
 468 910 l 2
 468 993 475 1094 558 1094 c 0
EndSplineSet
EndChar

StartChar: hcircumflex
Encoding: 293 293 216
Width: 1099
VWidth: 0
Flags: W
PickledData: "(dp1
S'com.typemytype.robofont.layerData'
p2
(dp3
S'b'
(dp4
S'name'
p5
S'hcircumflex'
p6
sS'lib'
p7
(dp8
sS'unicodes'
p9
(tsS'width'
p10
I1099
sS'contours'
p11
(tsS'components'
p12
(tsS'anchors'
p13
(tsss."
LayerCount: 2
Fore
SplineSet
757 2335 m 1
 349 2335 l 1
 108 1932 l 1
 467 1932 l 1
 553 2217 l 1
 639 1932 l 1
 998 1932 l 1
 757 2335 l 1
558 1239 m 0
 616 1239 638 1179 638 1120 c 2
 638 0 l 1
 994 0 l 1
 994 1157 l 2
 994 1379 902 1518 694 1518 c 0
 565 1518 494 1423 468 1309 c 1
 468 1769 l 1
 112 1769 l 1
 112 0 l 1
 468 0 l 1
 468 1055 l 2
 468 1138 475 1239 558 1239 c 0
EndSplineSet
EndChar

StartChar: hungarumlaut
Encoding: 733 733 217
Width: 1300
VWidth: 0
Flags: W
PickledData: "(dp1
S'com.typemytype.robofont.layerData'
p2
(dp3
S'b'
(dp4
S'name'
p5
S'hungarumlaut'
p6
sS'lib'
p7
(dp8
sS'unicodes'
p9
(tsS'width'
p10
I1300
sS'contours'
p11
(tsS'components'
p12
(tsS'anchors'
p13
(tsss."
LayerCount: 2
Fore
SplineSet
765 1232 m 1
 1105 1662 l 1
 860 1773 l 1
 619 1294 l 1
 765 1232 l 1
363 1232 m 1
 642 1662 l 1
 401 1773 l 1
 217 1294 l 1
 363 1232 l 1
EndSplineSet
EndChar

StartChar: hyphen
Encoding: 45 45 218
Width: 696
VWidth: 0
Flags: W
PickledData: "(dp1
S'com.typemytype.robofont.layerData'
p2
(dp3
S'b'
(dp4
S'name'
p5
S'hyphen'
p6
sS'lib'
p7
(dp8
sS'unicodes'
p9
(tsS'width'
p10
I696
sS'contours'
p11
(tsS'components'
p12
(tsS'anchors'
p13
(tsss."
LayerCount: 2
Fore
SplineSet
606 741 m 1
 90 741 l 1
 90 509 l 1
 606 509 l 1
 606 741 l 1
EndSplineSet
EndChar

StartChar: i
Encoding: 105 105 219
Width: 403
VWidth: 0
Flags: W
PickledData: "(dp1
S'com.typemytype.robofont.layerData'
p2
(dp3
S'b'
(dp4
S'name'
p5
S'i'
sS'lib'
p6
(dp7
sS'unicodes'
p8
(tsS'width'
p9
I403
sS'contours'
p10
(tsS'components'
p11
(tsS'anchors'
p12
(tsss."
LayerCount: 2
Fore
SplineSet
290 1800 m 1
 122 1800 l 1
 122 1614 l 1
 290 1614 l 1
 290 1800 l 1
290 1500 m 1
 122 1500 l 1
 122 0 l 1
 290 0 l 1
 290 1500 l 1
EndSplineSet
EndChar

StartChar: iacute
Encoding: 237 237 220
Width: 586
VWidth: 0
Flags: W
PickledData: "(dp1
S'com.typemytype.robofont.layerData'
p2
(dp3
S'b'
(dp4
S'name'
p5
S'iacute'
p6
sS'lib'
p7
(dp8
sS'unicodes'
p9
(tsS'width'
p10
I586
sS'contours'
p11
(tsS'components'
p12
(tsS'anchors'
p13
(tsss."
LayerCount: 2
Fore
SplineSet
55.5 1681 m 1
 530.5 1775 l 1
 530.5 2122 l 1
 55.5 1904 l 1
 55.5 1681 l 1
471 1500 m 1
 115 1500 l 1
 115 0 l 1
 471 0 l 1
 471 1500 l 1
EndSplineSet
EndChar

StartChar: ibreve
Encoding: 301 301 221
Width: 586
VWidth: 0
Flags: W
PickledData: "(dp1
S'com.typemytype.robofont.layerData'
p2
(dp3
S'b'
(dp4
S'name'
p5
S'ibreve'
p6
sS'lib'
p7
(dp8
sS'unicodes'
p9
(tsS'width'
p10
I586
sS'contours'
p11
(tsS'components'
p12
(tsS'anchors'
p13
(tsss."
LayerCount: 2
Fore
SplineSet
293 1871 m 0
 210 1871 158 1889 158 2014 c 1
 -60 2014 l 1
 -60 1999 l 2
 -60 1782 57 1681 291 1681 c 0
 531 1681 646 1778 646 2001 c 2
 646 2014 l 1
 428 2014 l 1
 428 1889 376 1871 293 1871 c 0
471 1500 m 1
 115 1500 l 1
 115 0 l 1
 471 0 l 1
 471 1500 l 1
EndSplineSet
EndChar

StartChar: icircumflex
Encoding: 238 238 222
Width: 586
VWidth: 0
Flags: W
PickledData: "(dp1
S'com.typemytype.robofont.layerData'
p2
(dp3
S'b'
(dp4
S'name'
p5
S'icircumflex'
p6
sS'lib'
p7
(dp8
sS'unicodes'
p9
(tsS'width'
p10
I586
sS'contours'
p11
(tsS'components'
p12
(tsS'anchors'
p13
(tsss."
LayerCount: 2
Fore
SplineSet
497 2084 m 1
 89 2084 l 1
 -152 1681 l 1
 207 1681 l 1
 293 1966 l 1
 379 1681 l 1
 738 1681 l 1
 497 2084 l 1
471 1500 m 1
 115 1500 l 1
 115 0 l 1
 471 0 l 1
 471 1500 l 1
EndSplineSet
EndChar

StartChar: idieresis
Encoding: 239 239 223
Width: 586
VWidth: 0
Flags: W
PickledData: "(dp1
S'com.typemytype.robofont.layerData'
p2
(dp3
S'b'
(dp4
S'name'
p5
S'idieresis'
p6
sS'lib'
p7
(dp8
sS'unicodes'
p9
(tsS'width'
p10
I586
sS'contours'
p11
(tsS'components'
p12
(tsS'anchors'
p13
(tsss."
LayerCount: 2
Fore
SplineSet
356 1681 m 1
 714 1681 l 1
 714 1979 l 1
 356 1979 l 1
 356 1681 l 1
-128 1681 m 1
 230 1681 l 1
 230 1979 l 1
 -128 1979 l 1
 -128 1681 l 1
471 1500 m 1
 115 1500 l 1
 115 0 l 1
 471 0 l 1
 471 1500 l 1
EndSplineSet
EndChar

StartChar: igrave
Encoding: 236 236 224
Width: 586
VWidth: 0
Flags: W
PickledData: "(dp1
S'com.typemytype.robofont.layerData'
p2
(dp3
S'b'
(dp4
S'name'
p5
S'igrave'
p6
sS'lib'
p7
(dp8
sS'unicodes'
p9
(tsS'width'
p10
I586
sS'contours'
p11
(tsS'components'
p12
(tsS'anchors'
p13
(tsss."
LayerCount: 2
Fore
SplineSet
530.5 1681 m 1
 530.5 1904 l 1
 55.5 2122 l 1
 55.5 1775 l 1
 530.5 1681 l 1
471 1500 m 1
 115 1500 l 1
 115 0 l 1
 471 0 l 1
 471 1500 l 1
EndSplineSet
EndChar

StartChar: ij
Encoding: 307 307 225
Width: 1196
VWidth: 0
Flags: W
PickledData: "(dp1
S'com.typemytype.robofont.layerData'
p2
(dp3
S'b'
(dp4
S'name'
p5
S'ij'
p6
sS'lib'
p7
(dp8
sS'unicodes'
p9
(tsS'width'
p10
I1196
sS'contours'
p11
(tsS'components'
p12
(tsS'anchors'
p13
(tsss."
LayerCount: 2
Fore
SplineSet
1091 1800 m 1
 735 1800 l 1
 735 1600 l 1
 1091 1600 l 1
 1091 1800 l 1
735 1500 m 1
 735 156 l 2
 735 119 715 89 652 89 c 0
 645 89 636 89 627 90 c 1
 627 -150 l 1
 652 -167 732 -176 809 -176 c 0
 1015 -176 1091 -47 1091 166 c 2
 1091 1500 l 1
 735 1500 l 1
471 1800 m 1
 115 1800 l 1
 115 1600 l 1
 471 1600 l 1
 471 1800 l 1
471 1500 m 1
 115 1500 l 1
 115 0 l 1
 471 0 l 1
 471 1500 l 1
EndSplineSet
EndChar

StartChar: imacron
Encoding: 299 299 226
Width: 586
VWidth: 0
Flags: W
PickledData: "(dp1
S'com.typemytype.robofont.layerData'
p2
(dp3
S'b'
(dp4
S'name'
p5
S'imacron'
p6
sS'lib'
p7
(dp8
sS'unicodes'
p9
(tsS'width'
p10
I586
sS'contours'
p11
(tsS'components'
p12
(tsS'anchors'
p13
(tsss."
LayerCount: 2
Fore
SplineSet
551 1913 m 1
 35 1913 l 1
 35 1681 l 1
 551 1681 l 1
 551 1913 l 1
471 1500 m 1
 115 1500 l 1
 115 0 l 1
 471 0 l 1
 471 1500 l 1
EndSplineSet
EndChar

StartChar: infinity
Encoding: 8734 8734 227
Width: 1300
VWidth: 0
Flags: W
PickledData: "(dp1
S'com.typemytype.robofont.layerData'
p2
(dp3
S'b'
(dp4
S'name'
p5
S'infinity'
p6
sS'lib'
p7
(dp8
sS'unicodes'
p9
(tsS'width'
p10
I1300
sS'contours'
p11
(tsS'components'
p12
(tsS'anchors'
p13
(tsss."
LayerCount: 2
Fore
SplineSet
577 740 m 1
 528 693 480 669 433 669 c 0
 374 669 344 693 344 740 c 0
 344 787 374 810 433 810 c 0
 481 810 529 787 577 740 c 1
853 669 m 0
 799 669 748 693 701 740 c 1
 752 787 802 811 853 811 c 0
 916 811 948 787 948 740 c 0
 948 693 916 669 853 669 c 0
108 744 m 0
 108 564 196 452 370 452 c 0
 482 452 583 522 639 585 c 1
 696 512 787 439 912 439 c 0
 1090 439 1182 559 1182 744 c 0
 1182 927 1088 1041 912 1041 c 0
 814 1041 723 989 639 885 c 1
 554 980 465 1028 370 1028 c 0
 200 1028 108 920 108 744 c 0
EndSplineSet
EndChar

StartChar: integral
Encoding: 8747 8747 228
Width: 767
VWidth: 0
Flags: W
PickledData: "(dp1
S'com.typemytype.robofont.layerData'
p2
(dp3
S'b'
(dp4
S'name'
p5
S'integral'
p6
sS'lib'
p7
(dp8
sS'unicodes'
p9
(tsS'width'
p10
I767
sS'contours'
p11
(tsS'components'
p12
(tsS'anchors'
p13
(tsss."
LayerCount: 2
Fore
SplineSet
609 1536 m 0
 619 1536 633 1534 652 1531 c 1
 652 1752 l 1
 601 1771 533 1781 448 1781 c 0
 281 1781 206 1702 206 1539 c 2
 206 305 l 2
 206 257 206 224 158 224 c 0
 148 224 134 226 115 229 c 1
 115 8 l 1
 166 -11 234 -21 319 -21 c 0
 483 -21 554 61 554 221 c 2
 554 1455 l 2
 554 1506 560 1536 609 1536 c 0
EndSplineSet
EndChar

StartChar: iogonek
Encoding: 303 303 229
Width: 586
VWidth: 0
Flags: W
PickledData: "(dp1
S'com.typemytype.robofont.layerData'
p2
(dp3
S'b'
(dp4
S'name'
p5
S'iogonek'
p6
sS'lib'
p7
(dp8
sS'unicodes'
p9
(tsS'width'
p10
I586
sS'contours'
p11
(tsS'components'
p12
(tsS'anchors'
p13
(tsss."
LayerCount: 2
Fore
SplineSet
213.5 -278.1328125 m 0
 213.5 -168.1328125 289.5 -69.1328125 363.5 20.8671875 c 1
 222.5 20.8671875 l 1
 46.5 -78.1328125 -31.5 -218.1328125 -31.5 -339.1328125 c 0
 -31.5 -513.1328125 85.5 -605.1328125 275.5 -605.1328125 c 0
 343.5 -605.1328125 421.5 -583.1328125 444.5 -570.1328125 c 1
 444.5 -397.1328125 l 1
 420.5 -402.1328125 394.5 -405.1328125 369.5 -405.1328125 c 0
 289.5 -405.1328125 213.5 -375.1328125 213.5 -278.1328125 c 0
471 1800 m 1
 115 1800 l 1
 115 1600 l 1
 471 1600 l 1
 471 1800 l 1
471 1500 m 1
 115 1500 l 1
 115 0 l 1
 471 0 l 1
 471 1500 l 1
EndSplineSet
EndChar

StartChar: itilde
Encoding: 297 297 230
Width: 586
VWidth: 0
Flags: W
PickledData: "(dp1
S'com.typemytype.robofont.layerData'
p2
(dp3
S'b'
(dp4
S'name'
p5
S'itilde'
p6
sS'lib'
p7
(dp8
sS'unicodes'
p9
(tsS'width'
p10
I586
sS'contours'
p11
(tsS'components'
p12
(tsS'anchors'
p13
(tsss."
LayerCount: 2
Fore
SplineSet
456.5 1681 m 0
 564.5 1681 632.5 1738 652.5 1881 c 2
 661.5 1946 l 1
 490.5 1974 l 1
 469.5 1914 453.5 1906 434.5 1903 c 1
 430.5 1903 l 2
 380.5 1903 217.5 1977 136.5 1977 c 0
 28.5 1977 -36.5 1894 -75.5 1759 c 1
 83.5 1702 l 1
 101.5 1737 112.5 1756 134.5 1761 c 0
 141.5 1763 149.5 1763 157.5 1763 c 0
 240.5 1763 368.5 1681 456.5 1681 c 0
471 1500 m 1
 115 1500 l 1
 115 0 l 1
 471 0 l 1
 471 1500 l 1
EndSplineSet
EndChar

StartChar: j
Encoding: 106 106 231
Width: 444
VWidth: 0
Flags: W
PickledData: "(dp1
S'com.typemytype.robofont.layerData'
p2
(dp3
S'b'
(dp4
S'name'
p5
S'j'
sS'lib'
p6
(dp7
sS'unicodes'
p8
(tsS'width'
p9
I444
sS'contours'
p10
(tsS'components'
p11
(tsS'anchors'
p12
(tsss."
LayerCount: 2
Fore
SplineSet
141 -158 m 0
 157 -158 174 -157 191 -155 c 0
 239 -150 329 -115 329 46 c 2
 329 1500 l 1
 161 1500 l 1
 161 36 l 2
 161 -1 152 -26 120 -31 c 0
 112 -32 104 -33 95 -33 c 0
 73 -33 53 -30 53 -30 c 1
 53 -150 l 1
 53 -150 90 -158 141 -158 c 0
329 1800 m 1
 161 1800 l 1
 161 1614 l 1
 329 1614 l 1
 329 1800 l 1
EndSplineSet
EndChar

StartChar: jcircumflex
Encoding: 309 309 232
Width: 610
VWidth: 0
Flags: W
PickledData: "(dp1
S'com.typemytype.robofont.layerData'
p2
(dp3
S'b'
(dp4
S'name'
p5
S'jcircumflex'
p6
sS'lib'
p7
(dp8
sS'unicodes'
p9
(tsS'width'
p10
I610
sS'contours'
p11
(tsS'components'
p12
(tsS'anchors'
p13
(tsss."
LayerCount: 2
Fore
SplineSet
477 2084 m 1
 69 2084 l 1
 -172 1681 l 1
 187 1681 l 1
 273 1966 l 1
 359 1681 l 1
 718 1681 l 1
 477 2084 l 1
149 1500 m 1
 149 156 l 2
 149 119 129 89 66 89 c 0
 59 89 50 89 41 90 c 1
 41 -150 l 1
 66 -167 146 -176 223 -176 c 0
 429 -176 505 -47 505 166 c 2
 505 1500 l 1
 149 1500 l 1
EndSplineSet
EndChar

StartChar: k
Encoding: 107 107 233
Width: 758
VWidth: 0
Flags: W
PickledData: "(dp1
S'com.typemytype.robofont.layerData'
p2
(dp3
S'b'
(dp4
S'name'
p5
S'k'
sS'lib'
p6
(dp7
sS'unicodes'
p8
(tsS'width'
p9
I758
sS'contours'
p10
(tsS'components'
p11
(tsS'anchors'
p12
(tsss."
LayerCount: 2
Fore
SplineSet
115 1769 m 1
 115 0 l 1
 283 0 l 1
 283 1769 l 1
 115 1769 l 1
278 743 m 1
 577 0 l 1
 746 0 l 1
 445 757 l 1
 738 1500 l 1
 560 1500 l 1
 278 759 l 1
 278 743 l 1
EndSplineSet
EndChar

StartChar: kcommaaccent
Encoding: 311 311 234
Width: 1064
VWidth: 0
Flags: W
PickledData: "(dp1
S'com.typemytype.robofont.layerData'
p2
(dp3
S'b'
(dp4
S'name'
p5
S'kcommaaccent'
p6
sS'lib'
p7
(dp8
sS'unicodes'
p9
(tsS'width'
p10
I1064
sS'contours'
p11
(tsS'components'
p12
(tsS'anchors'
p13
(tsss."
LayerCount: 2
Fore
SplineSet
475 -809 m 1
 643 -809 l 1
 745 -472 l 1
 745 -163 l 1
 414 -163 l 1
 414 -481 l 1
 541 -481 l 1
 475 -809 l 1
468 673 m 1
 686 0 l 1
 1044 0 l 1
 780 767 l 1
 1028 1500 l 1
 666 1500 l 1
 468 879 l 1
 468 1769 l 1
 112 1769 l 1
 112 0 l 1
 468 0 l 1
 468 673 l 1
EndSplineSet
EndChar

StartChar: kgreenlandic
Encoding: 312 312 235
Width: 1040
VWidth: 0
Flags: W
PickledData: "(dp1
S'com.typemytype.robofont.layerData'
p2
(dp3
S'b'
(dp4
S'name'
p5
S'kgreenlandic'
p6
sS'lib'
p7
(dp8
sS'unicodes'
p9
(tsS'width'
p10
I1040
sS'contours'
p11
(tsS'components'
p12
(tsS'anchors'
p13
(tsss."
LayerCount: 2
Fore
SplineSet
416 634 m 1
 639 0 l 1
 1020 0 l 1
 734 775 l 1
 959 1500 l 1
 588 1500 l 1
 416 910 l 1
 416 1500 l 1
 62 1500 l 1
 62 0 l 1
 416 0 l 1
 416 634 l 1
EndSplineSet
EndChar

StartChar: l
Encoding: 108 108 236
Width: 404
VWidth: 0
Flags: W
PickledData: "(dp1
S'com.typemytype.robofont.layerData'
p2
(dp3
S'b'
(dp4
S'name'
p5
S'l'
sS'lib'
p6
(dp7
sS'unicodes'
p8
(tsS'width'
p9
I404
sS'contours'
p10
(tsS'components'
p11
(tsS'anchors'
p12
(tsss."
LayerCount: 2
Fore
SplineSet
121 1769 m 1
 121 0 l 1
 289 0 l 1
 289 1769 l 1
 121 1769 l 1
EndSplineSet
EndChar

StartChar: lacute
Encoding: 314 314 237
Width: 594
VWidth: 0
Flags: W
PickledData: "(dp1
S'com.typemytype.robofont.layerData'
p2
(dp3
S'b'
(dp4
S'name'
p5
S'lacute'
p6
sS'lib'
p7
(dp8
sS'unicodes'
p9
(tsS'width'
p10
I594
sS'contours'
p11
(tsS'components'
p12
(tsS'anchors'
p13
(tsss."
LayerCount: 2
Fore
SplineSet
59.5 1932 m 1
 534.5 2026 l 1
 534.5 2373 l 1
 59.5 2155 l 1
 59.5 1932 l 1
115 1769 m 1
 115 0 l 1
 479 0 l 1
 479 1769 l 1
 115 1769 l 1
EndSplineSet
EndChar

StartChar: lcaron
Encoding: 318 318 238
Width: 594
VWidth: 0
Flags: W
PickledData: "(dp1
S'com.typemytype.robofont.layerData'
p2
(dp3
S'b'
(dp4
S'name'
p5
S'lcaron'
p6
sS'lib'
p7
(dp8
sS'unicodes'
p9
(tsS'width'
p10
I594
sS'contours'
p11
(tsS'components'
p12
(tsS'anchors'
p13
(tsss."
LayerCount: 2
Fore
SplineSet
784.5 1123 m 1
 952.5 1123 l 1
 1054.5 1460 l 1
 1054.5 1769 l 1
 723.5 1769 l 1
 723.5 1451 l 1
 850.5 1451 l 1
 784.5 1123 l 1
115 1769 m 1
 115 0 l 1
 479 0 l 1
 479 1769 l 1
 115 1769 l 1
EndSplineSet
EndChar

StartChar: lcommaaccent
Encoding: 316 316 239
Width: 594
VWidth: 0
Flags: W
PickledData: "(dp1
S'com.typemytype.robofont.layerData'
p2
(dp3
S'b'
(dp4
S'name'
p5
S'lcommaaccent'
p6
sS'lib'
p7
(dp8
sS'unicodes'
p9
(tsS'width'
p10
I594
sS'contours'
p11
(tsS'components'
p12
(tsS'anchors'
p13
(tsss."
LayerCount: 2
Fore
SplineSet
192.5 -809 m 1
 360.5 -809 l 1
 462.5 -472 l 1
 462.5 -163 l 1
 131.5 -163 l 1
 131.5 -481 l 1
 258.5 -481 l 1
 192.5 -809 l 1
115 1769 m 1
 115 0 l 1
 479 0 l 1
 479 1769 l 1
 115 1769 l 1
EndSplineSet
EndChar

StartChar: ldot
Encoding: 320 320 240
Width: 1074
VWidth: 0
Flags: W
PickledData: "(dp1
S'com.typemytype.robofont.layerData'
p2
(dp3
S'b'
(dp4
S'name'
p5
S'ldot'
p6
sS'lib'
p7
(dp8
sS'unicodes'
p9
(tsS'width'
p10
I1074
sS'contours'
p11
(tsS'components'
p12
(tsS'anchors'
p13
(tsss."
LayerCount: 2
Fore
SplineSet
980 1021 m 1
 702 1021 l 1
 702 723 l 1
 980 723 l 1
 980 1021 l 1
115 1769 m 1
 115 0 l 1
 479 0 l 1
 479 1769 l 1
 115 1769 l 1
EndSplineSet
EndChar

StartChar: less
Encoding: 60 60 241
Width: 730
VWidth: 0
Flags: W
PickledData: "(dp1
S'com.typemytype.robofont.layerData'
p2
(dp3
S'b'
(dp4
S'name'
p5
S'less'
p6
sS'lib'
p7
(dp8
sS'unicodes'
p9
(tsS'width'
p10
I730
sS'contours'
p11
(tsS'components'
p12
(tsS'anchors'
p13
(tsss."
LayerCount: 2
Fore
SplineSet
636 558 m 1
 294 749 l 1
 636 941 l 1
 636 1300 l 1
 66 959 l 1
 66 545 l 1
 636 200 l 1
 636 558 l 1
EndSplineSet
EndChar

StartChar: lessequal
Encoding: 8804 8804 242
Width: 781
VWidth: 0
Flags: W
PickledData: "(dp1
S'com.typemytype.robofont.layerData'
p2
(dp3
S'b'
(dp4
S'name'
p5
S'lessequal'
p6
sS'lib'
p7
(dp8
sS'unicodes'
p9
(tsS'width'
p10
I781
sS'contours'
p11
(tsS'components'
p12
(tsS'anchors'
p13
(tsss."
LayerCount: 2
Fore
SplineSet
642 232 m 1
 126 232 l 1
 126 0 l 1
 642 0 l 1
 642 232 l 1
669 650 m 1
 327 841 l 1
 669 1033 l 1
 669 1392 l 1
 99 1051 l 1
 99 637 l 1
 669 292 l 1
 669 650 l 1
EndSplineSet
EndChar

StartChar: logicalnot
Encoding: 172 172 243
Width: 947
VWidth: 0
Flags: W
PickledData: "(dp1
S'com.typemytype.robofont.layerData'
p2
(dp3
S'b'
(dp4
S'name'
p5
S'logicalnot'
p6
sS'lib'
p7
(dp8
sS'unicodes'
p9
(tsS'width'
p10
I947
sS'contours'
p11
(tsS'components'
p12
(tsS'anchors'
p13
(tsss."
LayerCount: 2
Fore
SplineSet
602 743 m 1
 602 439 l 1
 826 439 l 1
 826 979 l 1
 97 979 l 1
 97 743 l 1
 602 743 l 1
EndSplineSet
EndChar

StartChar: lozenge
Encoding: 9674 9674 244
Width: 921
VWidth: 0
Flags: W
PickledData: "(dp1
S'com.typemytype.robofont.layerData'
p2
(dp3
S'b'
(dp4
S'name'
p5
S'lozenge'
p6
sS'lib'
p7
(dp8
sS'unicodes'
p9
(tsS'width'
p10
I921
sS'contours'
p11
(tsS'components'
p12
(tsS'anchors'
p13
(tsss."
LayerCount: 2
Fore
SplineSet
648 0 m 1
 887 713 l 1
 648 1436 l 1
 277 1436 l 1
 34 713 l 1
 277 0 l 1
 648 0 l 1
475 1247 m 1
 609 713 l 1
 475 179 l 1
 443 179 l 1
 309 713 l 1
 443 1247 l 1
 475 1247 l 1
EndSplineSet
EndChar

StartChar: lslash
Encoding: 322 322 245
Width: 718
VWidth: 0
Flags: W
PickledData: "(dp1
S'com.typemytype.robofont.layerData'
p2
(dp3
S'b'
(dp4
S'name'
p5
S'lslash'
p6
sS'lib'
p7
(dp8
sS'unicodes'
p9
(tsS'width'
p10
I718
sS'contours'
p11
(tsS'components'
p12
(tsS'anchors'
p13
(tsss."
LayerCount: 2
Fore
SplineSet
176 0 m 1
 540 0 l 1
 540 886 l 1
 617 921 l 1
 617 1153 l 1
 540 1118 l 1
 540 1767 l 1
 176 1767 l 1
 176 955 l 1
 101 921 l 1
 101 689 l 1
 176 723 l 1
 176 0 l 1
EndSplineSet
EndChar

StartChar: m
Encoding: 109 109 246
Width: 1304
VWidth: 0
Flags: W
PickledData: "(dp1
S'com.typemytype.robofont.layerData'
p2
(dp3
S'b'
(dp4
S'name'
p5
S'm'
sS'lib'
p6
(dp7
sS'unicodes'
p8
(tsS'width'
p9
I1304
sS'contours'
p10
((dp11
S'points'
p12
((dp13
S'segmentType'
p14
S'curve'
p15
sS'x'
F566
sS'smooth'
p16
I01
sS'y'
F1243
s(dp17
S'y'
F1243
sS'x'
F629
sg16
I00
s(dp18
S'y'
F1165
sS'x'
F636
sg16
I00
s(dp19
g14
S'curve'
p20
sS'x'
F636
sg16
I01
sS'y'
F1102
s(dp21
g14
S'line'
p22
sS'x'
F636
sg16
I00
sS'y'
F0
s(dp23
g14
S'line'
p24
sS'x'
F988
sg16
I00
sS'y'
F0
s(dp25
g14
S'line'
p26
sS'x'
F988
sg16
I01
sS'y'
F1077
s(dp27
S'y'
F1154
sS'x'
F988
sg16
I00
s(dp28
S'y'
F1247
sS'x'
F1008
sg16
I00
s(dp29
g14
S'curve'
p30
sS'x'
F1085
sg16
I01
sS'y'
F1247
s(dp31
S'y'
F1247
sS'x'
F1134
sg16
I00
s(dp32
S'y'
F1199
sS'x'
F1158
sg16
I00
s(dp33
g14
S'curve'
p34
sS'x'
F1158
sg16
I01
sS'y'
F1102
s(dp35
g14
S'line'
p36
sS'x'
F1158
sg16
I00
sS'y'
F0
s(dp37
g14
S'line'
p38
sS'x'
F1510
sg16
I00
sS'y'
F0
s(dp39
g14
S'line'
p40
sS'x'
F1510
sg16
I01
sS'y'
F1096
s(dp41
S'y'
F1343
sS'x'
F1510
sg16
I00
s(dp42
S'y'
F1519
sS'x'
F1455
sg16
I00
s(dp43
g14
S'curve'
p44
sS'x'
F1206
sg16
I01
sS'y'
F1519
s(dp45
S'y'
F1519
sS'x'
F1068
sg16
I00
s(dp46
S'y'
F1464
sS'x'
F1010
sg16
I00
s(dp47
g14
S'curve'
p48
sS'x'
F955
sg16
I00
sS'y'
F1365
s(dp49
S'y'
F1456
sS'x'
F920
sg16
I00
s(dp50
S'y'
F1519
sS'x'
F832
sg16
I00
s(dp51
g14
S'curve'
p52
sS'x'
F712
sg16
I01
sS'y'
F1519
s(dp53
S'y'
F1519
sS'x'
F562
sg16
I00
s(dp54
S'y'
F1448
sS'x'
F496
sg16
I00
s(dp55
g14
S'curve'
p56
sS'x'
F464
sg16
I00
sS'y'
F1326
s(dp57
g14
S'line'
p58
sS'x'
F464
sg16
I00
sS'y'
F1500
s(dp59
g14
S'line'
p60
sS'x'
F112
sg16
I00
sS'y'
F1500
s(dp61
g14
S'line'
p62
sS'x'
F112
sg16
I00
sS'y'
F0
s(dp63
g14
S'line'
p64
sS'x'
F464
sg16
I00
sS'y'
F0
s(dp65
g14
S'line'
p66
sS'x'
F464
sg16
I01
sS'y'
F1059
s(dp67
S'y'
F1140
sS'x'
F464
sg16
I00
s(dp68
S'y'
F1243
sS'x'
F485
sg16
I00
stp69
stp70
sS'components'
p71
(tsS'anchors'
p72
(tsss."
LayerCount: 2
Fore
SplineSet
573 1214 m 2
 573 0 l 1
 741 0 l 1
 741 1206 l 2
 741 1408 666 1506 538 1518 c 0
 530 1519 522 1519 514 1519 c 0
 396 1519 309 1437 283 1349 c 1
 283 1500 l 1
 115 1500 l 1
 115 0 l 1
 283 0 l 1
 283 1205 l 1
 303 1288 390 1368 473 1368 c 0
 531 1368 573 1331 573 1214 c 2
1031 1214 m 2
 1031 0 l 1
 1199 0 l 1
 1199 1206 l 2
 1199 1408 1124 1506 996 1518 c 0
 988 1519 980 1519 972 1519 c 0
 854 1519 756 1449 711 1352 c 2
 685 1296 l 1
 740 1205 l 1
 760 1288 848 1368 931 1368 c 0
 989 1368 1031 1331 1031 1214 c 2
EndSplineSet
EndChar

StartChar: macron
Encoding: 175 175 247
Width: 696
VWidth: 0
Flags: W
PickledData: "(dp1
S'com.typemytype.robofont.layerData'
p2
(dp3
S'b'
(dp4
S'name'
p5
S'macron'
p6
sS'lib'
p7
(dp8
sS'unicodes'
p9
(tsS'width'
p10
I696
sS'contours'
p11
(tsS'components'
p12
(tsS'anchors'
p13
(tsss."
LayerCount: 2
Fore
SplineSet
606 741 m 1
 90 741 l 1
 90 509 l 1
 606 509 l 1
 606 741 l 1
EndSplineSet
EndChar

StartChar: minus
Encoding: 8722 8722 248
Width: 637
VWidth: 0
Flags: W
PickledData: "(dp1
S'com.typemytype.robofont.layerData'
p2
(dp3
S'b'
(dp4
S'name'
p5
S'minus'
p6
sS'lib'
p7
(dp8
sS'unicodes'
p9
(tsS'width'
p10
I637
sS'contours'
p11
(tsS'components'
p12
(tsS'anchors'
p13
(tsss."
LayerCount: 2
Fore
SplineSet
576 741 m 1
 60 741 l 1
 60 509 l 1
 576 509 l 1
 576 741 l 1
EndSplineSet
EndChar

StartChar: mu
Encoding: 181 181 249
Width: 1099
VWidth: 0
Flags: W
PickledData: "(dp1
S'com.typemytype.robofont.layerData'
p2
(dp3
S'b'
(dp4
S'name'
p5
S'mu'
p6
sS'lib'
p7
(dp8
sS'unicodes'
p9
(tsS'width'
p10
I1099
sS'contours'
p11
(tsS'components'
p12
(tsS'anchors'
p13
(tsss."
LayerCount: 2
Fore
SplineSet
545 264 m 0
 457 264 465 342 465 455 c 2
 465 1500 l 1
 105 1500 l 1
 105 -186 l 1
 445 -186 l 1
 445 1 l 1
 532 18 595 72 629 160 c 1
 629 0 l 1
 987 0 l 1
 987 1500 l 1
 631 1500 l 1
 629 455 l 1
 629 443 l 2
 629 360 628 264 545 264 c 0
EndSplineSet
EndChar

StartChar: multiply
Encoding: 215 215 250
Width: 710
VWidth: 0
Flags: W
PickledData: "(dp1
S'com.typemytype.robofont.layerData'
p2
(dp3
S'b'
(dp4
S'name'
p5
S'multiply'
p6
sS'lib'
p7
(dp8
sS'unicodes'
p9
(tsS'width'
p10
I710
sS'contours'
p11
(tsS'components'
p12
(tsS'anchors'
p13
(tsss."
LayerCount: 2
Fore
SplineSet
502 314 m 1
 666 478 l 1
 519 625 l 1
 666 772 l 1
 502 936 l 1
 355 789 l 1
 208 936 l 1
 44 772 l 1
 191 625 l 1
 44 478 l 1
 208 314 l 1
 355 461 l 1
 502 314 l 1
EndSplineSet
EndChar

StartChar: n
Encoding: 110 110 251
Width: 857
VWidth: 0
Flags: W
PickledData: "(dp1
S'com.typemytype.robofont.layerData'
p2
(dp3
S'b'
(dp4
S'name'
p5
S'n'
sS'lib'
p6
(dp7
sS'unicodes'
p8
(tsS'width'
p9
F857
sS'contours'
p10
(tsS'components'
p11
(tsS'anchors'
p12
(tsss."
LayerCount: 2
Fore
SplineSet
584 1214 m 2
 584 0 l 1
 752 0 l 1
 752 1206 l 2
 752 1408 677 1506 549 1518 c 0
 541 1519 533 1519 525 1519 c 0
 407 1519 309 1437 283 1349 c 1
 283 1500 l 1
 115 1500 l 1
 115 0 l 1
 283 0 l 1
 283 1205 l 1
 303 1288 401 1374 484 1374 c 0
 542 1374 584 1331 584 1214 c 2
EndSplineSet
EndChar

StartChar: nacute
Encoding: 324 324 252
Width: 1099
VWidth: 0
Flags: W
PickledData: "(dp1
S'com.typemytype.robofont.layerData'
p2
(dp3
S'b'
(dp4
S'name'
p5
S'nacute'
p6
sS'lib'
p7
(dp8
sS'unicodes'
p9
(tsS'width'
p10
I1099
sS'contours'
p11
(tsS'components'
p12
(tsS'anchors'
p13
(tsss."
LayerCount: 2
Fore
SplineSet
315.5 1681 m 1
 790.5 1775 l 1
 790.5 2122 l 1
 315.5 1904 l 1
 315.5 1681 l 1
558 1239 m 0
 616 1239 638 1179 638 1120 c 2
 638 0 l 1
 994 0 l 1
 994 1157 l 2
 994 1379 912 1518 704 1518 c 0
 575 1518 494 1423 468 1309 c 1
 468 1500 l 1
 112 1500 l 1
 112 0 l 1
 468 0 l 1
 468 1055 l 2
 468 1138 475 1239 558 1239 c 0
EndSplineSet
EndChar

StartChar: ncaron
Encoding: 328 328 253
Width: 1099
VWidth: 0
Flags: W
PickledData: "(dp1
S'com.typemytype.robofont.layerData'
p2
(dp3
S'b'
(dp4
S'name'
p5
S'ncaron'
p6
sS'lib'
p7
(dp8
sS'unicodes'
p9
(tsS'width'
p10
I1099
sS'contours'
p11
(tsS'components'
p12
(tsS'anchors'
p13
(tsss."
LayerCount: 2
Fore
SplineSet
757 1681 m 1
 998 2084 l 1
 639 2084 l 1
 553 1799 l 1
 467 2084 l 1
 108 2084 l 1
 349 1681 l 1
 757 1681 l 1
558 1239 m 0
 616 1239 638 1179 638 1120 c 2
 638 0 l 1
 994 0 l 1
 994 1157 l 2
 994 1379 912 1518 704 1518 c 0
 575 1518 494 1423 468 1309 c 1
 468 1500 l 1
 112 1500 l 1
 112 0 l 1
 468 0 l 1
 468 1055 l 2
 468 1138 475 1239 558 1239 c 0
EndSplineSet
EndChar

